<svg width="1666" height="459" viewBox="0 0 1666 459" fill="none" xmlns="http://www.w3.org/2000/svg">
<mask id="mask0_55_2876" style="mask-type:alpha" maskUnits="userSpaceOnUse" x="1005" y="0" width="661" height="459">
<rect x="1666" width="459" height="661" transform="rotate(90 1666 0)" fill="url(#paint0_radial_55_2876)"/>
</mask>
<g mask="url(#mask0_55_2876)">
<rect x="1005" y="101.998" width="59" height="59" rx="18" fill="#1A203D"/>
<rect x="946.001" y="101.998" width="59" height="59" rx="18" fill="#1A203D"/>
<rect x="1064" y="101.998" width="59" height="59" rx="18" fill="#1A203D"/>
<rect x="1123" y="101.998" width="59" height="59" rx="18" fill="#1A203D"/>
<rect x="1123" y="42.998" width="59" height="59" rx="18" fill="#1A203D"/>
<rect x="1064" y="42.998" width="59" height="59" rx="18" fill="#1A203D"/>
<rect x="1005" y="42.998" width="59" height="59" rx="18" fill="#1A203D"/>
<rect x="1182" y="42.998" width="59" height="59" rx="18" fill="#1A203D"/>
<rect x="1123" y="-16.002" width="59" height="59" rx="18" fill="#1A203D"/>
<rect x="1064" y="-16.002" width="59" height="59" rx="18" fill="#1A203D"/>
<rect x="1123" y="160.998" width="59" height="59" rx="18" fill="#1A203D"/>
<rect x="1123" y="219.998" width="59" height="59" rx="18" fill="#1A203D"/>
<rect x="1123" y="278.998" width="59" height="59" rx="18" fill="#1A203D"/>
<rect x="1064" y="278.998" width="59" height="59" rx="18" fill="#1A203D"/>
<rect x="1064" y="337.998" width="59" height="59" rx="18" fill="#1A203D"/>
<rect x="1182" y="160.998" width="59" height="59" rx="18" fill="#1A203D"/>
<rect x="1182" y="219.998" width="59" height="59" rx="18" fill="#1A203D"/>
<rect x="1241" y="219.998" width="59" height="59" rx="18" fill="#1A203D"/>
<rect x="1300" y="219.998" width="59" height="59" rx="18" fill="#1A203D"/>
<rect x="1359" y="219.998" width="59" height="59" rx="18" fill="#1A203D"/>
<rect x="1300" y="278.998" width="59" height="59" rx="18" fill="#1A203D"/>
<rect x="1358" y="278.998" width="59" height="59" rx="18" fill="#1A203D"/>
<rect x="1417" y="279.998" width="59" height="59" rx="18" fill="#1A203D"/>
<rect x="1417" y="220.998" width="59" height="59" rx="18" fill="#1A203D"/>
<rect x="1476" y="219.998" width="59" height="59" rx="18" fill="#1A203D"/>
<rect x="1535" y="219.998" width="59" height="59" rx="18" fill="#1A203D"/>
<rect x="1594" y="219.998" width="59" height="59" rx="18" fill="#1A203D"/>
<rect x="1595" y="278.998" width="59" height="59" rx="18" fill="#1A203D"/>
<rect x="1476" y="160.998" width="59" height="59" rx="18" fill="#1A203D"/>
<rect x="1417" y="338.998" width="59" height="59" rx="18" fill="#1A203D"/>
<rect x="1476" y="337.998" width="59" height="59" rx="18" fill="#1A203D"/>
<rect x="1476" y="396.998" width="59" height="59" rx="18" fill="#1A203D"/>
<rect x="1417" y="396.998" width="59" height="59" rx="18" fill="#1A203D"/>
<rect x="1535" y="397.998" width="59" height="59" rx="18" fill="#1A203D"/>
<rect x="1300" y="337.998" width="59" height="59" rx="18" fill="#1A203D"/>
<rect x="1358" y="338.998" width="59" height="59" rx="18" fill="#1A203D"/>
<rect x="1300" y="160.998" width="59" height="59" rx="18" fill="#1A203D"/>
<rect x="1241" y="160.998" width="59" height="59" rx="18" fill="#1A203D"/>
<rect x="1064" y="160.998" width="59" height="59" rx="18" fill="#1A203D"/>
<rect x="1064" y="219.998" width="59" height="59" rx="18" fill="#1A203D"/>
<rect x="1005" y="219.998" width="59" height="59" rx="18" fill="#1A203D"/>
<rect x="1005" y="278.998" width="59" height="59" rx="18" fill="#1A203D"/>
</g>
<mask id="mask1_55_2876" style="mask-type:alpha" maskUnits="userSpaceOnUse" x="0" y="0" width="649" height="459">
<rect y="459" width="459" height="649" transform="rotate(-90 0 459)" fill="url(#paint1_radial_55_2876)"/>
</mask>
<g mask="url(#mask1_55_2876)">
<rect x="177" y="364.997" width="59" height="59" rx="18" transform="rotate(-90 177 364.997)" fill="#1A203D"/>
<rect x="177" y="423.997" width="59" height="59" rx="18" transform="rotate(-90 177 423.997)" fill="#1A203D"/>
<rect x="177" y="482.997" width="59" height="59" rx="18" transform="rotate(-90 177 482.997)" fill="#1A203D"/>
<rect x="177" y="305.997" width="59" height="59" rx="18" transform="rotate(-90 177 305.997)" fill="#1A203D"/>
<rect x="177" y="246.997" width="59" height="59" rx="18" transform="rotate(-90 177 246.997)" fill="#1A203D"/>
<rect x="118" y="246.997" width="59" height="59" rx="18" transform="rotate(-90 118 246.997)" fill="#1A203D"/>
<rect x="118" y="305.997" width="59" height="59" rx="18" transform="rotate(-90 118 305.997)" fill="#1A203D"/>
<rect x="118" y="364.997" width="59" height="59" rx="18" transform="rotate(-90 118 364.997)" fill="#1A203D"/>
<rect x="118" y="187.997" width="59" height="59" rx="18" transform="rotate(-90 118 187.997)" fill="#1A203D"/>
<rect x="59" y="246.997" width="59" height="59" rx="18" transform="rotate(-90 59 246.997)" fill="#1A203D"/>
<rect x="59" y="305.997" width="59" height="59" rx="18" transform="rotate(-90 59 305.997)" fill="#1A203D"/>
<rect y="305.996" width="59" height="59" rx="18" transform="rotate(-90 0 305.996)" fill="#1A203D"/>
<rect y="364.996" width="59" height="59" rx="18" transform="rotate(-90 0 364.996)" fill="#1A203D"/>
<rect x="236" y="246.997" width="59" height="59" rx="18" transform="rotate(-90 236 246.997)" fill="#1A203D"/>
<rect x="295" y="246.997" width="59" height="59" rx="18" transform="rotate(-90 295 246.997)" fill="#1A203D"/>
<rect x="354" y="246.997" width="59" height="59" rx="18" transform="rotate(-90 354 246.997)" fill="#1A203D"/>
<rect x="354" y="305.997" width="59" height="59" rx="18" transform="rotate(-90 354 305.997)" fill="#1A203D"/>
<rect x="413" y="305.997" width="59" height="59" rx="18" transform="rotate(-90 413 305.997)" fill="#1A203D"/>
<rect x="472" y="305.997" width="59" height="59" rx="18" transform="rotate(-90 472 305.997)" fill="#1A203D"/>
<rect x="472" y="246.997" width="59" height="59" rx="18" transform="rotate(-90 472 246.997)" fill="#1A203D"/>
<rect x="531" y="246.997" width="59" height="59" rx="18" transform="rotate(-90 531 246.997)" fill="#1A203D"/>
<rect x="590" y="246.997" width="59" height="59" rx="18" transform="rotate(-90 590 246.997)" fill="#1A203D"/>
<rect x="236" y="187.997" width="59" height="59" rx="18" transform="rotate(-90 236 187.997)" fill="#1A203D"/>
<rect x="295" y="187.997" width="59" height="59" rx="18" transform="rotate(-90 295 187.997)" fill="#1A203D"/>
<rect x="295" y="128.997" width="59" height="59" rx="18" transform="rotate(-90 295 128.997)" fill="#1A203D"/>
<rect x="295" y="69.9971" width="59" height="59" rx="18" transform="rotate(-90 295 69.9971)" fill="#1A203D"/>
<rect x="295" y="10.9971" width="59" height="59" rx="18" transform="rotate(-90 295 10.9971)" fill="#1A203D"/>
<rect x="354" y="69.9971" width="59" height="59" rx="18" transform="rotate(-90 354 69.9971)" fill="#1A203D"/>
<rect x="236" y="69.9971" width="59" height="59" rx="18" transform="rotate(-90 236 69.9971)" fill="#1A203D"/>
<rect x="177" y="69.9971" width="59" height="59" rx="18" transform="rotate(-90 177 69.9971)" fill="#1A203D"/>
<rect x="177" y="10.9971" width="59" height="59" rx="18" transform="rotate(-90 177 10.9971)" fill="#1A203D"/>
<rect x="118" y="10.9971" width="59" height="59" rx="18" transform="rotate(-90 118 10.9971)" fill="#1A203D"/>
<rect x="236" y="128.997" width="59" height="59" rx="18" transform="rotate(-90 236 128.997)" fill="#1A203D"/>
<rect x="236" y="305.997" width="59" height="59" rx="18" transform="rotate(-90 236 305.997)" fill="#1A203D"/>
<rect x="295" y="305.997" width="59" height="59" rx="18" transform="rotate(-90 295 305.997)" fill="#1A203D"/>
<rect x="295" y="364.997" width="59" height="59" rx="18" transform="rotate(-90 295 364.997)" fill="#1A203D"/>
<rect x="354" y="364.997" width="59" height="59" rx="18" transform="rotate(-90 354 364.997)" fill="#1A203D"/>
</g>
<defs>
<radialGradient id="paint0_radial_55_2876" cx="0" cy="0" r="1" gradientUnits="userSpaceOnUse" gradientTransform="translate(1895.5 330.5) rotate(90.0726) scale(341.194 236.926)">
<stop stop-color="#D9D9D9"/>
<stop offset="1" stop-color="#D9D9D9" stop-opacity="0"/>
</radialGradient>
<radialGradient id="paint1_radial_55_2876" cx="0" cy="0" r="1" gradientUnits="userSpaceOnUse" gradientTransform="translate(229.5 783.5) rotate(90.0739) scale(335 236.926)">
<stop stop-color="#D9D9D9"/>
<stop offset="1" stop-color="#D9D9D9" stop-opacity="0"/>
</radialGradient>
</defs>
</svg>
