<svg width="24" height="24" viewBox="0 0 24 24" fill="none" xmlns="http://www.w3.org/2000/svg">
<path d="M3 7.75H19C19.41 7.75 19.75 7.41 19.75 7C19.75 6.59 19.41 6.25 19 6.25H3C2.59 6.25 2.25 6.59 2.25 7C2.25 7.41 2.59 7.75 3 7.75Z" fill="#393CFF"/>
<path d="M3 12.75H21C21.41 12.75 21.75 12.41 21.75 12C21.75 11.59 21.41 11.25 21 11.25H3C2.59 11.25 2.25 11.59 2.25 12C2.25 12.41 2.59 12.75 3 12.75Z" fill="#393CFF"/>
<path d="M3 17.75H16C16.41 17.75 16.75 17.41 16.75 17C16.75 16.59 16.41 16.25 16 16.25H3C2.59 16.25 2.25 16.59 2.25 17C2.25 17.41 2.59 17.75 3 17.75Z" fill="#393CFF"/>
</svg>
