<svg width="46" height="22" viewBox="0 0 46 22" fill="none" xmlns="http://www.w3.org/2000/svg">
<path d="M11.75 13C9.96 13 8.5 11.54 8.5 9.75C8.5 7.96 9.96 6.5 11.75 6.5C13.54 6.5 15 7.96 15 9.75C15 11.54 13.54 13 11.75 13ZM11.75 8C10.79 8 10 8.79 10 9.75C10 10.71 10.79 11.5 11.75 11.5C12.71 11.5 13.5 10.71 13.5 9.75C13.5 8.79 12.71 8 11.75 8Z" fill="#796D24"/>
<path d="M18.25 13C17.84 13 17.5 12.66 17.5 12.25V7.25C17.5 6.84 17.84 6.5 18.25 6.5C18.66 6.5 19 6.84 19 7.25V12.25C19 12.66 18.66 13 18.25 13Z" fill="#796D24"/>
<path d="M4.75 20.5C2.13 20.5 0 18.37 0 15.75C0 13.13 2.13 11 4.75 11C7.37 11 9.5 13.13 9.5 15.75C9.5 18.37 7.37 20.5 4.75 20.5ZM4.75 12.5C2.96 12.5 1.5 13.96 1.5 15.75C1.5 17.54 2.96 19 4.75 19C6.54 19 8 17.54 8 15.75C8 13.96 6.54 12.5 4.75 12.5Z" fill="#796D24"/>
<path d="M3.74988 17.4998C3.49988 17.4998 3.24988 17.3698 3.10988 17.1398C2.89988 16.7898 3.00988 16.3197 3.36988 16.1097L4.12988 15.6498C4.19988 15.6098 4.24988 15.5198 4.24988 15.4398V14.5098C4.24988 14.0998 4.58988 13.7598 4.99988 13.7598C5.40988 13.7598 5.74988 14.0998 5.74988 14.5098V15.4398C5.74988 16.0498 5.41988 16.6298 4.89988 16.9398L4.13988 17.3998C4.01988 17.4698 3.87988 17.4998 3.74988 17.4998Z" fill="#796D24"/>
<path d="M16.75 18.5H8.25C7.84 18.5 7.5 18.16 7.5 17.75C7.5 17.34 7.84 17 8.25 17H16.75C19.61 17 21 15.61 21 12.75V6.75C21 3.89 19.61 2.5 16.75 2.5H6.75C3.89 2.5 2.5 3.89 2.5 6.75V12.95C2.5 13.36 2.16 13.7 1.75 13.7C1.34 13.7 1 13.36 1 12.95V6.75C1 3.1 3.1 1 6.75 1H16.75C20.4 1 22.5 3.1 22.5 6.75V12.75C22.5 16.4 20.4 18.5 16.75 18.5Z" fill="#796D24"/>
<path d="M37.75 21.5H31.75C26.32 21.5 24 19.18 24 13.75V7.75C24 2.32 26.32 0 31.75 0H37.75C43.18 0 45.5 2.32 45.5 7.75V13.75C45.5 19.18 43.18 21.5 37.75 21.5ZM31.75 1.5C27.14 1.5 25.5 3.14 25.5 7.75V13.75C25.5 18.36 27.14 20 31.75 20H37.75C42.36 20 44 18.36 44 13.75V7.75C44 3.14 42.36 1.5 37.75 1.5H31.75Z" fill="#796D24"/>
<path d="M38.75 18.5H30.75C28.33 18.5 27 17.17 27 14.75V6.75C27 4.33 28.33 3 30.75 3H38.75C41.17 3 42.5 4.33 42.5 6.75V14.75C42.5 17.17 41.17 18.5 38.75 18.5ZM30.75 4.5C29.17 4.5 28.5 5.17 28.5 6.75V14.75C28.5 16.33 29.17 17 30.75 17H38.75C40.33 17 41 16.33 41 14.75V6.75C41 5.17 40.33 4.5 38.75 4.5H30.75Z" fill="#796D24"/>
<path d="M30.23 14H27.75C27.34 14 27 13.66 27 13.25C27 12.84 27.34 12.5 27.75 12.5H30.23C31.2 12.5 31.98 11.71 31.98 10.75C31.98 9.79 31.19 9 30.23 9H27.75C27.34 9 27 8.66 27 8.25C27 7.84 27.34 7.5 27.75 7.5H30.23C32.02 7.5 33.48 8.96 33.48 10.75C33.48 12.54 32.03 14 30.23 14Z" fill="#796D24"/>
<path d="M41.75 9.4902H38.75C38.34 9.4902 38 9.1502 38 8.74023C38 8.33023 38.34 7.99023 38.75 7.99023H41.75C42.16 7.99023 42.5 8.33023 42.5 8.74023C42.5 9.1502 42.16 9.4902 41.75 9.4902Z" fill="#796D24"/>
<path d="M41.75 13.5H38.75C38.34 13.5 38 13.16 38 12.75C38 12.34 38.34 12 38.75 12H41.75C42.16 12 42.5 12.34 42.5 12.75C42.5 13.16 42.16 13.5 41.75 13.5Z" fill="#796D24"/>
<path d="M30 11.7501C29.87 11.7501 29.74 11.7201 29.62 11.6701C29.5 11.6201 29.39 11.5501 29.29 11.4601C29.1 11.2701 29 11.0201 29 10.7501C29 10.4901 29.11 10.2301 29.29 10.0401C29.57 9.77012 30.01 9.67012 30.38 9.83012C30.51 9.88012 30.62 9.95012 30.71 10.0401C30.89 10.2301 31 10.4901 31 10.7501C31 11.0201 30.9 11.2701 30.71 11.4601C30.61 11.5501 30.5 11.6201 30.38 11.6701C30.26 11.7201 30.13 11.7501 30 11.7501Z" fill="#796D24"/>
</svg>
