<svg width="237" height="24" viewBox="0 0 237 24" fill="none" xmlns="http://www.w3.org/2000/svg">
<path d="M6 9C5.59 9 5.25 8.66 5.25 8.25V6.25C5.25 5.84 5.59 5.5 6 5.5C6.41 5.5 6.75 5.84 6.75 6.25V8.25C6.75 8.66 6.41 9 6 9Z" fill="#393CFF"/>
<path d="M10 9C9.59 9 9.25 8.66 9.25 8.25V6.25C9.25 5.84 9.59 5.5 10 5.5C10.41 5.5 10.75 5.84 10.75 6.25V8.25C10.75 8.66 10.41 9 10 9Z" fill="#393CFF"/>
<path d="M15 22.75H9C3.57 22.75 1.25 20.43 1.25 15V9C1.25 3.57 3.57 1.25 9 1.25H15C20.43 1.25 22.75 3.57 22.75 9V15C22.75 20.43 20.43 22.75 15 22.75ZM9 2.75C4.39 2.75 2.75 4.39 2.75 9V15C2.75 19.61 4.39 21.25 9 21.25H15C19.61 21.25 21.25 19.61 21.25 15V9C21.25 4.39 19.61 2.75 15 2.75H9Z" fill="#393CFF"/>
<path d="M6 18.75C5.59 18.75 5.25 18.41 5.25 18V16C5.25 15.59 5.59 15.25 6 15.25C6.41 15.25 6.75 15.59 6.75 16V18C6.75 18.41 6.41 18.75 6 18.75Z" fill="#393CFF"/>
<path d="M10 18.75C9.59 18.75 9.25 18.41 9.25 18V16C9.25 15.59 9.59 15.25 10 15.25C10.41 15.25 10.75 15.59 10.75 16V18C10.75 18.41 10.41 18.75 10 18.75Z" fill="#393CFF"/>
<path d="M18 8H14C13.59 8 13.25 7.66 13.25 7.25C13.25 6.84 13.59 6.5 14 6.5H18C18.41 6.5 18.75 6.84 18.75 7.25C18.75 7.66 18.41 8 18 8Z" fill="#393CFF"/>
<path d="M18 17.75H14C13.59 17.75 13.25 17.41 13.25 17C13.25 16.59 13.59 16.25 14 16.25H18C18.41 16.25 18.75 16.59 18.75 17C18.75 17.41 18.41 17.75 18 17.75Z" fill="#393CFF"/>
<path d="M22 12.75H2C1.59 12.75 1.25 12.41 1.25 12C1.25 11.59 1.59 11.25 2 11.25H22C22.41 11.25 22.75 11.59 22.75 12C22.75 12.41 22.41 12.75 22 12.75Z" fill="#393CFF"/>
<path d="M86 22.75H80C74.57 22.75 72.25 20.43 72.25 15V9C72.25 3.57 74.57 1.25 80 1.25H86C91.43 1.25 93.75 3.57 93.75 9V15C93.75 20.43 91.43 22.75 86 22.75ZM80 2.75C75.39 2.75 73.75 4.39 73.75 9V15C73.75 19.61 75.39 21.25 80 21.25H86C90.61 21.25 92.25 19.61 92.25 15V9C92.25 4.39 90.61 2.75 86 2.75H80Z" fill="#393CFF"/>
<path d="M83 22.75C82.59 22.75 82.25 22.41 82.25 22V2C82.25 1.59 82.59 1.25 83 1.25C83.41 1.25 83.75 1.59 83.75 2V22C83.75 22.41 83.41 22.75 83 22.75Z" fill="#393CFF"/>
<path d="M83 10.25H73C72.59 10.25 72.25 9.91 72.25 9.5C72.25 9.09 72.59 8.75 73 8.75H83C83.41 8.75 83.75 9.09 83.75 9.5C83.75 9.91 83.41 10.25 83 10.25Z" fill="#393CFF"/>
<path d="M93 15.25H83C82.59 15.25 82.25 14.91 82.25 14.5C82.25 14.09 82.59 13.75 83 13.75H93C93.41 13.75 93.75 14.09 93.75 14.5C93.75 14.91 93.41 15.25 93 15.25Z" fill="#393CFF"/>
<path d="M151.99 22.75C151.79 22.75 151.63 22.71 151.51 22.66C151.11 22.51 150.43 22.02 150.43 20.47V14.02H148.09C146.75 14.02 146.27 13.39 146.1 13.02C145.93 12.64 145.78 11.87 146.66 10.86L154.23 2.26001C155.25 1.10001 156.08 1.18001 156.48 1.33001C156.88 1.48001 157.56 1.97001 157.56 3.52001V9.97001H159.9C161.24 9.97001 161.72 10.6 161.89 10.97C162.06 11.35 162.21 12.12 161.33 13.13L153.76 21.73C153.05 22.54 152.43 22.75 151.99 22.75ZM155.93 2.74001C155.9 2.78001 155.69 2.88001 155.36 3.26001L147.79 11.86C147.51 12.18 147.47 12.38 147.47 12.42C147.49 12.43 147.67 12.53 148.09 12.53H151.18C151.59 12.53 151.93 12.87 151.93 13.28V20.48C151.93 20.98 152.02 21.2 152.06 21.26C152.09 21.22 152.3 21.12 152.63 20.74L160.2 12.14C160.48 11.82 160.52 11.62 160.52 11.58C160.5 11.57 160.32 11.47 159.9 11.47H156.81C156.4 11.47 156.06 11.13 156.06 10.72V3.52001C156.07 3.02001 155.97 2.81001 155.93 2.74001Z" fill="#393CFF"/>
<path d="M231 7.90977C230.97 7.90977 230.95 7.90977 230.92 7.90977H230.87C228.98 7.84977 227.57 6.38977 227.57 4.58977C227.57 2.74977 229.07 1.25977 230.9 1.25977C232.73 1.25977 234.23 2.75977 234.23 4.58977C234.22 6.39977 232.81 7.85977 231.01 7.91977C231.01 7.90977 231.01 7.90977 231 7.90977ZM230.9 2.74977C229.89 2.74977 229.07 3.56977 229.07 4.57977C229.07 5.56977 229.84 6.36977 230.83 6.40977C230.84 6.39977 230.92 6.39977 231.01 6.40977C231.98 6.35977 232.73 5.55977 232.74 4.57977C232.74 3.56977 231.92 2.74977 230.9 2.74977Z" fill="#393CFF"/>
<path d="M231.01 15.28C230.62 15.28 230.23 15.25 229.84 15.18C229.43 15.11 229.16 14.72 229.23 14.31C229.3 13.9 229.69 13.63 230.1 13.7C231.33 13.91 232.63 13.68 233.5 13.1C233.97 12.79 234.22 12.4 234.22 12.01C234.22 11.62 233.96 11.24 233.5 10.93C232.63 10.35 231.31 10.12 230.07 10.34C229.66 10.42 229.27 10.14 229.2 9.73002C229.13 9.32002 229.4 8.93003 229.81 8.86003C231.44 8.57003 233.13 8.88002 234.33 9.68002C235.21 10.27 235.72 11.11 235.72 12.01C235.72 12.9 235.22 13.75 234.33 14.35C233.42 14.95 232.24 15.28 231.01 15.28Z" fill="#393CFF"/>
<path d="M218.97 7.91C218.96 7.91 218.95 7.91 218.95 7.91C217.15 7.85 215.74 6.39 215.73 4.59C215.73 2.75 217.23 1.25 219.06 1.25C220.89 1.25 222.39 2.75 222.39 4.58C222.39 6.39 220.98 7.85 219.18 7.91L218.97 7.16L219.04 7.91C219.02 7.91 218.99 7.91 218.97 7.91ZM219.07 6.41C219.13 6.41 219.18 6.41 219.24 6.42C220.13 6.38 220.91 5.58 220.91 4.59C220.91 3.58 220.09 2.75999 219.08 2.75999C218.07 2.75999 217.25 3.58 217.25 4.59C217.25 5.57 218.01 6.36 218.98 6.42C218.99 6.41 219.03 6.41 219.07 6.41Z" fill="#393CFF"/>
<path d="M218.96 15.28C217.73 15.28 216.55 14.95 215.64 14.35C214.76 13.76 214.25 12.91 214.25 12.01C214.25 11.12 214.76 10.27 215.64 9.68002C216.84 8.88002 218.53 8.57003 220.16 8.86003C220.57 8.93003 220.84 9.32002 220.77 9.73002C220.7 10.14 220.31 10.42 219.9 10.34C218.66 10.12 217.35 10.35 216.47 10.93C216 11.24 215.75 11.62 215.75 12.01C215.75 12.4 216.01 12.79 216.47 13.1C217.34 13.68 218.64 13.91 219.87 13.7C220.28 13.63 220.67 13.91 220.74 14.31C220.81 14.72 220.54 15.11 220.13 15.18C219.74 15.25 219.35 15.28 218.96 15.28Z" fill="#393CFF"/>
<path d="M225 15.38C224.97 15.38 224.95 15.38 224.92 15.38H224.87C222.98 15.32 221.57 13.86 221.57 12.06C221.57 10.22 223.07 8.72998 224.9 8.72998C226.73 8.72998 228.23 10.23 228.23 12.06C228.22 13.87 226.81 15.33 225.01 15.39C225.01 15.38 225.01 15.38 225 15.38ZM224.9 10.22C223.89 10.22 223.07 11.04 223.07 12.05C223.07 13.04 223.84 13.84 224.83 13.88C224.84 13.87 224.92 13.87 225.01 13.88C225.98 13.83 226.73 13.03 226.74 12.05C226.74 11.05 225.92 10.22 224.9 10.22Z" fill="#393CFF"/>
<path d="M224.999 22.7597C223.799 22.7597 222.599 22.4497 221.669 21.8197C220.789 21.2297 220.279 20.3897 220.279 19.4897C220.279 18.5997 220.779 17.7397 221.669 17.1497C223.539 15.9097 226.469 15.9097 228.329 17.1497C229.209 17.7397 229.719 18.5797 229.719 19.4797C229.719 20.3697 229.219 21.2297 228.329 21.8197C227.399 22.4397 226.199 22.7597 224.999 22.7597ZM222.499 18.4097C222.029 18.7197 221.779 19.1097 221.779 19.4997C221.779 19.8897 222.039 20.2697 222.499 20.5797C223.849 21.4897 226.139 21.4897 227.489 20.5797C227.959 20.2697 228.209 19.8797 228.209 19.4897C228.209 19.0997 227.949 18.7197 227.489 18.4097C226.149 17.4997 223.859 17.5097 222.499 18.4097Z" fill="#393CFF"/>
</svg>
