<svg width="24" height="24" viewBox="0 0 24 24" fill="none" xmlns="http://www.w3.org/2000/svg">
<path d="M9.16999 15.5804C8.97999 15.5804 8.78999 15.5104 8.63999 15.3604C8.34999 15.0704 8.34999 14.5904 8.63999 14.3004L14.3 8.64035C14.59 8.35035 15.07 8.35035 15.36 8.64035C15.65 8.93035 15.65 9.41035 15.36 9.70035L9.69998 15.3604C9.55998 15.5104 9.35999 15.5804 9.16999 15.5804Z" fill="#393CFF"/>
<path d="M14.83 15.5804C14.64 15.5804 14.45 15.5104 14.3 15.3604L8.63999 9.70035C8.34999 9.41035 8.34999 8.93035 8.63999 8.64035C8.92999 8.35035 9.40998 8.35035 9.69998 8.64035L15.36 14.3004C15.65 14.5904 15.65 15.0704 15.36 15.3604C15.21 15.5104 15.02 15.5804 14.83 15.5804Z" fill="#393CFF"/>
<path d="M15 22.75H9C3.57 22.75 1.25 20.43 1.25 15V9C1.25 3.57 3.57 1.25 9 1.25H15C20.43 1.25 22.75 3.57 22.75 9V15C22.75 20.43 20.43 22.75 15 22.75ZM9 2.75C4.39 2.75 2.75 4.39 2.75 9V15C2.75 19.61 4.39 21.25 9 21.25H15C19.61 21.25 21.25 19.61 21.25 15V9C21.25 4.39 19.61 2.75 15 2.75H9Z" fill="#393CFF"/>
</svg>
