<svg width="138" height="20" viewBox="0 0 138 20" fill="none" xmlns="http://www.w3.org/2000/svg">
<path d="M108.538 10.7359C108.378 10.8533 108.189 10.9119 108 10.9119C107.811 10.9119 107.622 10.8533 107.462 10.7359L99.8182 5.1302L98.0001 3.79694L98 16.6695C98.0001 17.1716 98.407 17.5786 98.9091 17.5786L117.091 17.5785C117.593 17.5785 118 17.1715 118 16.6695V3.79688L116.182 5.1302L108.538 10.7359Z" fill="#9AB3CA"/>
<path d="M108 8.87425L116.793 2.42584L99.207 2.42578L108 8.87425Z" fill="#9AB3CA"/>
<g clip-path="url(#clip0_331_593)">
<path fill-rule="evenodd" clip-rule="evenodd" d="M34.2389 13.709C34.022 14.323 33.1598 14.8309 32.4722 14.9794C32.0015 15.0794 31.3877 15.1584 29.3195 14.3014C26.9966 13.339 23.771 9.91087 23.771 7.62959C23.771 6.46824 24.4406 5.11592 25.6115 5.11592C26.1749 5.11592 26.2991 5.1269 26.4845 5.57163C26.7014 6.09559 27.2306 7.38651 27.2936 7.51885C27.5537 8.06171 27.029 8.3795 26.6483 8.85215C26.5268 8.99438 26.3891 9.14822 26.543 9.41289C26.696 9.67217 27.2252 10.5346 28.0028 11.227C29.0072 12.1218 29.8217 12.4075 30.1133 12.5291C30.3302 12.6191 30.5894 12.5981 30.7478 12.4289C30.9485 12.2119 31.1978 11.8519 31.4516 11.4972C31.6307 11.2433 31.8584 11.2116 32.0969 11.3017C32.258 11.3575 34.3055 12.3084 34.3919 12.4605C34.4558 12.5712 34.4558 13.095 34.2389 13.709ZM29.0018 1H28.9973C24.0356 1 20 5.03682 20 10C20 11.968 20.6345 13.7938 21.7136 15.2748L20.5922 18.619L24.0509 17.5138C25.4738 18.4555 27.1721 19 29.0018 19C33.9635 19 38 14.9632 38 10C38 5.03682 33.9635 1 29.0018 1Z" fill="#9AB3CA"/>
</g>
<path d="M17.258 3.04671C17.258 3.04671 18.8769 2.41546 18.742 3.9485C18.697 4.57976 18.2923 6.78913 17.9775 9.17888L16.8983 16.2579C16.8983 16.2579 16.8084 17.295 15.9989 17.4753C15.1895 17.6557 13.9753 16.8441 13.7505 16.6637C13.5706 16.5285 10.3778 14.4994 9.25358 13.5075C8.93879 13.2369 8.57904 12.6958 9.29854 12.0646L14.0203 7.55568C14.5599 7.01459 15.0995 5.75209 12.8511 7.28513L6.55546 11.5686C6.55546 11.5686 5.83596 12.0195 4.48692 11.6137L1.56393 10.7119C1.56393 10.7119 0.484671 10.0356 2.3284 9.35922C6.82529 7.24001 12.3565 5.07572 17.258 3.04671Z" fill="#9AB3CA"/>
<g clip-path="url(#clip1_331_593)">
<path fill-rule="evenodd" clip-rule="evenodd" d="M98 10C98 4.47715 93.5229 0 88 0C82.4771 0 78 4.47715 78 10C78 15.5229 82.4771 20 88 20C93.5229 20 98 15.5229 98 10ZM85.4881 13.272C87.2831 13.272 88.7382 11.8069 88.7382 9.9997C88.7382 8.19243 87.283 6.72743 85.4881 6.72743C83.6932 6.72743 82.2382 8.192 82.2382 9.9997C82.2382 11.8074 83.6931 13.272 85.4881 13.272ZM90.6785 13.08C91.576 13.08 92.3036 11.701 92.3036 9.9997C92.3036 8.29884 91.576 6.91934 90.6785 6.91934C89.7811 6.91934 89.0535 8.29884 89.0535 9.9997C89.0535 11.7005 89.7811 13.08 90.6785 13.08ZM93.1903 12.7595C93.5059 12.7595 93.7618 11.524 93.7618 9.9997C93.7618 8.47552 93.5061 7.23981 93.1904 7.23981C92.8747 7.23981 92.6188 8.47587 92.6188 9.9997C92.6188 11.5235 92.8747 12.7595 93.1903 12.7595Z" fill="#9AB3CA"/>
</g>
<path d="M77.2205 4.1692C76.4985 3.311 75.1656 2.96094 72.6201 2.96094H63.3797C60.7759 2.96094 59.4205 3.33358 58.7012 4.24726C58 5.1381 58 6.45068 58 8.26732V11.7298C58 15.2493 58.832 17.0362 63.3797 17.0362H72.6201C74.8276 17.0362 76.0508 16.7273 76.8422 15.9699C77.6537 15.1933 78 13.9252 78 11.7298V8.26732C78 6.35152 77.9457 5.0312 77.2205 4.1692ZM70.8401 10.4766L66.6441 12.6696C66.5503 12.7186 66.4477 12.7429 66.3452 12.7429C66.2292 12.7429 66.1135 12.7117 66.011 12.6496C65.8179 12.5327 65.7001 12.3235 65.7001 12.0978V7.72591C65.7001 7.50062 65.8176 7.29158 66.0103 7.17455C66.203 7.05752 66.4426 7.04952 66.6426 7.15339L70.8386 9.33223C71.0521 9.44307 71.1861 9.66345 71.1865 9.90391C71.1867 10.1446 71.0532 10.3653 70.8401 10.4766Z" fill="#9AB3CA"/>
<g clip-path="url(#clip2_331_593)">
<path d="M57.5468 3.70224C57.2326 3.8416 56.9096 3.95921 56.5795 4.05469C56.9703 3.61276 57.2682 3.09276 57.4501 2.52373C57.4909 2.39618 57.4486 2.25656 57.3438 2.17315C57.239 2.08966 57.0936 2.07966 56.9783 2.14798C56.2773 2.56373 55.521 2.8625 54.7281 3.03721C53.9293 2.25669 52.8444 1.8125 51.7229 1.8125C49.3554 1.8125 47.4294 3.7385 47.4294 6.10585C47.4294 6.29231 47.4412 6.47773 47.4645 6.66056C44.5268 6.40263 41.7956 4.95869 39.9201 2.65811C39.8533 2.57611 39.7503 2.53192 39.6449 2.54037C39.5394 2.54863 39.4447 2.60811 39.3914 2.69953C39.011 3.35224 38.8099 4.09876 38.8099 4.85831C38.8099 5.89282 39.1792 6.87437 39.8317 7.64134C39.6333 7.57263 39.4408 7.48676 39.257 7.38476C39.1584 7.32985 39.038 7.33069 38.94 7.38689C38.8419 7.44308 38.7805 7.54644 38.7779 7.6594C38.7774 7.67844 38.7774 7.69747 38.7774 7.71676C38.7774 9.26095 39.6085 10.6512 40.8792 11.409C40.77 11.398 40.6609 11.3822 40.5525 11.3615C40.4408 11.3402 40.3259 11.3793 40.2505 11.4646C40.175 11.5497 40.1501 11.6684 40.1849 11.7768C40.6552 13.2452 41.8661 14.3253 43.3299 14.6546C42.1158 15.415 40.7274 15.8133 39.2698 15.8133C38.9657 15.8133 38.6598 15.7955 38.3605 15.76C38.2118 15.7424 38.0696 15.8302 38.0189 15.9716C37.9683 16.1131 38.0219 16.2708 38.1485 16.3519C40.0209 17.5525 42.186 18.1871 44.4096 18.1871C48.7808 18.1871 51.5153 16.1258 53.0395 14.3966C54.9401 12.2404 56.0302 9.38637 56.0302 6.56644C56.0302 6.44863 56.0284 6.32966 56.0248 6.21108C56.7747 5.64611 57.4203 4.96237 57.9456 4.1765C58.0254 4.05714 58.0168 3.8994 57.9243 3.78953C57.832 3.6796 57.6781 3.64405 57.5468 3.70224Z" fill="#9AB3CA"/>
</g>
<g clip-path="url(#clip3_331_593)">
<path d="M135.986 0.62793H120.011C120.006 0.62793 120 0.62793 119.994 0.62793C119.245 0.62793 118.637 1.23043 118.628 1.9773V18.0223C118.637 18.7698 119.245 19.3729 119.994 19.3729C120 19.3729 120.006 19.3729 120.012 19.3729H135.984C135.989 19.3729 135.995 19.3729 136.002 19.3729C136.752 19.3729 137.361 18.7711 137.373 18.0236V18.0223V1.97855C137.361 1.23043 136.752 0.62793 136.001 0.62793C135.995 0.62793 135.989 0.62793 135.983 0.62793H135.986ZM124.187 16.6017H121.404V7.6573H124.187V16.6017ZM122.796 6.43355C121.905 6.43355 121.184 5.71168 121.184 4.82168C121.184 3.93168 121.906 3.2098 122.796 3.2098C123.686 3.2098 124.408 3.93105 124.408 4.82105C124.408 4.82168 124.408 4.8223 124.408 4.82355C124.408 5.71293 123.687 6.43418 122.797 6.43418C122.797 6.43418 122.796 6.43418 122.795 6.43418L122.796 6.43355ZM134.597 16.6017H131.822V12.2523C131.822 11.2148 131.8 9.88043 130.375 9.88043C128.928 9.88043 128.707 11.0092 128.707 12.1761V16.6023H125.932V7.65793H128.598V8.8773H128.634C129.152 8.00543 130.088 7.43043 131.159 7.43043C131.197 7.43043 131.234 7.43105 131.272 7.4323H131.266C134.079 7.4323 134.599 9.28355 134.599 11.6929V16.6023L134.597 16.6017Z" fill="#9AB3CA"/>
</g>
<defs>
<clipPath id="clip0_331_593">
<rect width="18" height="18" fill="white" transform="translate(20 1)"/>
</clipPath>
<clipPath id="clip1_331_593">
<rect width="20" height="20" fill="white" transform="translate(78)"/>
</clipPath>
<clipPath id="clip2_331_593">
<rect width="20" height="20" fill="white" transform="translate(38)"/>
</clipPath>
<clipPath id="clip3_331_593">
<rect width="20" height="20" fill="white" transform="translate(118)"/>
</clipPath>
</defs>
</svg>
