<svg width="200" height="24" viewBox="0 0 200 24" fill="none" xmlns="http://www.w3.org/2000/svg">
<path d="M8 23.3199C7.72 23.3199 7.42998 23.2499 7.16998 23.1099C6.59998 22.8099 6.25 22.2099 6.25 21.5699V20.15C3.23 19.84 1.25 17.6199 1.25 14.4399V6.43994C1.25 2.99994 3.56 0.689941 7 0.689941H17C20.44 0.689941 22.75 2.99994 22.75 6.43994V14.4399C22.75 17.8799 20.44 20.1899 17 20.1899H13.23L8.96997 23.03C8.67997 23.22 8.34 23.3199 8 23.3199ZM7 2.17993C4.42 2.17993 2.75 3.84993 2.75 6.42993V14.43C2.75 17.01 4.42 18.68 7 18.68C7.41 18.68 7.75 19.02 7.75 19.43V21.56C7.75 21.69 7.83 21.75 7.88 21.78C7.93 21.81 8.03001 21.84 8.14001 21.77L12.59 18.81C12.71 18.73 12.86 18.68 13.01 18.68H17.01C19.59 18.68 21.26 17.01 21.26 14.43V6.42993C21.26 3.84993 19.59 2.17993 17.01 2.17993H7Z" fill="#657D94"/>
<path d="M11.9998 12.1099C11.5898 12.1099 11.2498 11.7699 11.2498 11.3599V11.1499C11.2498 9.9899 12.0998 9.41989 12.4198 9.19989C12.7898 8.94989 12.9098 8.7799 12.9098 8.5199C12.9098 8.0199 12.4998 7.60986 11.9998 7.60986C11.4998 7.60986 11.0898 8.0199 11.0898 8.5199C11.0898 8.9299 10.7498 9.2699 10.3398 9.2699C9.92984 9.2699 9.58984 8.9299 9.58984 8.5199C9.58984 7.1899 10.6698 6.10986 11.9998 6.10986C13.3298 6.10986 14.4098 7.1899 14.4098 8.5199C14.4098 9.6599 13.5698 10.2299 13.2598 10.4399C12.8698 10.6999 12.7498 10.8699 12.7498 11.1499V11.3599C12.7498 11.7799 12.4098 12.1099 11.9998 12.1099Z" fill="#657D94"/>
<path d="M12 14.6001C11.58 14.6001 11.25 14.2601 11.25 13.8501C11.25 13.4401 11.59 13.1001 12 13.1001C12.41 13.1001 12.75 13.4401 12.75 13.8501C12.75 14.2601 12.42 14.6001 12 14.6001Z" fill="#657D94"/>
<path d="M58 18.25H51C50.59 18.25 50.25 17.91 50.25 17.5C50.25 17.09 50.59 16.75 51 16.75H58C58.41 16.75 58.75 17.09 58.75 17.5C58.75 17.91 58.41 18.25 58 18.25Z" fill="#657D94"/>
<path d="M41 18.25H38C37.59 18.25 37.25 17.91 37.25 17.5C37.25 17.09 37.59 16.75 38 16.75H41C41.41 16.75 41.75 17.09 41.75 17.5C41.75 17.91 41.41 18.25 41 18.25Z" fill="#657D94"/>
<path d="M58 7.25H55C54.59 7.25 54.25 6.91 54.25 6.5C54.25 6.09 54.59 5.75 55 5.75H58C58.41 5.75 58.75 6.09 58.75 6.5C58.75 6.91 58.41 7.25 58 7.25Z" fill="#657D94"/>
<path d="M45 7.25H38C37.59 7.25 37.25 6.91 37.25 6.5C37.25 6.09 37.59 5.75 38 5.75H45C45.41 5.75 45.75 6.09 45.75 6.5C45.75 6.91 45.41 7.25 45 7.25Z" fill="#657D94"/>
<path d="M49 21.25H43C41.28 21.25 40.25 20.22 40.25 18.5V16.5C40.25 14.78 41.28 13.75 43 13.75H49C50.72 13.75 51.75 14.78 51.75 16.5V18.5C51.75 20.22 50.72 21.25 49 21.25ZM43 15.25C42.11 15.25 41.75 15.61 41.75 16.5V18.5C41.75 19.39 42.11 19.75 43 19.75H49C49.89 19.75 50.25 19.39 50.25 18.5V16.5C50.25 15.61 49.89 15.25 49 15.25H43Z" fill="#657D94"/>
<path d="M53 10.25H47C45.28 10.25 44.25 9.22 44.25 7.5V5.5C44.25 3.78 45.28 2.75 47 2.75H53C54.72 2.75 55.75 3.78 55.75 5.5V7.5C55.75 9.22 54.72 10.25 53 10.25ZM47 4.25C46.11 4.25 45.75 4.61 45.75 5.5V7.5C45.75 8.39 46.11 8.75 47 8.75H53C53.89 8.75 54.25 8.39 54.25 7.5V5.5C54.25 4.61 53.89 4.25 53 4.25H47Z" fill="#657D94"/>
<path d="M83.9167 12.7707C83.7425 12.7707 83.5683 12.7066 83.4308 12.5691C83.165 12.3032 83.165 11.8632 83.4308 11.5974L90.9475 4.08072C91.2133 3.81489 91.6533 3.81489 91.9192 4.08072C92.185 4.34656 92.185 4.78656 91.9192 5.05239L84.4025 12.5691C84.265 12.7066 84.0908 12.7707 83.9167 12.7707Z" fill="#657D94"/>
<path d="M92.1666 8.921C91.7908 8.921 91.4791 8.60933 91.4791 8.2335V4.521H87.7666C87.3908 4.521 87.0791 4.20933 87.0791 3.8335C87.0791 3.45766 87.3908 3.146 87.7666 3.146H92.1666C92.5424 3.146 92.8541 3.45766 92.8541 3.8335V8.2335C92.8541 8.60933 92.5424 8.921 92.1666 8.921Z" fill="#657D94"/>
<path d="M85.7502 22.8543H80.2502C75.2727 22.8543 73.146 20.7277 73.146 15.7502V10.2502C73.146 5.27266 75.2727 3.146 80.2502 3.146H82.0835C82.4593 3.146 82.771 3.45766 82.771 3.8335C82.771 4.20933 82.4593 4.521 82.0835 4.521H80.2502C76.0243 4.521 74.521 6.02433 74.521 10.2502V15.7502C74.521 19.976 76.0243 21.4793 80.2502 21.4793H85.7502C89.976 21.4793 91.4793 19.976 91.4793 15.7502V13.9168C91.4793 13.541 91.791 13.2293 92.1668 13.2293C92.5427 13.2293 92.8543 13.541 92.8543 13.9168V15.7502C92.8543 20.7277 90.7277 22.8543 85.7502 22.8543Z" fill="#657D94"/>
<path d="M114 23.3199C113.72 23.3199 113.43 23.2499 113.17 23.1099C112.6 22.8099 112.25 22.2099 112.25 21.5699V20.15C109.23 19.84 107.25 17.6199 107.25 14.4399V6.43994C107.25 2.99994 109.56 0.689941 113 0.689941H123C126.44 0.689941 128.75 2.99994 128.75 6.43994V14.4399C128.75 17.8799 126.44 20.1899 123 20.1899H119.23L114.97 23.03C114.68 23.22 114.34 23.3199 114 23.3199ZM113 2.17993C110.42 2.17993 108.75 3.84993 108.75 6.42993V14.43C108.75 17.01 110.42 18.68 113 18.68C113.41 18.68 113.75 19.02 113.75 19.43V21.56C113.75 21.69 113.83 21.75 113.88 21.78C113.93 21.81 114.03 21.84 114.14 21.77L118.59 18.81C118.71 18.73 118.86 18.68 119.01 18.68H123.01C125.59 18.68 127.26 17.01 127.26 14.43V6.42993C127.26 3.84993 125.59 2.17993 123.01 2.17993H113Z" fill="#393CFF"/>
<path d="M118 12.1099C117.59 12.1099 117.25 11.7699 117.25 11.3599V11.1499C117.25 9.9899 118.1 9.41989 118.42 9.19989C118.79 8.94989 118.91 8.7799 118.91 8.5199C118.91 8.0199 118.5 7.60986 118 7.60986C117.5 7.60986 117.09 8.0199 117.09 8.5199C117.09 8.9299 116.75 9.2699 116.34 9.2699C115.93 9.2699 115.59 8.9299 115.59 8.5199C115.59 7.1899 116.67 6.10986 118 6.10986C119.33 6.10986 120.41 7.1899 120.41 8.5199C120.41 9.6599 119.57 10.2299 119.26 10.4399C118.87 10.6999 118.75 10.8699 118.75 11.1499V11.3599C118.75 11.7799 118.41 12.1099 118 12.1099Z" fill="#393CFF"/>
<path d="M118 14.6001C117.58 14.6001 117.25 14.2601 117.25 13.8501C117.25 13.4401 117.59 13.1001 118 13.1001C118.41 13.1001 118.75 13.4401 118.75 13.8501C118.75 14.2601 118.42 14.6001 118 14.6001Z" fill="#393CFF"/>
<path d="M164 18.25H157C156.59 18.25 156.25 17.91 156.25 17.5C156.25 17.09 156.59 16.75 157 16.75H164C164.41 16.75 164.75 17.09 164.75 17.5C164.75 17.91 164.41 18.25 164 18.25Z" fill="#393CFF"/>
<path d="M147 18.25H144C143.59 18.25 143.25 17.91 143.25 17.5C143.25 17.09 143.59 16.75 144 16.75H147C147.41 16.75 147.75 17.09 147.75 17.5C147.75 17.91 147.41 18.25 147 18.25Z" fill="#393CFF"/>
<path d="M164 7.25H161C160.59 7.25 160.25 6.91 160.25 6.5C160.25 6.09 160.59 5.75 161 5.75H164C164.41 5.75 164.75 6.09 164.75 6.5C164.75 6.91 164.41 7.25 164 7.25Z" fill="#393CFF"/>
<path d="M151 7.25H144C143.59 7.25 143.25 6.91 143.25 6.5C143.25 6.09 143.59 5.75 144 5.75H151C151.41 5.75 151.75 6.09 151.75 6.5C151.75 6.91 151.41 7.25 151 7.25Z" fill="#393CFF"/>
<path d="M155 21.25H149C147.28 21.25 146.25 20.22 146.25 18.5V16.5C146.25 14.78 147.28 13.75 149 13.75H155C156.72 13.75 157.75 14.78 157.75 16.5V18.5C157.75 20.22 156.72 21.25 155 21.25ZM149 15.25C148.11 15.25 147.75 15.61 147.75 16.5V18.5C147.75 19.39 148.11 19.75 149 19.75H155C155.89 19.75 156.25 19.39 156.25 18.5V16.5C156.25 15.61 155.89 15.25 155 15.25H149Z" fill="#393CFF"/>
<path d="M159 10.25H153C151.28 10.25 150.25 9.22 150.25 7.5V5.5C150.25 3.78 151.28 2.75 153 2.75H159C160.72 2.75 161.75 3.78 161.75 5.5V7.5C161.75 9.22 160.72 10.25 159 10.25ZM153 4.25C152.11 4.25 151.75 4.61 151.75 5.5V7.5C151.75 8.39 152.11 8.75 153 8.75H159C159.89 8.75 160.25 8.39 160.25 7.5V5.5C160.25 4.61 159.89 4.25 159 4.25H153Z" fill="#393CFF"/>
<path d="M189.917 12.7707C189.742 12.7707 189.568 12.7066 189.431 12.5691C189.165 12.3032 189.165 11.8632 189.431 11.5974L196.947 4.08072C197.213 3.81489 197.653 3.81489 197.919 4.08072C198.185 4.34656 198.185 4.78656 197.919 5.05239L190.402 12.5691C190.265 12.7066 190.091 12.7707 189.917 12.7707Z" fill="#393CFF"/>
<path d="M198.167 8.921C197.791 8.921 197.479 8.60933 197.479 8.2335V4.521H193.767C193.391 4.521 193.079 4.20933 193.079 3.8335C193.079 3.45766 193.391 3.146 193.767 3.146H198.167C198.542 3.146 198.854 3.45766 198.854 3.8335V8.2335C198.854 8.60933 198.542 8.921 198.167 8.921Z" fill="#393CFF"/>
<path d="M191.75 22.8543H186.25C181.273 22.8543 179.146 20.7277 179.146 15.7502V10.2502C179.146 5.27266 181.273 3.146 186.25 3.146H188.083C188.459 3.146 188.771 3.45766 188.771 3.8335C188.771 4.20933 188.459 4.521 188.083 4.521H186.25C182.024 4.521 180.521 6.02433 180.521 10.2502V15.7502C180.521 19.976 182.024 21.4793 186.25 21.4793H191.75C195.976 21.4793 197.479 19.976 197.479 15.7502V13.9168C197.479 13.541 197.791 13.2293 198.167 13.2293C198.543 13.2293 198.854 13.541 198.854 13.9168V15.7502C198.854 20.7277 196.728 22.8543 191.75 22.8543Z" fill="#393CFF"/>
</svg>
