<svg width="16" height="16" viewBox="0 0 16 16" fill="none" xmlns="http://www.w3.org/2000/svg">
<path fill-rule="evenodd" clip-rule="evenodd" d="M2.28955 11.8894C2.08126 12.0978 2.08126 12.4355 2.28955 12.6438C2.49782 12.852 2.83551 12.852 3.04379 12.6438L7.31045 8.37707C7.51874 8.1688 7.51874 7.83111 7.31045 7.62283L3.04379 3.35617C2.83551 3.14788 2.49782 3.14788 2.28955 3.35617C2.08126 3.56444 2.08126 3.90213 2.28955 4.11041L6.17908 7.99995L2.28955 11.8894ZM8.68955 11.8894C8.48126 12.0978 8.48126 12.4355 8.68955 12.6438C8.89782 12.852 9.23551 12.852 9.44379 12.6438L13.7105 8.37707C13.9187 8.1688 13.9187 7.83111 13.7105 7.62283L9.44379 3.35617C9.23551 3.14788 8.89782 3.14788 8.68955 3.35617C8.48126 3.56444 8.48126 3.90213 8.68955 4.11041L12.5791 7.99995L8.68955 11.8894Z" fill="#8EE422"/>
</svg>
