<svg width="54" height="18" viewBox="0 0 54 18" fill="none" xmlns="http://www.w3.org/2000/svg">
<path d="M6.75 13.3125C6.675 13.3125 6.6075 13.2975 6.5325 13.2675C6.3225 13.185 6.1875 12.975 6.1875 12.75V8.25C6.1875 7.9425 6.4425 7.6875 6.75 7.6875C7.0575 7.6875 7.3125 7.9425 7.3125 8.25V11.3925L7.8525 10.8525C8.07 10.635 8.43 10.635 8.6475 10.8525C8.865 11.07 8.865 11.43 8.6475 11.6475L7.1475 13.1475C7.0425 13.2525 6.8925 13.3125 6.75 13.3125Z" fill="#657D94"/>
<path d="M6.75008 13.3106C6.60758 13.3106 6.46508 13.2581 6.35258 13.1456L4.85258 11.6456C4.63508 11.4281 4.63508 11.0681 4.85258 10.8506C5.07008 10.6331 5.43008 10.6331 5.64758 10.8506L7.14758 12.3506C7.36508 12.5681 7.36508 12.9281 7.14758 13.1456C7.03508 13.2581 6.89258 13.3106 6.75008 13.3106Z" fill="#657D94"/>
<path d="M11.25 17.0625H6.75C2.6775 17.0625 0.9375 15.3225 0.9375 11.25V6.75C0.9375 2.6775 2.6775 0.9375 6.75 0.9375H10.5C10.8075 0.9375 11.0625 1.1925 11.0625 1.5C11.0625 1.8075 10.8075 2.0625 10.5 2.0625H6.75C3.2925 2.0625 2.0625 3.2925 2.0625 6.75V11.25C2.0625 14.7075 3.2925 15.9375 6.75 15.9375H11.25C14.7075 15.9375 15.9375 14.7075 15.9375 11.25V7.5C15.9375 7.1925 16.1925 6.9375 16.5 6.9375C16.8075 6.9375 17.0625 7.1925 17.0625 7.5V11.25C17.0625 15.3225 15.3225 17.0625 11.25 17.0625Z" fill="#657D94"/>
<path d="M16.5 8.06139H13.5C10.935 8.06139 9.9375 7.06389 9.9375 4.49889V1.49889C9.9375 1.27389 10.0725 1.06389 10.2825 0.981393C10.4925 0.891393 10.7325 0.943893 10.8975 1.10139L16.8975 7.10139C17.055 7.25889 17.1075 7.50639 17.0175 7.71639C16.9275 7.92639 16.725 8.06139 16.5 8.06139ZM11.0625 2.85639V4.49889C11.0625 6.43389 11.565 6.93639 13.5 6.93639H15.1425L11.0625 2.85639Z" fill="#657D94"/>
<path d="M42.75 13.3125C42.675 13.3125 42.6075 13.2975 42.5325 13.2675C42.3225 13.185 42.1875 12.975 42.1875 12.75V8.25C42.1875 7.9425 42.4425 7.6875 42.75 7.6875C43.0575 7.6875 43.3125 7.9425 43.3125 8.25V11.3925L43.8525 10.8525C44.07 10.635 44.43 10.635 44.6475 10.8525C44.865 11.07 44.865 11.43 44.6475 11.6475L43.1475 13.1475C43.0425 13.2525 42.8925 13.3125 42.75 13.3125Z" fill="white"/>
<path d="M42.7501 13.3106C42.6076 13.3106 42.4651 13.2581 42.3526 13.1456L40.8526 11.6456C40.6351 11.4281 40.6351 11.0681 40.8526 10.8506C41.0701 10.6331 41.4301 10.6331 41.6476 10.8506L43.1476 12.3506C43.3651 12.5681 43.3651 12.9281 43.1476 13.1456C43.0351 13.2581 42.8926 13.3106 42.7501 13.3106Z" fill="white"/>
<path d="M47.25 17.0625H42.75C38.6775 17.0625 36.9375 15.3225 36.9375 11.25V6.75C36.9375 2.6775 38.6775 0.9375 42.75 0.9375H46.5C46.8075 0.9375 47.0625 1.1925 47.0625 1.5C47.0625 1.8075 46.8075 2.0625 46.5 2.0625H42.75C39.2925 2.0625 38.0625 3.2925 38.0625 6.75V11.25C38.0625 14.7075 39.2925 15.9375 42.75 15.9375H47.25C50.7075 15.9375 51.9375 14.7075 51.9375 11.25V7.5C51.9375 7.1925 52.1925 6.9375 52.5 6.9375C52.8075 6.9375 53.0625 7.1925 53.0625 7.5V11.25C53.0625 15.3225 51.3225 17.0625 47.25 17.0625Z" fill="white"/>
<path d="M52.5 8.06139H49.5C46.935 8.06139 45.9375 7.06389 45.9375 4.49889V1.49889C45.9375 1.27389 46.0725 1.06389 46.2825 0.981393C46.4925 0.891393 46.7325 0.943893 46.8975 1.10139L52.8975 7.10139C53.055 7.25889 53.1075 7.50639 53.0175 7.71639C52.9275 7.92639 52.725 8.06139 52.5 8.06139ZM47.0625 2.85639V4.49889C47.0625 6.43389 47.565 6.93639 49.5 6.93639H51.1425L47.0625 2.85639Z" fill="white"/>
<path d="M24.75 13.3125C24.675 13.3125 24.6075 13.2975 24.5325 13.2675C24.3225 13.185 24.1875 12.975 24.1875 12.75V8.25C24.1875 7.9425 24.4425 7.6875 24.75 7.6875C25.0575 7.6875 25.3125 7.9425 25.3125 8.25V11.3925L25.8525 10.8525C26.07 10.635 26.43 10.635 26.6475 10.8525C26.865 11.07 26.865 11.43 26.6475 11.6475L25.1475 13.1475C25.0425 13.2525 24.8925 13.3125 24.75 13.3125Z" fill="#393CFF"/>
<path d="M24.7501 13.3106C24.6076 13.3106 24.4651 13.2581 24.3526 13.1456L22.8526 11.6456C22.6351 11.4281 22.6351 11.0681 22.8526 10.8506C23.0701 10.6331 23.4301 10.6331 23.6476 10.8506L25.1476 12.3506C25.3651 12.5681 25.3651 12.9281 25.1476 13.1456C25.0351 13.2581 24.8926 13.3106 24.7501 13.3106Z" fill="#393CFF"/>
<path d="M29.25 17.0625H24.75C20.6775 17.0625 18.9375 15.3225 18.9375 11.25V6.75C18.9375 2.6775 20.6775 0.9375 24.75 0.9375H28.5C28.8075 0.9375 29.0625 1.1925 29.0625 1.5C29.0625 1.8075 28.8075 2.0625 28.5 2.0625H24.75C21.2925 2.0625 20.0625 3.2925 20.0625 6.75V11.25C20.0625 14.7075 21.2925 15.9375 24.75 15.9375H29.25C32.7075 15.9375 33.9375 14.7075 33.9375 11.25V7.5C33.9375 7.1925 34.1925 6.9375 34.5 6.9375C34.8075 6.9375 35.0625 7.1925 35.0625 7.5V11.25C35.0625 15.3225 33.3225 17.0625 29.25 17.0625Z" fill="#393CFF"/>
<path d="M34.5 8.06139H31.5C28.935 8.06139 27.9375 7.06389 27.9375 4.49889V1.49889C27.9375 1.27389 28.0725 1.06389 28.2825 0.981393C28.4925 0.891393 28.7325 0.943893 28.8975 1.10139L34.8975 7.10139C35.055 7.25889 35.1075 7.50639 35.0175 7.71639C34.9275 7.92639 34.725 8.06139 34.5 8.06139ZM29.0625 2.85639V4.49889C29.0625 6.43389 29.565 6.93639 31.5 6.93639H33.1425L29.0625 2.85639Z" fill="#393CFF"/>
</svg>
