<svg width="542" height="24" viewBox="0 0 542 24" fill="none" xmlns="http://www.w3.org/2000/svg">
<path d="M318 22.75H298C297.59 22.75 297.25 22.41 297.25 22C297.25 21.59 297.59 21.25 298 21.25H318C318.41 21.25 318.75 21.59 318.75 22C318.75 22.41 318.41 22.75 318 22.75Z" fill="white"/>
<path d="M317 22.75H299C298.59 22.75 298.25 22.41 298.25 22V6C298.25 2.98 299.98 1.25 303 1.25H313C316.02 1.25 317.75 2.98 317.75 6V22C317.75 22.41 317.41 22.75 317 22.75ZM299.75 21.25H316.25V6C316.25 3.78 315.22 2.75 313 2.75H303C300.78 2.75 299.75 3.78 299.75 6V21.25Z" fill="white"/>
<path d="M306 17.25H303C302.59 17.25 302.25 16.91 302.25 16.5C302.25 16.09 302.59 15.75 303 15.75H306C306.41 15.75 306.75 16.09 306.75 16.5C306.75 16.91 306.41 17.25 306 17.25Z" fill="white"/>
<path d="M313 17.25H310C309.59 17.25 309.25 16.91 309.25 16.5C309.25 16.09 309.59 15.75 310 15.75H313C313.41 15.75 313.75 16.09 313.75 16.5C313.75 16.91 313.41 17.25 313 17.25Z" fill="white"/>
<path d="M306 12.75H303C302.59 12.75 302.25 12.41 302.25 12C302.25 11.59 302.59 11.25 303 11.25H306C306.41 11.25 306.75 11.59 306.75 12C306.75 12.41 306.41 12.75 306 12.75Z" fill="white"/>
<path d="M313 12.75H310C309.59 12.75 309.25 12.41 309.25 12C309.25 11.59 309.59 11.25 310 11.25H313C313.41 11.25 313.75 11.59 313.75 12C313.75 12.41 313.41 12.75 313 12.75Z" fill="white"/>
<path d="M306 8.25H303C302.59 8.25 302.25 7.91 302.25 7.5C302.25 7.09 302.59 6.75 303 6.75H306C306.41 6.75 306.75 7.09 306.75 7.5C306.75 7.91 306.41 8.25 306 8.25Z" fill="white"/>
<path d="M313 8.25H310C309.59 8.25 309.25 7.91 309.25 7.5C309.25 7.09 309.59 6.75 310 6.75H313C313.41 6.75 313.75 7.09 313.75 7.5C313.75 7.91 313.41 8.25 313 8.25Z" fill="white"/>
<path d="M235.4 17.42H232.89C231.25 17.42 229.92 16.04 229.92 14.34C229.92 13.93 230.26 13.59 230.67 13.59C231.08 13.59 231.42 13.93 231.42 14.34C231.42 15.21 232.08 15.92 232.89 15.92H235.4C236.05 15.92 236.59 15.34 236.59 14.64C236.59 13.77 236.28 13.6 235.77 13.42L231.74 12C230.96 11.73 229.91 11.15 229.91 9.35996C229.91 7.81996 231.12 6.57996 232.6 6.57996H235.11C236.75 6.57996 238.08 7.95996 238.08 9.65996C238.08 10.07 237.74 10.41 237.33 10.41C236.92 10.41 236.58 10.07 236.58 9.65996C236.58 8.78996 235.92 8.07996 235.11 8.07996H232.6C231.95 8.07996 231.41 8.65996 231.41 9.35996C231.41 10.23 231.72 10.4 232.23 10.58L236.26 12C237.04 12.27 238.09 12.85 238.09 14.64C238.08 16.17 236.88 17.42 235.4 17.42Z" fill="#657D94"/>
<path d="M234 18.75C233.59 18.75 233.25 18.41 233.25 18V6C233.25 5.59 233.59 5.25 234 5.25C234.41 5.25 234.75 5.59 234.75 6V18C234.75 18.41 234.41 18.75 234 18.75Z" fill="#657D94"/>
<path d="M237 22.75H231C225.57 22.75 223.25 20.43 223.25 15V9C223.25 3.57 225.57 1.25 231 1.25H237C242.43 1.25 244.75 3.57 244.75 9V15C244.75 20.43 242.43 22.75 237 22.75ZM231 2.75C226.39 2.75 224.75 4.39 224.75 9V15C224.75 19.61 226.39 21.25 231 21.25H237C241.61 21.25 243.25 19.61 243.25 15V9C243.25 4.39 241.61 2.75 237 2.75H231Z" fill="#657D94"/>
<path d="M157.16 11.62C157.13 11.62 157.11 11.62 157.08 11.62C157.03 11.61 156.96 11.61 156.9 11.62C154 11.53 151.81 9.25 151.81 6.44C151.81 3.58 154.14 1.25 157 1.25C159.86 1.25 162.19 3.58 162.19 6.44C162.18 9.25 159.98 11.53 157.19 11.62C157.18 11.62 157.17 11.62 157.16 11.62ZM157 2.75C154.97 2.75 153.31 4.41 153.31 6.44C153.31 8.44 154.87 10.05 156.86 10.12C156.92 10.11 157.05 10.11 157.18 10.12C159.14 10.03 160.68 8.42 160.69 6.44C160.69 4.41 159.03 2.75 157 2.75Z" fill="#657D94"/>
<path d="M164.54 11.75C164.51 11.75 164.48 11.75 164.45 11.74C164.04 11.78 163.62 11.49 163.58 11.08C163.54 10.67 163.79 10.3 164.2 10.25C164.32 10.24 164.45 10.24 164.56 10.24C166.02 10.16 167.16 8.96 167.16 7.49C167.16 5.97 165.93 4.74 164.41 4.74C164 4.75 163.66 4.41 163.66 4C163.66 3.59 164 3.25 164.41 3.25C166.75 3.25 168.66 5.16 168.66 7.5C168.66 9.8 166.86 11.66 164.57 11.75C164.56 11.75 164.55 11.75 164.54 11.75Z" fill="#657D94"/>
<path d="M157.17 22.55C155.21 22.55 153.24 22.05 151.75 21.05C150.36 20.13 149.6 18.87 149.6 17.5C149.6 16.13 150.36 14.86 151.75 13.93C154.75 11.94 159.61 11.94 162.59 13.93C163.97 14.85 164.74 16.11 164.74 17.48C164.74 18.85 163.98 20.12 162.59 21.05C161.09 22.05 159.13 22.55 157.17 22.55ZM152.58 15.19C151.62 15.83 151.1 16.65 151.1 17.51C151.1 18.36 151.63 19.18 152.58 19.81C155.07 21.48 159.27 21.48 161.76 19.81C162.72 19.17 163.24 18.35 163.24 17.49C163.24 16.64 162.71 15.82 161.76 15.19C159.27 13.53 155.07 13.53 152.58 15.19Z" fill="#657D94"/>
<path d="M166.339 20.75C165.989 20.75 165.679 20.51 165.609 20.15C165.529 19.74 165.789 19.35 166.189 19.26C166.819 19.13 167.399 18.88 167.849 18.53C168.419 18.1 168.729 17.56 168.729 16.99C168.729 16.42 168.419 15.88 167.859 15.46C167.419 15.12 166.869 14.88 166.219 14.73C165.819 14.64 165.559 14.24 165.649 13.83C165.739 13.43 166.139 13.17 166.549 13.26C167.409 13.45 168.159 13.79 168.769 14.26C169.699 14.96 170.229 15.95 170.229 16.99C170.229 18.03 169.689 19.02 168.759 19.73C168.139 20.21 167.359 20.56 166.499 20.73C166.439 20.75 166.389 20.75 166.339 20.75Z" fill="#657D94"/>
<path d="M86.0002 22.75C85.3302 22.75 84.6502 22.58 84.0502 22.23L78.1102 18.8C76.9102 18.1 76.1602 16.81 76.1602 15.42V8.57999C76.1602 7.18999 76.9102 5.89999 78.1102 5.19999L84.0502 1.77C85.2502 1.07 86.7402 1.07 87.9502 1.77L93.8902 5.19999C95.0902 5.89999 95.8402 7.18999 95.8402 8.57999V15.42C95.8402 16.81 95.0902 18.1 93.8902 18.8L87.9502 22.23C87.3502 22.58 86.6702 22.75 86.0002 22.75ZM86.0002 2.74998C85.5902 2.74998 85.1702 2.85998 84.8002 3.06998L78.8602 6.49998C78.1202 6.92998 77.6602 7.71999 77.6602 8.57999V15.42C77.6602 16.27 78.1202 17.07 78.8602 17.5L84.8002 20.93C85.5402 21.36 86.4602 21.36 87.2002 20.93L93.1402 17.5C93.8802 17.07 94.3402 16.28 94.3402 15.42V8.57999C94.3402 7.72999 93.8802 6.92998 93.1402 6.49998L87.2002 3.06998C86.8302 2.85998 86.4102 2.74998 86.0002 2.74998Z" fill="#657D94"/>
<path d="M85.9999 11.7501C84.2999 11.7501 82.9199 10.37 82.9199 8.67004C82.9199 6.97004 84.2999 5.59009 85.9999 5.59009C87.6999 5.59009 89.0799 6.97004 89.0799 8.67004C89.0799 10.37 87.6999 11.7501 85.9999 11.7501ZM85.9999 7.09009C85.1299 7.09009 84.4199 7.80004 84.4199 8.67004C84.4199 9.54004 85.1299 10.2501 85.9999 10.2501C86.8699 10.2501 87.5799 9.54004 87.5799 8.67004C87.5799 7.80004 86.8699 7.09009 85.9999 7.09009Z" fill="#657D94"/>
<path d="M90 17.4101C89.59 17.4101 89.25 17.0701 89.25 16.6601C89.25 15.2801 87.79 14.1501 86 14.1501C84.21 14.1501 82.75 15.2801 82.75 16.6601C82.75 17.0701 82.41 17.4101 82 17.4101C81.59 17.4101 81.25 17.0701 81.25 16.6601C81.25 14.4501 83.38 12.6501 86 12.6501C88.62 12.6501 90.75 14.4501 90.75 16.6601C90.75 17.0701 90.41 17.4101 90 17.4101Z" fill="#657D94"/>
<path d="M22 22.75H2C1.59 22.75 1.25 22.41 1.25 22C1.25 21.59 1.59 21.25 2 21.25H22C22.41 21.25 22.75 21.59 22.75 22C22.75 22.41 22.41 22.75 22 22.75Z" fill="#657D94"/>
<path d="M21 22.75H3C2.59 22.75 2.25 22.41 2.25 22V6C2.25 2.98 3.98 1.25 7 1.25H17C20.02 1.25 21.75 2.98 21.75 6V22C21.75 22.41 21.41 22.75 21 22.75ZM3.75 21.25H20.25V6C20.25 3.78 19.22 2.75 17 2.75H7C4.78 2.75 3.75 3.78 3.75 6V21.25Z" fill="#657D94"/>
<path d="M10 17.25H7C6.59 17.25 6.25 16.91 6.25 16.5C6.25 16.09 6.59 15.75 7 15.75H10C10.41 15.75 10.75 16.09 10.75 16.5C10.75 16.91 10.41 17.25 10 17.25Z" fill="#657D94"/>
<path d="M17 17.25H14C13.59 17.25 13.25 16.91 13.25 16.5C13.25 16.09 13.59 15.75 14 15.75H17C17.41 15.75 17.75 16.09 17.75 16.5C17.75 16.91 17.41 17.25 17 17.25Z" fill="#657D94"/>
<path d="M10 12.75H7C6.59 12.75 6.25 12.41 6.25 12C6.25 11.59 6.59 11.25 7 11.25H10C10.41 11.25 10.75 11.59 10.75 12C10.75 12.41 10.41 12.75 10 12.75Z" fill="#657D94"/>
<path d="M17 12.75H14C13.59 12.75 13.25 12.41 13.25 12C13.25 11.59 13.59 11.25 14 11.25H17C17.41 11.25 17.75 11.59 17.75 12C17.75 12.41 17.41 12.75 17 12.75Z" fill="#657D94"/>
<path d="M10 8.25H7C6.59 8.25 6.25 7.91 6.25 7.5C6.25 7.09 6.59 6.75 7 6.75H10C10.41 6.75 10.75 7.09 10.75 7.5C10.75 7.91 10.41 8.25 10 8.25Z" fill="#657D94"/>
<path d="M17 8.25H14C13.59 8.25 13.25 7.91 13.25 7.5C13.25 7.09 13.59 6.75 14 6.75H17C17.41 6.75 17.75 7.09 17.75 7.5C17.75 7.91 17.41 8.25 17 8.25Z" fill="#657D94"/>
<path d="M382 22.75C381.33 22.75 380.65 22.58 380.05 22.23L374.11 18.8C372.91 18.1 372.16 16.81 372.16 15.42V8.57999C372.16 7.18999 372.91 5.89999 374.11 5.19999L380.05 1.77C381.25 1.07 382.74 1.07 383.95 1.77L389.89 5.19999C391.09 5.89999 391.84 7.18999 391.84 8.57999V15.42C391.84 16.81 391.09 18.1 389.89 18.8L383.95 22.23C383.35 22.58 382.67 22.75 382 22.75ZM382 2.74998C381.59 2.74998 381.17 2.85998 380.8 3.06998L374.86 6.49998C374.12 6.92998 373.66 7.71999 373.66 8.57999V15.42C373.66 16.27 374.12 17.07 374.86 17.5L380.8 20.93C381.54 21.36 382.46 21.36 383.2 20.93L389.14 17.5C389.88 17.07 390.34 16.28 390.34 15.42V8.57999C390.34 7.72999 389.88 6.92998 389.14 6.49998L383.2 3.06998C382.83 2.85998 382.41 2.74998 382 2.74998Z" fill="white"/>
<path d="M382 11.7501C380.3 11.7501 378.92 10.37 378.92 8.67004C378.92 6.97004 380.3 5.59009 382 5.59009C383.7 5.59009 385.08 6.97004 385.08 8.67004C385.08 10.37 383.7 11.7501 382 11.7501ZM382 7.09009C381.13 7.09009 380.42 7.80004 380.42 8.67004C380.42 9.54004 381.13 10.2501 382 10.2501C382.87 10.2501 383.58 9.54004 383.58 8.67004C383.58 7.80004 382.87 7.09009 382 7.09009Z" fill="white"/>
<path d="M386 17.4101C385.59 17.4101 385.25 17.0701 385.25 16.6601C385.25 15.2801 383.79 14.1501 382 14.1501C380.21 14.1501 378.75 15.2801 378.75 16.6601C378.75 17.0701 378.41 17.4101 378 17.4101C377.59 17.4101 377.25 17.0701 377.25 16.6601C377.25 14.4501 379.38 12.6501 382 12.6501C384.62 12.6501 386.75 14.4501 386.75 16.6601C386.75 17.0701 386.41 17.4101 386 17.4101Z" fill="white"/>
<path d="M453.16 11.62C453.13 11.62 453.11 11.62 453.08 11.62C453.03 11.61 452.96 11.61 452.9 11.62C450 11.53 447.81 9.25 447.81 6.44C447.81 3.58 450.14 1.25 453 1.25C455.86 1.25 458.19 3.58 458.19 6.44C458.18 9.25 455.98 11.53 453.19 11.62C453.18 11.62 453.17 11.62 453.16 11.62ZM453 2.75C450.97 2.75 449.31 4.41 449.31 6.44C449.31 8.44 450.87 10.05 452.86 10.12C452.92 10.11 453.05 10.11 453.18 10.12C455.14 10.03 456.68 8.42 456.69 6.44C456.69 4.41 455.03 2.75 453 2.75Z" fill="white"/>
<path d="M460.54 11.75C460.51 11.75 460.48 11.75 460.45 11.74C460.04 11.78 459.62 11.49 459.58 11.08C459.54 10.67 459.79 10.3 460.2 10.25C460.32 10.24 460.45 10.24 460.56 10.24C462.02 10.16 463.16 8.96 463.16 7.49C463.16 5.97 461.93 4.74 460.41 4.74C460 4.75 459.66 4.41 459.66 4C459.66 3.59 460 3.25 460.41 3.25C462.75 3.25 464.66 5.16 464.66 7.5C464.66 9.8 462.86 11.66 460.57 11.75C460.56 11.75 460.55 11.75 460.54 11.75Z" fill="white"/>
<path d="M453.17 22.55C451.21 22.55 449.24 22.05 447.75 21.05C446.36 20.13 445.6 18.87 445.6 17.5C445.6 16.13 446.36 14.86 447.75 13.93C450.75 11.94 455.61 11.94 458.59 13.93C459.97 14.85 460.74 16.11 460.74 17.48C460.74 18.85 459.98 20.12 458.59 21.05C457.09 22.05 455.13 22.55 453.17 22.55ZM448.58 15.19C447.62 15.83 447.1 16.65 447.1 17.51C447.1 18.36 447.63 19.18 448.58 19.81C451.07 21.48 455.27 21.48 457.76 19.81C458.72 19.17 459.24 18.35 459.24 17.49C459.24 16.64 458.71 15.82 457.76 15.19C455.27 13.53 451.07 13.53 448.58 15.19Z" fill="white"/>
<path d="M462.339 20.75C461.989 20.75 461.679 20.51 461.609 20.15C461.529 19.74 461.789 19.35 462.189 19.26C462.819 19.13 463.399 18.88 463.849 18.53C464.419 18.1 464.729 17.56 464.729 16.99C464.729 16.42 464.419 15.88 463.859 15.46C463.419 15.12 462.869 14.88 462.219 14.73C461.819 14.64 461.559 14.24 461.649 13.83C461.739 13.43 462.139 13.17 462.549 13.26C463.409 13.45 464.159 13.79 464.769 14.26C465.699 14.96 466.229 15.95 466.229 16.99C466.229 18.03 465.689 19.02 464.759 19.73C464.139 20.21 463.359 20.56 462.499 20.73C462.439 20.75 462.389 20.75 462.339 20.75Z" fill="white"/>
<path d="M531.4 17.42H528.89C527.25 17.42 525.92 16.04 525.92 14.34C525.92 13.93 526.26 13.59 526.67 13.59C527.08 13.59 527.42 13.93 527.42 14.34C527.42 15.21 528.08 15.92 528.89 15.92H531.4C532.05 15.92 532.59 15.34 532.59 14.64C532.59 13.77 532.28 13.6 531.77 13.42L527.74 12C526.96 11.73 525.91 11.15 525.91 9.35996C525.91 7.81996 527.12 6.57996 528.6 6.57996H531.11C532.75 6.57996 534.08 7.95996 534.08 9.65996C534.08 10.07 533.74 10.41 533.33 10.41C532.92 10.41 532.58 10.07 532.58 9.65996C532.58 8.78996 531.92 8.07996 531.11 8.07996H528.6C527.95 8.07996 527.41 8.65996 527.41 9.35996C527.41 10.23 527.72 10.4 528.23 10.58L532.26 12C533.04 12.27 534.09 12.85 534.09 14.64C534.08 16.17 532.88 17.42 531.4 17.42Z" fill="white"/>
<path d="M530 18.75C529.59 18.75 529.25 18.41 529.25 18V6C529.25 5.59 529.59 5.25 530 5.25C530.41 5.25 530.75 5.59 530.75 6V18C530.75 18.41 530.41 18.75 530 18.75Z" fill="white"/>
<path d="M533 22.75H527C521.57 22.75 519.25 20.43 519.25 15V9C519.25 3.57 521.57 1.25 527 1.25H533C538.43 1.25 540.75 3.57 540.75 9V15C540.75 20.43 538.43 22.75 533 22.75ZM527 2.75C522.39 2.75 520.75 4.39 520.75 9V15C520.75 19.61 522.39 21.25 527 21.25H533C537.61 21.25 539.25 19.61 539.25 15V9C539.25 4.39 537.61 2.75 533 2.75H527Z" fill="white"/>
</svg>
