<svg width="326" height="121" viewBox="0 0 326 121" fill="none" xmlns="http://www.w3.org/2000/svg">
<path d="M13 47.75H5C2.58 47.75 1.25 46.42 1.25 44V36C1.25 33.58 2.58 32.25 5 32.25H10C10.41 32.25 10.75 32.59 10.75 33V44C10.75 45.58 11.42 46.25 13 46.25C13.41 46.25 13.75 46.59 13.75 47C13.75 47.41 13.41 47.75 13 47.75ZM5 33.75C3.42 33.75 2.75 34.42 2.75 36V44C2.75 45.58 3.42 46.25 5 46.25H9.79999C9.43999 45.66 9.25 44.91 9.25 44V33.75H5Z" fill="#393CFF"/>
<path d="M10 33.75H5C4.59 33.75 4.25 33.41 4.25 33V31C4.25 29.48 5.48 28.25 7 28.25H10.11C10.34 28.25 10.56 28.36 10.7 28.54C10.84 28.73 10.89 28.97 10.83 29.19C10.77 29.41 10.75 29.66 10.75 30V33C10.75 33.41 10.41 33.75 10 33.75ZM5.75 32.25H9.25V30C9.25 29.91 9.25 29.83 9.25 29.75H7C6.31 29.75 5.75 30.31 5.75 31V32.25Z" fill="#393CFF"/>
<path d="M14 38.75C13.59 38.75 13.25 38.41 13.25 38V33C13.25 32.59 13.59 32.25 14 32.25C14.41 32.25 14.75 32.59 14.75 33V38C14.75 38.41 14.41 38.75 14 38.75Z" fill="#393CFF"/>
<path d="M18 38.75C17.59 38.75 17.25 38.41 17.25 38V33C17.25 32.59 17.59 32.25 18 32.25C18.41 32.25 18.75 32.59 18.75 33V38C18.75 38.41 18.41 38.75 18 38.75Z" fill="#393CFF"/>
<path d="M18 47.75H14C13.59 47.75 13.25 47.41 13.25 47V43C13.25 42.04 14.04 41.25 15 41.25H17C17.96 41.25 18.75 42.04 18.75 43V47C18.75 47.41 18.41 47.75 18 47.75ZM14.75 46.25H17.25V43C17.25 42.86 17.14 42.75 17 42.75H15C14.86 42.75 14.75 42.86 14.75 43V46.25Z" fill="#393CFF"/>
<path d="M6 42.75C5.59 42.75 5.25 42.41 5.25 42V38C5.25 37.59 5.59 37.25 6 37.25C6.41 37.25 6.75 37.59 6.75 38V42C6.75 42.41 6.41 42.75 6 42.75Z" fill="#393CFF"/>
<path d="M19 47.75H13C10.58 47.75 9.25 46.42 9.25 44V30C9.25 27.58 10.58 26.25 13 26.25H19C21.42 26.25 22.75 27.58 22.75 30V44C22.75 46.42 21.42 47.75 19 47.75ZM13 27.75C11.42 27.75 10.75 28.42 10.75 30V44C10.75 45.58 11.42 46.25 13 46.25H19C20.58 46.25 21.25 45.58 21.25 44V30C21.25 28.42 20.58 27.75 19 27.75H13Z" fill="#393CFF"/>
<path d="M69.5997 46.4788H64.3997C59.6438 46.4788 57.5205 44.3555 57.5205 39.5997V34.3997C57.5205 29.6438 59.6438 27.5205 64.3997 27.5205H69.5997C74.3555 27.5205 76.4788 29.6438 76.4788 34.3997V39.5997C76.4788 44.3555 74.3555 46.4788 69.5997 46.4788ZM64.3997 29.1455C60.5213 29.1455 59.1455 30.5213 59.1455 34.3997V39.5997C59.1455 43.478 60.5213 44.8538 64.3997 44.8538H69.5997C73.478 44.8538 74.8538 43.478 74.8538 39.5997V34.3997C74.8538 30.5213 73.478 29.1455 69.5997 29.1455H64.3997Z" fill="#393CFF"/>
<path d="M68.6247 43.2288H65.3747C62.233 43.2288 60.7705 41.7663 60.7705 38.6247V35.3747C60.7705 32.233 62.233 30.7705 65.3747 30.7705H68.6247C71.7663 30.7705 73.2288 32.233 73.2288 35.3747V38.6247C73.2288 41.7663 71.7663 43.2288 68.6247 43.2288ZM65.3747 32.3955C63.1213 32.3955 62.3955 33.1213 62.3955 35.3747V38.6247C62.3955 40.878 63.1213 41.6038 65.3747 41.6038H68.6247C70.878 41.6038 71.6038 40.878 71.6038 38.6247V35.3747C71.6038 33.1213 70.878 32.3955 68.6247 32.3955H65.3747Z" fill="#393CFF"/>
<path d="M62.6777 29.1462C62.2227 29.1462 61.8652 28.7778 61.8652 28.3337V26.167C61.8652 25.7228 62.2336 25.3545 62.6777 25.3545C63.1219 25.3545 63.4902 25.7228 63.4902 26.167V28.3337C63.4902 28.7778 63.1219 29.1462 62.6777 29.1462Z" fill="#393CFF"/>
<path d="M67 29.1462C66.5558 29.1462 66.1875 28.7778 66.1875 28.3337V26.167C66.1875 25.7228 66.5558 25.3545 67 25.3545C67.4442 25.3545 67.8125 25.7228 67.8125 26.167V28.3337C67.8125 28.7778 67.4442 29.1462 67 29.1462Z" fill="#393CFF"/>
<path d="M71.333 29.1462C70.8888 29.1462 70.5205 28.7778 70.5205 28.3337V26.167C70.5205 25.7228 70.8888 25.3545 71.333 25.3545C71.7772 25.3545 72.1455 25.7228 72.1455 26.167V28.3337C72.1455 28.7778 71.7772 29.1462 71.333 29.1462Z" fill="#393CFF"/>
<path d="M77.8337 33.4795H75.667C75.2228 33.4795 74.8545 33.1112 74.8545 32.667C74.8545 32.2228 75.2228 31.8545 75.667 31.8545H77.8337C78.2778 31.8545 78.6462 32.2228 78.6462 32.667C78.6462 33.1112 78.2887 33.4795 77.8337 33.4795Z" fill="#393CFF"/>
<path d="M77.8337 37.8125H75.667C75.2228 37.8125 74.8545 37.4442 74.8545 37C74.8545 36.5558 75.2228 36.1875 75.667 36.1875H77.8337C78.2778 36.1875 78.6462 36.5558 78.6462 37C78.6462 37.4442 78.2887 37.8125 77.8337 37.8125Z" fill="#393CFF"/>
<path d="M77.8337 42.1455H75.667C75.2228 42.1455 74.8545 41.7772 74.8545 41.333C74.8545 40.8888 75.2228 40.5205 75.667 40.5205H77.8337C78.2778 40.5205 78.6462 40.8888 78.6462 41.333C78.6462 41.7772 78.2887 42.1455 77.8337 42.1455Z" fill="#393CFF"/>
<path d="M71.333 48.6462C70.8888 48.6462 70.5205 48.2778 70.5205 47.8337V45.667C70.5205 45.2228 70.8888 44.8545 71.333 44.8545C71.7772 44.8545 72.1455 45.2228 72.1455 45.667V47.8337C72.1455 48.2778 71.7772 48.6462 71.333 48.6462Z" fill="#393CFF"/>
<path d="M67.0107 48.6462C66.5666 48.6462 66.1982 48.2778 66.1982 47.8337V45.667C66.1982 45.2228 66.5666 44.8545 67.0107 44.8545C67.4549 44.8545 67.8232 45.2228 67.8232 45.667V47.8337C67.8232 48.2778 67.4549 48.6462 67.0107 48.6462Z" fill="#393CFF"/>
<path d="M62.6777 48.6462C62.2336 48.6462 61.8652 48.2778 61.8652 47.8337V45.667C61.8652 45.2228 62.2336 44.8545 62.6777 44.8545C63.1219 44.8545 63.4902 45.2228 63.4902 45.667V47.8337C63.4902 48.2778 63.1219 48.6462 62.6777 48.6462Z" fill="#393CFF"/>
<path d="M58.3337 33.4795H56.167C55.7228 33.4795 55.3545 33.122 55.3545 32.667C55.3545 32.212 55.7228 31.8545 56.167 31.8545H58.3337C58.7778 31.8545 59.1462 32.2228 59.1462 32.667C59.1462 33.1112 58.7887 33.4795 58.3337 33.4795Z" fill="#393CFF"/>
<path d="M58.3337 37.8125H56.167C55.7228 37.8125 55.3545 37.4442 55.3545 37C55.3545 36.5558 55.7228 36.1875 56.167 36.1875H58.3337C58.7778 36.1875 59.1462 36.5558 59.1462 37C59.1462 37.4442 58.7887 37.8125 58.3337 37.8125Z" fill="#393CFF"/>
<path d="M58.3337 42.1455H56.167C55.7228 42.1455 55.3545 41.7772 55.3545 41.333C55.3545 40.8888 55.7228 40.5205 56.167 40.5205H58.3337C58.7778 40.5205 59.1462 40.8888 59.1462 41.333C59.1462 41.7772 58.7887 42.1455 58.3337 42.1455Z" fill="#393CFF"/>
<path d="M67 40.3037C66.8592 40.3037 66.7183 40.2712 66.5992 40.1954C66.2092 39.9679 66.0792 39.4695 66.2958 39.0904L67.0325 37.812H66.3933C65.8733 37.812 65.4508 37.5845 65.2233 37.1945C64.9958 36.8045 65.0175 36.317 65.2667 35.8729L66.285 34.0962C66.5125 33.7062 67.0108 33.5762 67.39 33.7928C67.78 34.0204 67.91 34.5187 67.6933 34.8979L66.9567 36.1762H67.5958C68.1158 36.1762 68.5383 36.4037 68.7658 36.7937C68.9933 37.1837 68.9717 37.6712 68.7225 38.1154L67.7042 39.892C67.5525 40.1629 67.2817 40.3037 67 40.3037Z" fill="#393CFF"/>
<path d="M125.65 45.4102C125.22 45.4102 124.79 45.3202 124.44 45.1502L119.19 42.5202C118.89 42.3702 118.3 42.3802 118.01 42.5502L115.65 43.9002C114.63 44.4802 113.58 44.5602 112.79 44.0902C111.99 43.6302 111.54 42.6902 111.54 41.5102V31.7902C111.54 30.8802 112.14 29.8502 112.93 29.4002L117.26 26.9202C117.99 26.5002 119.1 26.4702 119.85 26.8502L125.1 29.4802C125.4 29.6302 125.98 29.6102 126.28 29.4502L128.63 28.1102C129.65 27.5302 130.7 27.4502 131.49 27.9202C132.29 28.3802 132.74 29.3202 132.74 30.5002V40.2302C132.74 41.1402 132.14 42.1702 131.35 42.6202L127.02 45.1002C126.64 45.3002 126.14 45.4102 125.65 45.4102ZM118.64 40.9202C119.07 40.9202 119.5 41.0102 119.85 41.1802L125.1 43.8102C125.4 43.9602 125.98 43.9402 126.28 43.7802L130.61 41.3002C130.93 41.1202 131.24 40.5802 131.24 40.2202V30.4902C131.24 29.8602 131.06 29.3902 130.73 29.2102C130.41 29.0302 129.91 29.1002 129.37 29.4102L127.02 30.7502C126.29 31.1702 125.18 31.2002 124.43 30.8202L119.18 28.1902C118.88 28.0402 118.3 28.0602 118 28.2202L113.67 30.7002C113.35 30.8802 113.04 31.4202 113.04 31.7902V41.5202C113.04 42.1502 113.22 42.6202 113.54 42.8002C113.86 42.9902 114.36 42.9102 114.91 42.6002L117.26 41.2602C117.65 41.0302 118.15 40.9202 118.64 40.9202Z" fill="#393CFF"/>
<path d="M118.56 41.75C118.15 41.75 117.81 41.41 117.81 41V28C117.81 27.59 118.15 27.25 118.56 27.25C118.97 27.25 119.31 27.59 119.31 28V41C119.31 41.41 118.97 41.75 118.56 41.75Z" fill="#393CFF"/>
<path d="M125.73 44.7501C125.32 44.7501 124.98 44.4101 124.98 44.0001V30.6201C124.98 30.2101 125.32 29.8701 125.73 29.8701C126.14 29.8701 126.48 30.2101 126.48 30.6201V44.0001C126.48 44.4101 126.14 44.7501 125.73 44.7501Z" fill="#393CFF"/>
<path d="M256 31.9098C255.97 31.9098 255.95 31.9098 255.92 31.9098H255.87C253.98 31.8498 252.57 30.3898 252.57 28.5898C252.57 26.7498 254.07 25.2598 255.9 25.2598C257.73 25.2598 259.23 26.7598 259.23 28.5898C259.22 30.3998 257.81 31.8598 256.01 31.9198C256.01 31.9098 256.01 31.9098 256 31.9098ZM255.9 26.7498C254.89 26.7498 254.07 27.5698 254.07 28.5798C254.07 29.5698 254.84 30.3698 255.83 30.4098C255.84 30.3998 255.92 30.3998 256.01 30.4098C256.98 30.3598 257.73 29.5598 257.74 28.5798C257.74 27.5698 256.92 26.7498 255.9 26.7498Z" fill="#393CFF"/>
<path d="M256.01 39.2797C255.62 39.2797 255.23 39.2497 254.84 39.1797C254.43 39.1097 254.16 38.7197 254.23 38.3097C254.3 37.8997 254.69 37.6297 255.1 37.6997C256.33 37.9097 257.63 37.6797 258.5 37.0997C258.97 36.7897 259.22 36.3997 259.22 36.0097C259.22 35.6197 258.96 35.2397 258.5 34.9297C257.63 34.3497 256.31 34.1197 255.07 34.3397C254.66 34.4197 254.27 34.1397 254.2 33.7297C254.13 33.3197 254.4 32.9297 254.81 32.8597C256.44 32.5697 258.13 32.8797 259.33 33.6797C260.21 34.2697 260.72 35.1097 260.72 36.0097C260.72 36.8997 260.22 37.7497 259.33 38.3497C258.42 38.9497 257.24 39.2797 256.01 39.2797Z" fill="#393CFF"/>
<path d="M243.97 31.91C243.96 31.91 243.95 31.91 243.95 31.91C242.15 31.85 240.74 30.39 240.73 28.59C240.73 26.75 242.23 25.25 244.06 25.25C245.89 25.25 247.39 26.75 247.39 28.58C247.39 30.39 245.98 31.85 244.18 31.91L243.97 31.16L244.04 31.91C244.02 31.91 243.99 31.91 243.97 31.91ZM244.07 30.41C244.13 30.41 244.18 30.41 244.24 30.42C245.13 30.38 245.91 29.58 245.91 28.59C245.91 27.58 245.09 26.76 244.08 26.76C243.07 26.76 242.25 27.58 242.25 28.59C242.25 29.57 243.01 30.36 243.98 30.42C243.99 30.41 244.03 30.41 244.07 30.41Z" fill="#393CFF"/>
<path d="M243.96 39.2797C242.73 39.2797 241.55 38.9497 240.64 38.3497C239.76 37.7597 239.25 36.9097 239.25 36.0097C239.25 35.1197 239.76 34.2697 240.64 33.6797C241.84 32.8797 243.53 32.5697 245.16 32.8597C245.57 32.9297 245.84 33.3197 245.77 33.7297C245.7 34.1397 245.31 34.4197 244.9 34.3397C243.66 34.1197 242.35 34.3497 241.47 34.9297C241 35.2397 240.75 35.6197 240.75 36.0097C240.75 36.3997 241.01 36.7897 241.47 37.0997C242.34 37.6797 243.64 37.9097 244.87 37.6997C245.28 37.6297 245.67 37.9097 245.74 38.3097C245.81 38.7197 245.54 39.1097 245.13 39.1797C244.74 39.2497 244.35 39.2797 243.96 39.2797Z" fill="#393CFF"/>
<path d="M250 39.3805C249.97 39.3805 249.95 39.3805 249.92 39.3805H249.87C247.98 39.3205 246.57 37.8605 246.57 36.0605C246.57 34.2205 248.07 32.7305 249.9 32.7305C251.73 32.7305 253.23 34.2305 253.23 36.0605C253.22 37.8705 251.81 39.3305 250.01 39.3905C250.01 39.3805 250.01 39.3805 250 39.3805ZM249.9 34.2205C248.89 34.2205 248.07 35.0405 248.07 36.0505C248.07 37.0405 248.84 37.8405 249.83 37.8805C249.84 37.8705 249.92 37.8705 250.01 37.8805C250.98 37.8305 251.73 37.0305 251.74 36.0505C251.74 35.0505 250.92 34.2205 249.9 34.2205Z" fill="#393CFF"/>
<path d="M249.999 46.7597C248.799 46.7597 247.599 46.4497 246.669 45.8197C245.789 45.2297 245.279 44.3897 245.279 43.4897C245.279 42.5997 245.779 41.7397 246.669 41.1497C248.539 39.9097 251.469 39.9097 253.329 41.1497C254.209 41.7397 254.719 42.5797 254.719 43.4797C254.719 44.3697 254.219 45.2297 253.329 45.8197C252.399 46.4397 251.199 46.7597 249.999 46.7597ZM247.499 42.4097C247.029 42.7197 246.779 43.1097 246.779 43.4997C246.779 43.8897 247.039 44.2697 247.499 44.5797C248.849 45.4897 251.139 45.4897 252.489 44.5797C252.959 44.2697 253.209 43.8797 253.209 43.4897C253.209 43.0997 252.949 42.7197 252.489 42.4097C251.149 41.4997 248.859 41.5097 247.499 42.4097Z" fill="#393CFF"/>
<path d="M189 46.75H183C177.57 46.75 175.25 44.43 175.25 39V33C175.25 27.57 177.57 25.25 183 25.25H189C194.43 25.25 196.75 27.57 196.75 33V39C196.75 44.43 194.43 46.75 189 46.75ZM183 26.75C178.39 26.75 176.75 28.39 176.75 33V39C176.75 43.61 178.39 45.25 183 45.25H189C193.61 45.25 195.25 43.61 195.25 39V33C195.25 28.39 193.61 26.75 189 26.75H183Z" fill="#393CFF"/>
<path d="M189.5 43.25C187.98 43.25 186.75 42.02 186.75 40.5V31.5C186.75 29.98 187.98 28.75 189.5 28.75C191.02 28.75 192.25 29.98 192.25 31.5V40.5C192.25 42.02 191.02 43.25 189.5 43.25ZM189.5 30.25C188.81 30.25 188.25 30.81 188.25 31.5V40.5C188.25 41.19 188.81 41.75 189.5 41.75C190.19 41.75 190.75 41.19 190.75 40.5V31.5C190.75 30.81 190.19 30.25 189.5 30.25Z" fill="#393CFF"/>
<path d="M182.5 43.25C180.98 43.25 179.75 42.02 179.75 40.5V37C179.75 35.48 180.98 34.25 182.5 34.25C184.02 34.25 185.25 35.48 185.25 37V40.5C185.25 42.02 184.02 43.25 182.5 43.25ZM182.5 35.75C181.81 35.75 181.25 36.31 181.25 37V40.5C181.25 41.19 181.81 41.75 182.5 41.75C183.19 41.75 183.75 41.19 183.75 40.5V37C183.75 36.31 183.19 35.75 182.5 35.75Z" fill="#393CFF"/>
<path d="M311.99 47.78C311.39 47.78 310.82 47.48 310.43 46.95L309.23 45.35C309.23 45.36 309.18 45.33 309.16 45.33H308.79C305.37 45.33 303.25 44.4 303.25 39.79V35.79C303.25 31.58 305.82 30.48 307.98 30.29C308.22 30.26 308.5 30.25 308.79 30.25H315.19C318.81 30.25 320.73 32.17 320.73 35.79V39.79C320.73 40.08 320.72 40.36 320.68 40.63C320.5 42.76 319.4 45.33 315.19 45.33H314.79L313.55 46.95C313.16 47.48 312.59 47.78 311.99 47.78ZM308.79 31.75C308.56 31.75 308.34 31.76 308.13 31.78C305.81 31.98 304.75 33.25 304.75 35.79V39.79C304.75 43.22 305.81 43.83 308.79 43.83H309.19C309.64 43.83 310.15 44.08 310.43 44.44L311.63 46.05C311.85 46.35 312.13 46.35 312.35 46.05L313.55 44.45C313.84 44.06 314.3 43.83 314.79 43.83H315.19C317.73 43.83 319 42.76 319.19 40.48C319.22 40.24 319.23 40.02 319.23 39.79V35.79C319.23 33 317.98 31.75 315.19 31.75H308.79Z" fill="#393CFF"/>
<path d="M311.99 39.1904C311.43 39.1904 310.99 38.7404 310.99 38.1904C310.99 37.6404 311.44 37.1904 311.99 37.1904C312.54 37.1904 312.99 37.6404 312.99 38.1904C312.99 38.7404 312.55 39.1904 311.99 39.1904Z" fill="#393CFF"/>
<path d="M315.189 39.1904C314.629 39.1904 314.189 38.7404 314.189 38.1904C314.189 37.6404 314.639 37.1904 315.189 37.1904C315.739 37.1904 316.189 37.6404 316.189 38.1904C316.189 38.7404 315.739 39.1904 315.189 39.1904Z" fill="#393CFF"/>
<path d="M308.8 39.1904C308.24 39.1904 307.8 38.7404 307.8 38.1904C307.8 37.6404 308.25 37.1904 308.8 37.1904C309.35 37.1904 309.8 37.6404 309.8 38.1904C309.8 38.7404 309.35 39.1904 308.8 39.1904Z" fill="#393CFF"/>
<path d="M319.94 41.29C319.74 41.29 319.54 41.21 319.4 41.06C319.24 40.9 319.17 40.67 319.2 40.45C319.23 40.24 319.24 40.02 319.24 39.79V35.79C319.24 33 317.99 31.75 315.2 31.75H308.8C308.57 31.75 308.35 31.76 308.14 31.78C307.92 31.81 307.69 31.73 307.53 31.58C307.37 31.42 307.28 31.2 307.3 30.98C307.48 28.82 308.59 26.25 312.8 26.25H319.2C322.82 26.25 324.74 28.17 324.74 31.79V35.79C324.74 40 322.17 41.1 320.01 41.29C319.98 41.29 319.96 41.29 319.94 41.29ZM308.92 30.25H315.19C318.81 30.25 320.73 32.17 320.73 35.79V39.66C322.43 39.24 323.23 37.99 323.23 35.79V31.79C323.23 29 321.98 27.75 319.19 27.75H312.79C310.59 27.75 309.35 28.55 308.92 30.25Z" fill="#393CFF"/>
<path d="M20.7097 3.6545C20.7097 3.6545 22.6523 2.897 22.4904 4.73664C22.4365 5.49415 21.9508 8.1454 21.573 11.0131L20.278 19.5079C20.278 19.5079 20.17 20.7524 19.1987 20.9688C18.2273 21.1852 16.7704 20.2113 16.5005 19.9949C16.2847 19.8326 12.4534 17.3977 11.1043 16.2074C10.7265 15.8827 10.2948 15.2335 11.1582 14.476L16.8244 9.06525C17.4719 8.41595 18.1194 6.90095 15.4213 8.7406L7.86655 13.8808C7.86655 13.8808 7.00315 14.4219 5.3843 13.9349L1.87671 12.8527C1.87671 12.8527 0.581605 12.0411 2.79408 11.2295C8.19035 8.68645 14.8278 6.0893 20.7097 3.6545Z" fill="#A5BFD7"/>
<mask id="mask0_306_304" style="mask-type:luminance" maskUnits="userSpaceOnUse" x="37" y="2" width="22" height="22">
<path d="M59 2H37V24H59V2Z" fill="white"/>
</mask>
<g mask="url(#mask0_306_304)">
<path d="M58.5015 6.07286C58.1559 6.22615 57.8005 6.35552 57.4374 6.46055C57.8673 5.97442 58.195 5.40242 58.3951 4.77649C58.4399 4.63619 58.3935 4.48261 58.2781 4.39085C58.163 4.29902 58.0029 4.28802 57.8761 4.36317C57.105 4.82049 56.2732 5.14914 55.4009 5.34132C54.5222 4.48275 53.3288 3.99414 52.0951 3.99414C49.491 3.99414 47.3723 6.11274 47.3723 8.71683C47.3723 8.92193 47.3853 9.12589 47.411 9.32701C44.1795 9.04328 41.1752 7.45495 39.1122 4.92431C39.0386 4.83411 38.9254 4.7855 38.8094 4.7948C38.6934 4.80388 38.5891 4.86931 38.5305 4.96988C38.1121 5.68786 37.8909 6.50902 37.8909 7.34453C37.8909 8.4825 38.2972 9.5622 39.0149 10.4059C38.7966 10.3303 38.5849 10.2358 38.3828 10.1236C38.2742 10.0632 38.1418 10.0642 38.034 10.126C37.9261 10.1878 37.8585 10.3015 37.8557 10.4257C37.8552 10.4467 37.8552 10.4676 37.8552 10.4888C37.8552 12.1874 38.7694 13.7167 40.1671 14.5502C40.047 14.5382 39.927 14.5209 39.8078 14.4981C39.6849 14.4746 39.5585 14.5177 39.4756 14.6114C39.3926 14.7051 39.3651 14.8357 39.4033 14.9549C39.9207 16.5701 41.2527 17.7582 42.8629 18.1204C41.5274 18.9569 40.0001 19.3951 38.3968 19.3951C38.0623 19.3951 37.7258 19.3754 37.3965 19.3364C37.2329 19.317 37.0765 19.4136 37.0208 19.5691C36.9651 19.7248 37.0241 19.8983 37.1633 19.9875C39.223 21.3081 41.6046 22.0062 44.0505 22.0062C48.8589 22.0062 51.8668 19.7388 53.5434 17.8366C55.6342 15.4648 56.8332 12.3254 56.8332 9.22347C56.8332 9.09388 56.8312 8.96302 56.8273 8.83258C57.6521 8.21111 58.3623 7.459 58.9402 6.59454C59.028 6.46325 59.0185 6.28973 58.9168 6.16888C58.8152 6.04795 58.646 6.00884 58.5015 6.07286Z" fill="#A5BFD7"/>
</g>
<mask id="mask1_306_304" style="mask-type:luminance" maskUnits="userSpaceOnUse" x="71" y="1" width="20" height="20">
<path d="M91 1H71V21H91V1Z" fill="white"/>
</mask>
<g mask="url(#mask1_306_304)">
<path d="M73.568 1H88.4332C89.8455 1 91 2.15493 91 3.5672V18.4324C91 19.8443 89.8455 20.9984 88.4332 20.9984H73.568C72.1557 20.9984 71 19.8442 71 18.4324V3.5672C71 2.15493 72.1557 1 73.568 1ZM85.5697 3.22113C85.0739 3.22113 84.6694 3.6272 84.6694 4.1228V6.27707C84.6694 6.77287 85.0739 7.178 85.5697 7.178H87.8299C88.325 7.178 88.7303 6.77287 88.7303 6.27707V4.1228C88.7303 3.6272 88.325 3.22113 87.8299 3.22113H85.5697ZM88.7389 9.45707H86.9792C87.1461 10.0021 87.2365 10.5768 87.2365 11.1743C87.2365 14.4998 84.4521 17.197 81.0188 17.197C77.5863 17.197 74.8019 14.4998 74.8019 11.1743C74.8019 10.5768 74.8932 10.0021 75.0593 9.45707H73.2233V17.9059C73.2233 18.3434 73.5806 18.6993 74.0177 18.6993H87.9449C88.3824 18.6993 88.7389 18.3434 88.7389 17.9059V9.45707ZM81.0189 7.0644C78.8015 7.0644 77.0029 8.80627 77.0029 10.9569C77.0029 13.1054 78.8015 14.8486 81.0189 14.8486C83.2374 14.8486 85.0361 13.1054 85.0361 10.9569C85.0361 8.8062 83.2374 7.0644 81.0189 7.0644Z" fill="#A5BFD7"/>
</g>
<path d="M127.065 5.0046C126.198 3.97476 124.599 3.55469 121.544 3.55469H110.456C107.331 3.55469 105.705 4.00186 104.841 5.09827C104 6.16728 104 7.74238 104 9.92235V14.0774C104 18.3007 104.998 20.445 110.456 20.445H121.544C124.193 20.445 125.661 20.0743 126.611 19.1654C127.584 18.2335 128 16.7118 128 14.0774V9.92235C128 7.62338 127.935 6.039 127.065 5.0046ZM119.408 12.5735L114.373 15.2051C114.26 15.2639 114.137 15.2931 114.014 15.2931C113.875 15.2931 113.736 15.2556 113.613 15.1811C113.382 15.0408 113.24 14.7897 113.24 14.5189V9.27265C113.24 9.0023 113.381 8.75146 113.612 8.61102C113.844 8.47058 114.131 8.46098 114.371 8.58563L119.406 11.2002C119.662 11.3332 119.823 11.5977 119.824 11.8862C119.824 12.175 119.664 12.4399 119.408 12.5735Z" fill="#A5BFD7"/>
<path d="M157.21 2.1545C157.21 2.1545 159.152 1.397 158.99 3.23664C158.936 3.99415 158.451 6.6454 158.073 9.5131L156.778 18.0079C156.778 18.0079 156.67 19.2524 155.699 19.4688C154.727 19.6852 153.27 18.7113 153.001 18.4949C152.785 18.3326 148.953 15.8977 147.604 14.7074C147.227 14.3827 146.795 13.7335 147.658 12.976L153.324 7.56525C153.972 6.91595 154.619 5.40095 151.921 7.2406L144.367 12.3808C144.367 12.3808 143.503 12.9219 141.884 12.4349L138.377 11.3527C138.377 11.3527 137.082 10.5411 139.294 9.7295C144.69 7.18645 151.328 4.5893 157.21 2.1545Z" fill="#393CFF"/>
<path d="M195.501 4.07872C195.156 4.23201 194.801 4.36138 194.437 4.46641C194.867 3.98028 195.195 3.40828 195.395 2.78235C195.44 2.64205 195.393 2.48847 195.278 2.39671C195.163 2.30488 195.003 2.29388 194.876 2.36903C194.105 2.82635 193.273 3.155 192.401 3.34718C191.522 2.48861 190.329 2 189.095 2C186.491 2 184.372 4.1186 184.372 6.72269C184.372 6.92779 184.385 7.13175 184.411 7.33287C181.179 7.04914 178.175 5.46081 176.112 2.93017C176.039 2.83997 175.925 2.79136 175.809 2.80066C175.693 2.80974 175.589 2.87517 175.531 2.97574C175.112 3.69372 174.891 4.51488 174.891 5.35039C174.891 6.48835 175.297 7.56806 176.015 8.41172C175.797 8.33614 175.585 8.24168 175.383 8.12948C175.274 8.06909 175.142 8.07001 175.034 8.13183C174.926 8.19364 174.859 8.30733 174.856 8.43159C174.855 8.45253 174.855 8.47346 174.855 8.49468C174.855 10.1933 175.769 11.7226 177.167 12.5561C177.047 12.5441 176.927 12.5267 176.808 12.5039C176.685 12.4804 176.558 12.5235 176.476 12.6173C176.393 12.7109 176.365 12.8415 176.403 12.9608C176.921 14.576 178.253 15.7641 179.863 16.1263C178.527 16.9628 177 17.4009 175.397 17.4009C175.062 17.4009 174.726 17.3813 174.397 17.3423C174.233 17.3229 174.077 17.4194 174.021 17.575C173.965 17.7306 174.024 17.9042 174.163 17.9934C176.223 19.314 178.605 20.012 181.051 20.012C185.859 20.012 188.867 17.7446 190.543 15.8425C192.634 13.4707 193.833 10.3313 193.833 7.22933C193.833 7.09974 193.831 6.96888 193.827 6.83844C194.652 6.21697 195.362 5.46486 195.94 4.6004C196.028 4.46911 196.018 4.29559 195.917 4.17474C195.815 4.05381 195.646 4.0147 195.501 4.07872Z" fill="#393CFF"/>
<path d="M208.568 0H223.433C224.845 0 226 1.15493 226 2.5672V17.4324C226 18.8443 224.845 19.9984 223.433 19.9984H208.568C207.156 19.9984 206 18.8442 206 17.4324V2.5672C206 1.15493 207.156 0 208.568 0ZM220.57 2.22113C220.074 2.22113 219.669 2.6272 219.669 3.1228V5.27707C219.669 5.77287 220.074 6.178 220.57 6.178H222.83C223.325 6.178 223.73 5.77287 223.73 5.27707V3.1228C223.73 2.6272 223.325 2.22113 222.83 2.22113H220.57ZM223.739 8.45707H221.979C222.146 9.00207 222.237 9.5768 222.237 10.1743C222.237 13.4998 219.452 16.197 216.019 16.197C212.586 16.197 209.802 13.4998 209.802 10.1743C209.802 9.5768 209.893 9.00207 210.059 8.45707H208.223V16.9059C208.223 17.3434 208.581 17.6993 209.018 17.6993H222.945C223.382 17.6993 223.739 17.3434 223.739 16.9059V8.45707ZM216.019 6.0644C213.802 6.0644 212.003 7.80627 212.003 9.95693C212.003 12.1054 213.802 13.8486 216.019 13.8486C218.237 13.8486 220.036 12.1054 220.036 9.95693C220.036 7.8062 218.237 6.0644 216.019 6.0644Z" fill="#393CFF"/>
<path d="M264.065 4.44991C263.198 3.42008 261.599 3 258.544 3H247.456C244.331 3 242.705 3.44717 241.841 4.54359C241 5.61259 241 7.18769 241 9.36766V13.5227C241 17.746 241.998 19.8903 247.456 19.8903H258.544C261.193 19.8903 262.661 19.5196 263.611 18.6108C264.584 17.6788 265 16.1571 265 13.5227V9.36766C265 7.0687 264.935 5.48431 264.065 4.44991ZM256.408 12.0188L251.373 14.6504C251.26 14.7092 251.137 14.7384 251.014 14.7384C250.875 14.7384 250.736 14.7009 250.613 14.6265C250.382 14.4861 250.24 14.235 250.24 13.9642V8.71796C250.24 8.44761 250.381 8.19677 250.612 8.05634C250.844 7.9159 251.131 7.9063 251.371 8.03094L256.406 10.6455C256.662 10.7786 256.823 11.043 256.824 11.3316C256.824 11.6203 256.664 11.8852 256.408 12.0188Z" fill="#393CFF"/>
<path d="M12 72.75C6.07 72.75 1.25 67.93 1.25 62C1.25 56.07 6.07 51.25 12 51.25C17.93 51.25 22.75 56.07 22.75 62C22.75 62.41 22.8679 63.7453 22.4579 63.7453C22.0479 63.7453 21.25 62.41 21.25 62C21.25 56.9 17.1 52.75 12 52.75C6.9 52.75 2.75 56.9 2.75 62C2.75 67.1 6.9 71.25 12 71.25C12.41 71.25 12.75 71.59 12.75 72C12.75 72.41 12.41 72.75 12 72.75Z" fill="#A6ACFF"/>
<path d="M9.00024 71.75H8.00024C7.59024 71.75 7.25024 71.41 7.25024 71C7.25024 70.59 7.57023 70.26 7.98023 70.25C6.41023 64.89 6.41023 59.11 7.98023 53.75C7.58023 53.74 7.25024 53.41 7.25024 53C7.25024 52.59 7.59024 52.25 8.00024 52.25H9.00024C9.24024 52.25 9.47024 52.37 9.61024 52.56C9.75024 52.76 9.79025 53.01 9.71025 53.24C7.83025 58.89 7.83025 65.12 9.71025 70.77C9.79025 71 9.75024 71.25 9.61024 71.45C9.47024 71.65 9.24024 71.75 9.00024 71.75Z" fill="#A6ACFF"/>
<path d="M16.3559 59.7458C15.9459 59.7458 15.5975 60.2937 15.5975 59.8837C15.4424 56.9017 15.2299 56.07 14.2899 53.24C14.1599 52.85 14.3699 52.4199 14.7599 52.2899C15.1499 52.1599 15.58 52.37 15.71 52.76C16.7 55.74 17.0454 56.4924 17.0454 59.6424C17.0454 60.0524 16.7659 59.7458 16.3559 59.7458Z" fill="#A6ACFF"/>
<path d="M11.1503 67.2091C8.35029 67.2091 6.43 66.8098 3.75 66.0198C3.74 66.4198 3.41 66.7498 3 66.7498C2.59 66.7498 2.25 66.4098 2.25 65.9998V64.9998C2.25 64.7598 2.37 64.5298 2.56 64.3898C2.75 64.2498 3.01001 64.2098 3.24001 64.2898C6.07001 65.2298 8.17029 65.6922 11.1503 65.6922C11.5603 65.6922 11.3399 66.0751 11.3399 66.4851C11.3399 66.8951 11.5603 67.2091 11.1503 67.2091Z" fill="#A6ACFF"/>
<path d="M21.0002 59.7499C20.9202 59.7499 20.8402 59.7399 20.7602 59.7099C15.1102 57.8299 8.88018 57.8299 3.23018 59.7099C2.84018 59.8399 2.41018 59.6299 2.28018 59.2399C2.15018 58.8499 2.36018 58.4199 2.75018 58.2899C8.71018 56.2999 15.2702 56.2999 21.2202 58.2899C21.6102 58.4199 21.8202 58.8499 21.6902 59.2399C21.6102 59.5499 21.3102 59.7499 21.0002 59.7499Z" fill="#A6ACFF"/>
<path fill-rule="evenodd" clip-rule="evenodd" d="M22.9874 64.4426C22.7635 62.192 21.4059 58.6533 17.2101 58.6533C13.0143 58.6533 11.6566 62.192 11.4327 64.4426C10.6474 64.7347 10.1294 65.4736 10.1328 66.2968V67.2877C10.1328 68.3821 11.0382 69.2693 12.1549 69.2693C13.2717 69.2693 14.177 68.3821 14.177 67.2877V66.2968C14.1733 65.4914 13.6743 64.7676 12.9132 64.4638C13.0576 63.1616 13.7653 60.0688 17.2101 60.0688C20.6548 60.0688 21.3553 63.1616 21.4997 64.4638C20.7401 64.7683 20.2436 65.4925 20.2432 66.2968V67.2877C20.2463 68.0485 20.6921 68.7408 21.3914 69.0711C21.0881 69.6303 20.3154 70.3875 18.4161 70.614C18.0364 70.049 17.3019 69.8263 16.663 70.0824C16.0241 70.3385 15.6594 71.0019 15.7927 71.6657C15.9259 72.3295 16.5198 72.808 17.2101 72.808C17.7555 72.805 18.2528 72.5011 18.4955 72.0224C21.5936 71.6756 22.583 70.1115 22.8935 69.1915C23.7336 68.9248 24.2986 68.153 24.2873 67.2877V66.2968C24.2908 65.4736 23.7727 64.7347 22.9874 64.4426ZM12.7326 67.2877C12.7326 67.6004 12.474 67.8538 12.1549 67.8538C11.8358 67.8538 11.5772 67.6004 11.5772 67.2877V66.2968C11.5772 66.0946 11.6873 65.9076 11.866 65.8065C12.0448 65.7054 12.265 65.7054 12.4438 65.8065C12.6225 65.9076 12.7326 66.0946 12.7326 66.2968V67.2877ZM21.6875 66.2968C21.6875 65.9841 21.9462 65.7306 22.2652 65.7306C22.5843 65.7306 22.843 65.9841 22.843 66.2968V67.2877C22.843 67.6004 22.5843 67.8538 22.2652 67.8538C21.9462 67.8538 21.6875 67.6004 21.6875 67.2877V66.2968Z" fill="#393CFF"/>
<path d="M36 72.75C30.07 72.75 25.25 67.93 25.25 62C25.25 56.07 30.07 51.25 36 51.25C41.93 51.25 46.75 56.07 46.75 62C46.75 62.41 46.8679 63.7453 46.4579 63.7453C46.0479 63.7453 45.25 62.41 45.25 62C45.25 56.9 41.1 52.75 36 52.75C30.9 52.75 26.75 56.9 26.75 62C26.75 67.1 30.9 71.25 36 71.25C36.41 71.25 36.75 71.59 36.75 72C36.75 72.41 36.41 72.75 36 72.75Z" fill="#767C99"/>
<path d="M33.0002 71.75H32.0002C31.5902 71.75 31.2502 71.41 31.2502 71C31.2502 70.59 31.5702 70.26 31.9802 70.25C30.4102 64.89 30.4102 59.11 31.9802 53.75C31.5802 53.74 31.2502 53.41 31.2502 53C31.2502 52.59 31.5902 52.25 32.0002 52.25H33.0002C33.2402 52.25 33.4702 52.37 33.6102 52.56C33.7502 52.76 33.7902 53.01 33.7102 53.24C31.8302 58.89 31.8302 65.12 33.7102 70.77C33.7902 71 33.7502 71.25 33.6102 71.45C33.4702 71.65 33.2402 71.75 33.0002 71.75Z" fill="#767C99"/>
<path d="M40.3559 59.7458C39.9459 59.7458 39.5975 60.2937 39.5975 59.8837C39.4424 56.9017 39.2299 56.07 38.2899 53.24C38.1599 52.85 38.3699 52.4199 38.7599 52.2899C39.1499 52.1599 39.58 52.37 39.71 52.76C40.7 55.74 41.0454 56.4924 41.0454 59.6424C41.0454 60.0524 40.7659 59.7458 40.3559 59.7458Z" fill="#767C99"/>
<path d="M35.1503 67.2091C32.3503 67.2091 30.43 66.8098 27.75 66.0198C27.74 66.4198 27.41 66.7498 27 66.7498C26.59 66.7498 26.25 66.4098 26.25 65.9998V64.9998C26.25 64.7598 26.37 64.5298 26.56 64.3898C26.75 64.2498 27.01 64.2098 27.24 64.2898C30.07 65.2298 32.1703 65.6922 35.1503 65.6922C35.5603 65.6922 35.3399 66.0751 35.3399 66.4851C35.3399 66.8951 35.5603 67.2091 35.1503 67.2091Z" fill="#767C99"/>
<path d="M45.0002 59.7499C44.9202 59.7499 44.8402 59.7399 44.7602 59.7099C39.1102 57.8299 32.8802 57.8299 27.2302 59.7099C26.8402 59.8399 26.4102 59.6299 26.2802 59.2399C26.1502 58.8499 26.3602 58.4199 26.7502 58.2899C32.7102 56.2999 39.2702 56.2999 45.2202 58.2899C45.6102 58.4199 45.8202 58.8499 45.6902 59.2399C45.6102 59.5499 45.3102 59.7499 45.0002 59.7499Z" fill="#767C99"/>
<path fill-rule="evenodd" clip-rule="evenodd" d="M46.9874 64.4426C46.7635 62.192 45.4059 58.6533 41.2101 58.6533C37.0143 58.6533 35.6566 62.192 35.4327 64.4426C34.6474 64.7347 34.1294 65.4736 34.1328 66.2968V67.2877C34.1328 68.3821 35.0382 69.2693 36.1549 69.2693C37.2717 69.2693 38.177 68.3821 38.177 67.2877V66.2968C38.1733 65.4914 37.6743 64.7676 36.9132 64.4638C37.0576 63.1616 37.7653 60.0688 41.2101 60.0688C44.6548 60.0688 45.3553 63.1616 45.4997 64.4638C44.7401 64.7683 44.2436 65.4925 44.2432 66.2968V67.2877C44.2463 68.0485 44.6921 68.7408 45.3914 69.0711C45.0881 69.6303 44.3154 70.3875 42.4161 70.614C42.0364 70.049 41.3019 69.8263 40.663 70.0824C40.0241 70.3385 39.6594 71.0019 39.7927 71.6657C39.9259 72.3295 40.5198 72.808 41.2101 72.808C41.7555 72.805 42.2528 72.5011 42.4955 72.0224C45.5936 71.6756 46.583 70.1115 46.8935 69.1915C47.7336 68.9248 48.2986 68.153 48.2873 67.2877V66.2968C48.2908 65.4736 47.7727 64.7347 46.9874 64.4426ZM36.7326 67.2877C36.7326 67.6004 36.474 67.8538 36.1549 67.8538C35.8358 67.8538 35.5772 67.6004 35.5772 67.2877V66.2968C35.5772 66.0946 35.6873 65.9076 35.866 65.8065C36.0448 65.7054 36.265 65.7054 36.4438 65.8065C36.6225 65.9076 36.7326 66.0946 36.7326 66.2968V67.2877ZM45.6875 66.2968C45.6875 65.9841 45.9462 65.7306 46.2652 65.7306C46.5843 65.7306 46.843 65.9841 46.843 66.2968V67.2877C46.843 67.6004 46.5843 67.8538 46.2652 67.8538C45.9462 67.8538 45.6875 67.6004 45.6875 67.2877V66.2968Z" fill="white"/>
<path d="M142.38 95.13C142.18 95.13 141.99 95.05 141.85 94.91L135.47 88.53C135.18 88.24 135.18 87.76 135.47 87.47L143.2 79.74C143.39 79.55 143.68 79.48 143.94 79.55C144.2 79.63 144.4 79.84 144.46 80.1C144.65 80.95 144.75 81.9 144.75 83V89C144.75 91.77 144.17 93.64 142.91 94.91C142.77 95.05 142.56 95.08 142.38 95.13ZM137.06 88L142.32 93.26C142.95 92.29 143.25 90.91 143.25 89V83C143.25 82.59 143.24 82.21 143.21 81.85L137.06 88Z" fill="#393CFF"/>
<path d="M128.27 96.48C128.21 96.48 128.16 96.47 128.1 96.46C124.79 95.7 123.25 93.33 123.25 89V83C123.25 77.57 125.57 75.25 131 75.25H137C141.33 75.25 143.7 76.79 144.46 80.1C144.52 80.35 144.44 80.62 144.26 80.8L128.8 96.26C128.66 96.4 128.47 96.48 128.27 96.48ZM131 76.75C126.39 76.75 124.75 78.39 124.75 83V89C124.75 92.47 125.71 94.21 128.04 94.9L142.89 80.05C142.21 77.72 140.46 76.76 136.99 76.76H131V76.75Z" fill="#393CFF"/>
<path d="M137 96.7499H131C129.9 96.7499 128.96 96.6599 128.1 96.4599C127.83 96.3999 127.62 96.1999 127.55 95.9399C127.47 95.6799 127.55 95.3999 127.74 95.1999L135.47 87.4699C135.76 87.1799 136.24 87.1799 136.53 87.4699L142.91 93.8499C143.05 93.9899 143.13 94.1799 143.13 94.3799C143.13 94.5799 143.05 94.7699 142.91 94.9099C141.64 96.1699 139.77 96.7499 137 96.7499ZM129.85 95.2099C130.21 95.2399 130.59 95.2499 131 95.2499H137C138.92 95.2499 140.29 94.9499 141.26 94.3199L136 89.0599L129.85 95.2099Z" fill="#393CFF"/>
<path d="M131.12 87.31C130.49 87.31 129.86 87.08 129.36 86.61C127.77 85.1 127.13 83.4401 127.51 81.8201C127.89 80.1601 129.34 79.04 131.12 79.04C132.9 79.04 134.35 80.1601 134.73 81.8201C135.1 83.4501 134.46 85.1 132.87 86.61C132.38 87.07 131.75 87.31 131.12 87.31ZM128.97 82.15C128.65 83.51 129.57 84.7301 130.4 85.5201C130.81 85.91 131.44 85.91 131.84 85.5201C132.66 84.7401 133.58 83.52 133.27 82.15C133 80.96 131.94 80.53 131.12 80.53C130.3 80.53 129.25 80.96 128.97 82.15Z" fill="#393CFF"/>
<path d="M131.15 83.4902C130.6 83.4902 130.15 83.0402 130.15 82.4902C130.15 81.9402 130.59 81.4902 131.15 81.4902H131.16C131.71 81.4902 132.16 81.9402 132.16 82.4902C132.16 83.0402 131.7 83.4902 131.15 83.4902Z" fill="#393CFF"/>
<path d="M110 96.08C109.7 96.08 109.4 96.01 109.15 95.87C107.28 94.85 103.99 93.77 101.93 93.5L101.64 93.46C100.33 93.3 99.25 92.07 99.25 90.74V78.66C99.25 77.87 99.56 77.15 100.13 76.63C100.7 76.11 101.44 75.86 102.22 75.93C104.42 76.1 107.74 77.2 109.62 78.38L109.86 78.52C109.93 78.56 110.08 78.56 110.14 78.53L110.3 78.43C112.18 77.25 115.5 76.13 117.71 75.94C117.73 75.94 117.81 75.94 117.83 75.94C118.56 75.87 119.31 76.13 119.87 76.65C120.44 77.17 120.75 77.89 120.75 78.68V90.75C120.75 92.09 119.67 93.31 118.35 93.47L118.02 93.51C115.96 93.78 112.66 94.87 110.83 95.88C110.59 96.02 110.3 96.08 110 96.08ZM101.98 77.42C101.66 77.42 101.37 77.53 101.14 77.74C100.89 77.97 100.75 78.3 100.75 78.66V90.74C100.75 91.33 101.26 91.9 101.83 91.98L102.13 92.02C104.38 92.32 107.83 93.45 109.83 94.54C109.92 94.58 110.05 94.59 110.1 94.57C112.1 93.46 115.57 92.32 117.83 92.02L118.17 91.98C118.74 91.91 119.25 91.33 119.25 90.74V78.67C119.25 78.3 119.11 77.98 118.86 77.74C118.6 77.51 118.27 77.4 117.9 77.42C117.88 77.42 117.8 77.42 117.78 77.42C115.87 77.59 112.79 78.62 111.11 79.67L110.95 79.78C110.4 80.12 109.62 80.12 109.09 79.79L108.85 79.65C107.14 78.6 104.06 77.58 102.1 77.42C102.06 77.42 102.02 77.42 101.98 77.42Z" fill="#393CFF"/>
<path d="M110 95.2402C109.59 95.2402 109.25 94.9002 109.25 94.4902V79.4902C109.25 79.0802 109.59 78.7402 110 78.7402C110.41 78.7402 110.75 79.0802 110.75 79.4902V94.4902C110.75 94.9102 110.41 95.2402 110 95.2402Z" fill="#393CFF"/>
<path d="M105.75 83.2402H103.5C103.09 83.2402 102.75 82.9002 102.75 82.4902C102.75 82.0802 103.09 81.7402 103.5 81.7402H105.75C106.16 81.7402 106.5 82.0802 106.5 82.4902C106.5 82.9002 106.16 83.2402 105.75 83.2402Z" fill="#393CFF"/>
<path d="M106.5 86.2402H103.5C103.09 86.2402 102.75 85.9002 102.75 85.4902C102.75 85.0802 103.09 84.7402 103.5 84.7402H106.5C106.91 84.7402 107.25 85.0802 107.25 85.4902C107.25 85.9002 106.91 86.2402 106.5 86.2402Z" fill="#393CFF"/>
<path d="M89.1276 94.8617C88.8459 94.8617 88.5534 94.8509 88.2392 94.8184C87.6759 94.7751 87.0367 94.6667 86.3759 94.5042L84.5559 94.0709C79.5617 92.8901 77.9259 90.2467 79.0959 85.2634L80.1576 80.7242C80.3959 79.6951 80.6776 78.8609 81.0242 78.1676C82.8876 74.3217 86.4517 74.6684 88.9867 75.2642L90.7959 75.6867C93.3309 76.2826 94.9342 77.2251 95.8334 78.6659C96.7217 80.1067 96.8626 81.9592 96.2667 84.4942L95.2051 89.0226C94.2734 92.9876 92.3342 94.8617 89.1276 94.8617ZM86.2134 76.5209C84.4042 76.5209 83.2559 77.2684 82.4867 78.8717C82.2051 79.4567 81.9559 80.1826 81.7392 81.0926L80.6776 85.6317C79.7134 89.7267 80.8292 91.5142 84.9242 92.4892L86.7442 92.9226C87.3292 93.0634 87.8817 93.1501 88.3801 93.1934C91.3267 93.4859 92.7892 92.1967 93.6126 88.6542L94.6742 84.1259C95.1617 82.0351 95.0967 80.5726 94.4467 79.5217C93.7967 78.4709 92.5184 77.7559 90.4167 77.2684L88.6076 76.8459C87.7084 76.6292 86.9067 76.5209 86.2134 76.5209Z" fill="#393CFF"/>
<path d="M81.0243 97.1043C78.2401 97.1043 76.4635 95.436 75.326 91.9151L73.9393 87.636C72.401 82.8693 73.7768 80.1826 78.5218 78.6443L80.2335 78.0918C80.7968 77.9185 81.2193 77.7993 81.5985 77.7343C81.9126 77.6693 82.216 77.7885 82.4001 78.0376C82.5843 78.2868 82.6168 78.6118 82.4868 78.8935C82.2051 79.4676 81.956 80.1935 81.7501 81.1035L80.6885 85.6426C79.7243 89.7376 80.8401 91.5251 84.9351 92.5001L86.7551 92.9335C87.3401 93.0743 87.8926 93.161 88.391 93.2043C88.7376 93.2368 89.0193 93.4751 89.1168 93.811C89.2035 94.1468 89.0735 94.4935 88.7918 94.6885C88.0768 95.176 87.1776 95.5876 86.0401 95.956L84.3285 96.5193C83.0826 96.9093 81.9993 97.1043 81.0243 97.1043ZM80.4285 79.7385L79.031 80.1935C75.1635 81.4393 74.2426 83.2593 75.4885 87.1376L76.8751 91.4168C78.1318 95.2843 79.9518 96.216 83.8193 94.9701L85.531 94.4068C85.596 94.3851 85.6501 94.3635 85.7151 94.3418L84.5668 94.071C79.5726 92.8901 77.9368 90.2468 79.1068 85.2635L80.1685 80.7243C80.2443 80.3776 80.331 80.0418 80.4285 79.7385Z" fill="#393CFF"/>
<path d="M90.9475 84.3856C90.8825 84.3856 90.8175 84.3748 90.7417 84.3639L85.4875 83.0314C85.0542 82.9231 84.7942 82.4789 84.9025 82.0456C85.0108 81.6123 85.455 81.3523 85.8883 81.4606L91.1425 82.7931C91.5758 82.9014 91.8358 83.3456 91.7275 83.7789C91.6408 84.1364 91.305 84.3856 90.9475 84.3856Z" fill="#393CFF"/>
<path d="M87.7736 88.0476C87.7086 88.0476 87.6436 88.0368 87.5677 88.026L84.4152 87.2243C83.9819 87.116 83.7219 86.6718 83.8302 86.2385C83.9386 85.8051 84.3827 85.5451 84.8161 85.6535L87.9686 86.4551C88.4019 86.5635 88.6619 87.0076 88.5536 87.441C88.4669 87.8093 88.1419 88.0476 87.7736 88.0476Z" fill="#393CFF"/>
<path d="M57.1596 85.62C57.1296 85.62 57.1096 85.62 57.0796 85.62C57.0296 85.61 56.9596 85.61 56.8996 85.62C53.9996 85.53 51.8096 83.25 51.8096 80.44C51.8096 77.58 54.1396 75.25 56.9996 75.25C59.8596 75.25 62.1896 77.58 62.1896 80.44C62.1796 83.25 59.9796 85.53 57.1896 85.62C57.1796 85.62 57.1696 85.62 57.1596 85.62ZM56.9996 76.75C54.9696 76.75 53.3096 78.41 53.3096 80.44C53.3096 82.44 54.8696 84.05 56.8596 84.12C56.9196 84.11 57.0496 84.11 57.1796 84.12C59.1396 84.03 60.6796 82.42 60.6896 80.44C60.6896 78.41 59.0296 76.75 56.9996 76.75Z" fill="#393CFF"/>
<path d="M64.5394 85.75C64.5094 85.75 64.4794 85.75 64.4494 85.74C64.0394 85.78 63.6194 85.49 63.5794 85.08C63.5394 84.67 63.7894 84.3 64.1994 84.25C64.3194 84.24 64.4494 84.24 64.5594 84.24C66.0194 84.16 67.1594 82.96 67.1594 81.49C67.1594 79.97 65.9294 78.74 64.4094 78.74C63.9994 78.75 63.6594 78.41 63.6594 78C63.6594 77.59 63.9994 77.25 64.4094 77.25C66.7494 77.25 68.6594 79.16 68.6594 81.5C68.6594 83.8 66.8594 85.66 64.5694 85.75C64.5594 85.75 64.5494 85.75 64.5394 85.75Z" fill="#393CFF"/>
<path d="M57.1696 96.55C55.2096 96.55 53.2396 96.05 51.7496 95.05C50.3596 94.13 49.5996 92.87 49.5996 91.5C49.5996 90.13 50.3596 88.86 51.7496 87.93C54.7496 85.94 59.6096 85.94 62.5896 87.93C63.9696 88.85 64.7396 90.11 64.7396 91.48C64.7396 92.85 63.9796 94.12 62.5896 95.05C61.0896 96.05 59.1296 96.55 57.1696 96.55ZM52.5796 89.19C51.6196 89.83 51.0996 90.65 51.0996 91.51C51.0996 92.36 51.6296 93.18 52.5796 93.81C55.0696 95.48 59.2696 95.48 61.7596 93.81C62.7196 93.17 63.2396 92.35 63.2396 91.49C63.2396 90.64 62.7096 89.82 61.7596 89.19C59.2696 87.53 55.0696 87.53 52.5796 89.19Z" fill="#393CFF"/>
<path d="M66.3397 94.75C65.9897 94.75 65.6797 94.51 65.6097 94.15C65.5297 93.74 65.7897 93.35 66.1897 93.26C66.8197 93.13 67.3997 92.88 67.8497 92.53C68.4197 92.1 68.7297 91.56 68.7297 90.99C68.7297 90.42 68.4197 89.88 67.8597 89.46C67.4197 89.12 66.8697 88.88 66.2197 88.73C65.8197 88.64 65.5597 88.24 65.6497 87.83C65.7397 87.43 66.1397 87.17 66.5497 87.26C67.4097 87.45 68.1597 87.79 68.7697 88.26C69.6997 88.96 70.2297 89.95 70.2297 90.99C70.2297 92.03 69.6897 93.02 68.7597 93.73C68.1397 94.21 67.3597 94.56 66.4997 94.73C66.4397 94.75 66.3897 94.75 66.3397 94.75Z" fill="#393CFF"/>
<path d="M30.8799 92.9001C30.4699 92.9001 30.1299 92.5601 30.1299 92.1501V90.0801C30.1299 89.6701 30.4699 89.3301 30.8799 89.3301C31.2899 89.3301 31.6299 89.6701 31.6299 90.0801V92.1501C31.6299 92.5701 31.2899 92.9001 30.8799 92.9001Z" fill="#393CFF"/>
<path d="M36 92.9C35.59 92.9 35.25 92.56 35.25 92.15V88C35.25 87.59 35.59 87.25 36 87.25C36.41 87.25 36.75 87.59 36.75 88V92.15C36.75 92.57 36.41 92.9 36 92.9Z" fill="#393CFF"/>
<path d="M41.1201 92.9002C40.7101 92.9002 40.3701 92.5602 40.3701 92.1502V85.9302C40.3701 85.5202 40.7101 85.1802 41.1201 85.1802C41.5301 85.1802 41.8701 85.5202 41.8701 85.9302V92.1502C41.8701 92.5702 41.5401 92.9002 41.1201 92.9002Z" fill="#393CFF"/>
<path d="M30.8801 87.1799C30.5401 87.1799 30.2401 86.9499 30.1501 86.6099C30.0501 86.2099 30.2901 85.7999 30.7001 85.6999C34.3801 84.7799 37.6201 82.7699 40.0901 79.8999L40.5501 79.3599C40.8201 79.0499 41.2901 79.0099 41.6101 79.2799C41.9201 79.5499 41.9601 80.0199 41.6901 80.3399L41.2301 80.8799C38.5601 83.9999 35.0401 86.1699 31.0601 87.1599C31.0001 87.1799 30.9401 87.1799 30.8801 87.1799Z" fill="#393CFF"/>
<path d="M41.1199 83.5201C40.7099 83.5201 40.3699 83.1801 40.3699 82.7701V80.6001H38.1899C37.7799 80.6001 37.4399 80.2601 37.4399 79.8501C37.4399 79.4401 37.7799 79.1001 38.1899 79.1001H41.1199C41.5299 79.1001 41.8699 79.4401 41.8699 79.8501V82.7801C41.8699 83.1901 41.5399 83.5201 41.1199 83.5201Z" fill="#393CFF"/>
<path d="M39 96.75H33C27.57 96.75 25.25 94.43 25.25 89V83C25.25 77.57 27.57 75.25 33 75.25H39C44.43 75.25 46.75 77.57 46.75 83V89C46.75 94.43 44.43 96.75 39 96.75ZM33 76.75C28.39 76.75 26.75 78.39 26.75 83V89C26.75 93.61 28.39 95.25 33 95.25H39C43.61 95.25 45.25 93.61 45.25 89V83C45.25 78.39 43.61 76.75 39 76.75H33Z" fill="#393CFF"/>
<path d="M16.0002 96.7498H8.00023C3.38023 96.7498 2.52023 94.5998 2.30023 92.5098L1.55023 84.4998C1.44023 83.4498 1.41023 81.8998 2.45023 80.7398C3.35023 79.7398 4.84023 79.2598 7.00023 79.2598H17.0002C19.1702 79.2598 20.6602 79.7498 21.5502 80.7398C22.5902 81.8998 22.5602 83.4498 22.4502 84.5098L21.7002 92.4998C21.4802 94.5998 20.6202 96.7498 16.0002 96.7498ZM7.00023 80.7498C5.31023 80.7498 4.15023 81.0798 3.56023 81.7398C3.07023 82.2798 2.91023 83.1098 3.04023 84.3498L3.79023 92.3598C3.96023 93.9398 4.39023 95.2498 8.00023 95.2498H16.0002C19.6002 95.2498 20.0402 93.9398 20.2102 92.3498L20.9602 84.3598C21.0902 83.1098 20.9302 82.2798 20.4402 81.7398C19.8502 81.0798 18.6902 80.7498 17.0002 80.7498H7.00023Z" fill="#393CFF"/>
<path d="M16 80.75C15.59 80.75 15.25 80.41 15.25 80V79.2C15.25 77.42 15.25 76.75 12.8 76.75H11.2C8.75 76.75 8.75 77.42 8.75 79.2V80C8.75 80.41 8.41 80.75 8 80.75C7.59 80.75 7.25 80.41 7.25 80V79.2C7.25 77.44 7.25 75.25 11.2 75.25H12.8C16.75 75.25 16.75 77.44 16.75 79.2V80C16.75 80.41 16.41 80.75 16 80.75Z" fill="#393CFF"/>
<path d="M12 90.75C9.25 90.75 9.25 89.05 9.25 88.03V87C9.25 85.59 9.59 85.25 11 85.25H13C14.41 85.25 14.75 85.59 14.75 87V88C14.75 89.04 14.75 90.75 12 90.75ZM10.75 86.75C10.75 86.83 10.75 86.92 10.75 87V88.03C10.75 89.06 10.75 89.25 12 89.25C13.25 89.25 13.25 89.09 13.25 88.02V87C13.25 86.92 13.25 86.83 13.25 86.75C13.17 86.75 13.08 86.75 13 86.75H11C10.92 86.75 10.83 86.75 10.75 86.75Z" fill="#393CFF"/>
<path d="M14 88.7702C13.63 88.7702 13.3 88.4902 13.26 88.1102C13.21 87.7002 13.5 87.3202 13.91 87.2702C16.55 86.9402 19.08 85.9402 21.21 84.3902C21.54 84.1402 22.01 84.2202 22.26 84.5602C22.5 84.8902 22.43 85.3602 22.09 85.6102C19.75 87.3102 16.99 88.4002 14.09 88.7702C14.06 88.7702 14.03 88.7702 14 88.7702Z" fill="#393CFF"/>
<path d="M10.0002 88.7799C9.97023 88.7799 9.94023 88.7799 9.91023 88.7799C7.17023 88.4699 4.50023 87.4699 2.19023 85.8899C1.85023 85.6599 1.76023 85.1899 1.99023 84.8499C2.22023 84.5099 2.69023 84.4199 3.03023 84.6499C5.14023 86.0899 7.57023 86.9999 10.0702 87.2899C10.4802 87.3399 10.7802 87.7099 10.7302 88.1199C10.7002 88.4999 10.3802 88.7799 10.0002 88.7799Z" fill="#393CFF"/>
<path fill-rule="evenodd" clip-rule="evenodd" d="M62 110C62 103.925 57.0751 99 51 99C44.9249 99 40 103.925 40 110C40 116.075 44.9249 121 51 121C57.0751 121 62 116.075 62 110ZM48.2369 113.599C50.2114 113.599 51.812 111.988 51.812 110C51.812 108.012 50.2113 106.4 48.2369 106.4C46.2626 106.4 44.662 108.011 44.662 110C44.662 111.988 46.2624 113.599 48.2369 113.599ZM53.9464 113.388C54.9336 113.388 55.7339 111.871 55.7339 110C55.7339 108.129 54.9336 106.611 53.9464 106.611C52.9592 106.611 52.1588 108.129 52.1588 110C52.1588 111.871 52.9592 113.388 53.9464 113.388ZM56.7093 113.035C57.0565 113.035 57.338 111.676 57.338 110C57.338 108.323 57.0567 106.964 56.7094 106.964C56.3622 106.964 56.0806 108.323 56.0806 110C56.0806 111.676 56.3622 113.035 56.7093 113.035Z" fill="#A5BFD7"/>
<path fill-rule="evenodd" clip-rule="evenodd" d="M84 110C84 103.925 79.0751 99 73 99C66.9249 99 62 103.925 62 110C62 116.075 66.9249 121 73 121C79.0751 121 84 116.075 84 110ZM70.2369 113.599C72.2114 113.599 73.812 111.988 73.812 110C73.812 108.012 72.2113 106.4 70.2369 106.4C68.2626 106.4 66.662 108.011 66.662 110C66.662 111.988 68.2624 113.599 70.2369 113.599ZM75.9464 113.388C76.9336 113.388 77.7339 111.871 77.7339 110C77.7339 108.129 76.9336 106.611 75.9464 106.611C74.9592 106.611 74.1588 108.129 74.1588 110C74.1588 111.871 74.9592 113.388 75.9464 113.388ZM78.7093 113.035C79.0565 113.035 79.338 111.676 79.338 110C79.338 108.323 79.0567 106.964 78.7094 106.964C78.3622 106.964 78.0806 108.323 78.0806 110C78.0806 111.676 78.3622 113.035 78.7093 113.035Z" fill="#393CFF"/>
<g clip-path="url(#clip0_306_304)">
<path fill-rule="evenodd" clip-rule="evenodd" d="M15.821 114.121C15.58 114.803 14.622 115.368 13.858 115.533C13.335 115.644 12.653 115.732 10.355 114.779C7.774 113.71 4.19 109.901 4.19 107.366C4.19 106.076 4.934 104.573 6.235 104.573C6.861 104.573 6.999 104.585 7.205 105.08C7.446 105.662 8.034 107.096 8.104 107.243C8.393 107.846 7.80999 108.199 7.38699 108.725C7.25199 108.883 7.099 109.054 7.27 109.348C7.44 109.636 8.028 110.594 8.892 111.363C10.008 112.358 10.913 112.675 11.237 112.81C11.478 112.91 11.766 112.887 11.942 112.699C12.165 112.458 12.442 112.058 12.724 111.664C12.923 111.381 13.176 111.346 13.441 111.446C13.62 111.508 15.895 112.565 15.991 112.734C16.062 112.857 16.062 113.439 15.821 114.121ZM10.002 100H9.99699C4.48399 100 0 104.485 0 110C0 112.187 0.705007 114.215 1.90401 115.861L0.658005 119.577L4.50101 118.349C6.08201 119.395 7.969 120 10.002 120C15.515 120 20 115.515 20 110C20 104.485 15.515 100 10.002 100Z" fill="#A5BFD7"/>
</g>
<g clip-path="url(#clip1_306_304)">
<path fill-rule="evenodd" clip-rule="evenodd" d="M35.821 114.121C35.58 114.803 34.622 115.368 33.858 115.533C33.335 115.644 32.653 115.732 30.355 114.779C27.774 113.71 24.19 109.901 24.19 107.366C24.19 106.076 24.934 104.573 26.235 104.573C26.861 104.573 26.999 104.585 27.205 105.08C27.446 105.662 28.034 107.096 28.104 107.243C28.393 107.846 27.81 108.199 27.387 108.725C27.252 108.883 27.099 109.054 27.27 109.348C27.44 109.636 28.028 110.594 28.892 111.363C30.008 112.358 30.913 112.675 31.237 112.81C31.478 112.91 31.766 112.887 31.942 112.699C32.165 112.458 32.442 112.058 32.724 111.664C32.923 111.381 33.176 111.346 33.441 111.446C33.62 111.508 35.895 112.565 35.991 112.734C36.062 112.857 36.062 113.439 35.821 114.121ZM30.002 100H29.997C24.484 100 20 104.485 20 110C20 112.187 20.705 114.215 21.904 115.861L20.658 119.577L24.501 118.349C26.082 119.395 27.969 120 30.002 120C35.515 120 40 115.515 40 110C40 104.485 35.515 100 30.002 100Z" fill="#393CFF"/>
</g>
<g clip-path="url(#clip2_306_304)">
<path d="M103.785 99.6904H86.2124C86.2069 99.6904 86.2007 99.6904 86.1938 99.6904C85.3695 99.6904 84.7005 100.353 84.6909 101.175V118.824C84.7005 119.646 85.3695 120.31 86.1938 120.31C86.2007 120.31 86.2069 120.31 86.2137 120.31H103.783C103.788 120.31 103.795 120.31 103.802 120.31C104.627 120.31 105.297 119.648 105.31 118.826V118.824V101.176C105.297 100.353 104.627 99.6904 103.801 99.6904C103.794 99.6904 103.788 99.6904 103.781 99.6904H103.785ZM90.8062 117.262H87.7441V107.423H90.8062V117.262ZM89.2759 106.077C88.2962 106.077 87.5028 105.283 87.5028 104.304C87.5028 103.325 88.2969 102.53 89.2759 102.53C90.2549 102.53 91.0489 103.324 91.0489 104.303C91.0489 104.304 91.0489 104.304 91.0489 104.306C91.0489 105.284 90.2555 106.077 89.2772 106.077C89.2765 106.077 89.2759 106.077 89.2752 106.077L89.2759 106.077ZM102.257 117.262H99.204V112.477C99.204 111.336 99.1807 109.868 97.6132 109.868C96.0209 109.868 95.7782 111.11 95.7782 112.393V117.262H92.725V107.423H95.6579V108.765H95.6978C96.267 107.806 97.2969 107.173 98.4746 107.173C98.5165 107.173 98.5578 107.174 98.599 107.175H98.5929C101.687 107.175 102.259 109.212 102.259 111.862V117.262L102.257 117.262Z" fill="#A5BFD7"/>
</g>
<g clip-path="url(#clip3_306_304)">
<path d="M125.785 99.6904H108.212C108.207 99.6904 108.201 99.6904 108.194 99.6904C107.369 99.6904 106.701 100.353 106.691 101.175V118.824C106.701 119.646 107.369 120.31 108.194 120.31C108.201 120.31 108.207 120.31 108.214 120.31H125.783C125.788 120.31 125.795 120.31 125.802 120.31C126.627 120.31 127.297 119.648 127.31 118.826V118.824V101.176C127.297 100.353 126.627 99.6904 125.801 99.6904C125.794 99.6904 125.788 99.6904 125.781 99.6904H125.785ZM112.806 117.262H109.744V107.423H112.806V117.262ZM111.276 106.077C110.296 106.077 109.503 105.283 109.503 104.304C109.503 103.325 110.297 102.53 111.276 102.53C112.255 102.53 113.049 103.324 113.049 104.303C113.049 104.304 113.049 104.304 113.049 104.306C113.049 105.284 112.256 106.077 111.277 106.077C111.277 106.077 111.276 106.077 111.275 106.077L111.276 106.077ZM124.257 117.262H121.204V112.477C121.204 111.336 121.181 109.868 119.613 109.868C118.021 109.868 117.778 111.11 117.778 112.393V117.262H114.725V107.423H117.658V108.765H117.698C118.267 107.806 119.297 107.173 120.475 107.173C120.517 107.173 120.558 107.174 120.599 107.175H120.593C123.687 107.175 124.259 109.212 124.259 111.862V117.262L124.257 117.262Z" fill="#393CFF"/>
</g>
<defs>
<clipPath id="clip0_306_304">
<rect width="20" height="20" fill="white" transform="translate(0 100)"/>
</clipPath>
<clipPath id="clip1_306_304">
<rect width="20" height="20" fill="white" transform="translate(20 100)"/>
</clipPath>
<clipPath id="clip2_306_304">
<rect width="22" height="22" fill="white" transform="translate(84 99)"/>
</clipPath>
<clipPath id="clip3_306_304">
<rect width="22" height="22" fill="white" transform="translate(106 99)"/>
</clipPath>
</defs>
</svg>
