<svg width="326" height="24" viewBox="0 0 326 24" fill="none" xmlns="http://www.w3.org/2000/svg">
<path d="M12 22.81C11.31 22.81 10.66 22.46 10.2 21.85L8.7 19.85C8.67 19.81 8.55 19.76 8.5 19.75H8C3.83 19.75 1.25 18.62 1.25 13V8C1.25 3.58 3.58 1.25 8 1.25H16C20.42 1.25 22.75 3.58 22.75 8V13C22.75 17.42 20.42 19.75 16 19.75H15.5C15.42 19.75 15.35 19.79 15.3 19.85L13.8 21.85C13.34 22.46 12.69 22.81 12 22.81ZM8 2.75C4.42 2.75 2.75 4.42 2.75 8V13C2.75 17.52 4.3 18.25 8 18.25H8.5C9.01 18.25 9.59 18.54 9.9 18.95L11.4 20.95C11.75 21.41 12.25 21.41 12.6 20.95L14.1 18.95C14.43 18.51 14.95 18.25 15.5 18.25H16C19.58 18.25 21.25 16.58 21.25 13V8C21.25 4.42 19.58 2.75 16 2.75H8Z" fill="#94A9BD"/>
<path d="M12 12C11.44 12 11 11.55 11 11C11 10.45 11.45 10 12 10C12.55 10 13 10.45 13 11C13 11.55 12.56 12 12 12Z" fill="#94A9BD"/>
<path d="M16 12C15.44 12 15 11.55 15 11C15 10.45 15.45 10 16 10C16.55 10 17 10.45 17 11C17 11.55 16.56 12 16 12Z" fill="#94A9BD"/>
<path d="M8 12C7.44 12 7 11.55 7 11C7 10.45 7.45 10 8 10C8.55 10 9 10.45 9 11C9 11.55 8.56 12 8 12Z" fill="#94A9BD"/>
<path d="M74 22.81C73.31 22.81 72.66 22.46 72.2 21.85L70.7 19.85C70.67 19.81 70.55 19.76 70.5 19.75H70C65.83 19.75 63.25 18.62 63.25 13V8C63.25 3.58 65.58 1.25 70 1.25H78C82.42 1.25 84.75 3.58 84.75 8V13C84.75 17.42 82.42 19.75 78 19.75H77.5C77.42 19.75 77.35 19.79 77.3 19.85L75.8 21.85C75.34 22.46 74.69 22.81 74 22.81ZM70 2.75C66.42 2.75 64.75 4.42 64.75 8V13C64.75 17.52 66.3 18.25 70 18.25H70.5C71.01 18.25 71.59 18.54 71.9 18.95L73.4 20.95C73.75 21.41 74.25 21.41 74.6 20.95L76.1 18.95C76.43 18.51 76.95 18.25 77.5 18.25H78C81.58 18.25 83.25 16.58 83.25 13V8C83.25 4.42 81.58 2.75 78 2.75H70Z" fill="#94A9BD"/>
<path d="M79 8.75H69C68.59 8.75 68.25 8.41 68.25 8C68.25 7.59 68.59 7.25 69 7.25H79C79.41 7.25 79.75 7.59 79.75 8C79.75 8.41 79.41 8.75 79 8.75Z" fill="#94A9BD"/>
<path d="M75 13.75H69C68.59 13.75 68.25 13.41 68.25 13C68.25 12.59 68.59 12.25 69 12.25H75C75.41 12.25 75.75 12.59 75.75 13C75.75 13.41 75.41 13.75 75 13.75Z" fill="#94A9BD"/>
<path d="M140 22.75H127C126.04 22.75 125.25 21.96 125.25 21V8C125.25 3.58 127.58 1.25 132 1.25H140C144.42 1.25 146.75 3.58 146.75 8V16C146.75 20.42 144.42 22.75 140 22.75ZM132 2.75C128.42 2.75 126.75 4.42 126.75 8V21C126.75 21.14 126.86 21.25 127 21.25H140C143.58 21.25 145.25 19.58 145.25 16V8C145.25 4.42 143.58 2.75 140 2.75H132Z" fill="#94A9BD"/>
<path d="M141 10.25H131C130.59 10.25 130.25 9.91 130.25 9.5C130.25 9.09 130.59 8.75 131 8.75H141C141.41 8.75 141.75 9.09 141.75 9.5C141.75 9.91 141.41 10.25 141 10.25Z" fill="#94A9BD"/>
<path d="M138 15.25H131C130.59 15.25 130.25 14.91 130.25 14.5C130.25 14.09 130.59 13.75 131 13.75H138C138.41 13.75 138.75 14.09 138.75 14.5C138.75 14.91 138.41 15.25 138 15.25Z" fill="#94A9BD"/>
<path d="M190 22.81C189.31 22.81 188.66 22.46 188.2 21.85L186.7 19.85C186.67 19.81 186.55 19.76 186.5 19.75H186C181.83 19.75 179.25 18.62 179.25 13V8C179.25 3.58 181.58 1.25 186 1.25H194C198.42 1.25 200.75 3.58 200.75 8V13C200.75 17.42 198.42 19.75 194 19.75H193.5C193.42 19.75 193.35 19.79 193.3 19.85L191.8 21.85C191.34 22.46 190.69 22.81 190 22.81ZM186 2.75C182.42 2.75 180.75 4.42 180.75 8V13C180.75 17.52 182.3 18.25 186 18.25H186.5C187.01 18.25 187.59 18.54 187.9 18.95L189.4 20.95C189.75 21.41 190.25 21.41 190.6 20.95L192.1 18.95C192.43 18.51 192.95 18.25 193.5 18.25H194C197.58 18.25 199.25 16.58 199.25 13V8C199.25 4.42 197.58 2.75 194 2.75H186Z" fill="#393CFF"/>
<path d="M190 12C189.44 12 189 11.55 189 11C189 10.45 189.45 10 190 10C190.55 10 191 10.45 191 11C191 11.55 190.56 12 190 12Z" fill="#393CFF"/>
<path d="M194 12C193.44 12 193 11.55 193 11C193 10.45 193.45 10 194 10C194.55 10 195 10.45 195 11C195 11.55 194.56 12 194 12Z" fill="#393CFF"/>
<path d="M186 12C185.44 12 185 11.55 185 11C185 10.45 185.45 10 186 10C186.55 10 187 10.45 187 11C187 11.55 186.56 12 186 12Z" fill="#393CFF"/>
<path d="M252 22.81C251.31 22.81 250.66 22.46 250.2 21.85L248.7 19.85C248.67 19.81 248.55 19.76 248.5 19.75H248C243.83 19.75 241.25 18.62 241.25 13V8C241.25 3.58 243.58 1.25 248 1.25H256C260.42 1.25 262.75 3.58 262.75 8V13C262.75 17.42 260.42 19.75 256 19.75H255.5C255.42 19.75 255.35 19.79 255.3 19.85L253.8 21.85C253.34 22.46 252.69 22.81 252 22.81ZM248 2.75C244.42 2.75 242.75 4.42 242.75 8V13C242.75 17.52 244.3 18.25 248 18.25H248.5C249.01 18.25 249.59 18.54 249.9 18.95L251.4 20.95C251.75 21.41 252.25 21.41 252.6 20.95L254.1 18.95C254.43 18.51 254.95 18.25 255.5 18.25H256C259.58 18.25 261.25 16.58 261.25 13V8C261.25 4.42 259.58 2.75 256 2.75H248Z" fill="#393CFF"/>
<path d="M257 8.75H247C246.59 8.75 246.25 8.41 246.25 8C246.25 7.59 246.59 7.25 247 7.25H257C257.41 7.25 257.75 7.59 257.75 8C257.75 8.41 257.41 8.75 257 8.75Z" fill="#393CFF"/>
<path d="M253 13.75H247C246.59 13.75 246.25 13.41 246.25 13C246.25 12.59 246.59 12.25 247 12.25H253C253.41 12.25 253.75 12.59 253.75 13C253.75 13.41 253.41 13.75 253 13.75Z" fill="#393CFF"/>
<path d="M318 22.75H305C304.04 22.75 303.25 21.96 303.25 21V8C303.25 3.58 305.58 1.25 310 1.25H318C322.42 1.25 324.75 3.58 324.75 8V16C324.75 20.42 322.42 22.75 318 22.75ZM310 2.75C306.42 2.75 304.75 4.42 304.75 8V21C304.75 21.14 304.86 21.25 305 21.25H318C321.58 21.25 323.25 19.58 323.25 16V8C323.25 4.42 321.58 2.75 318 2.75H310Z" fill="#393CFF"/>
<path d="M319 10.25H309C308.59 10.25 308.25 9.91 308.25 9.5C308.25 9.09 308.59 8.75 309 8.75H319C319.41 8.75 319.75 9.09 319.75 9.5C319.75 9.91 319.41 10.25 319 10.25Z" fill="#393CFF"/>
<path d="M316 15.25H309C308.59 15.25 308.25 14.91 308.25 14.5C308.25 14.09 308.59 13.75 309 13.75H316C316.41 13.75 316.75 14.09 316.75 14.5C316.75 14.91 316.41 15.25 316 15.25Z" fill="#393CFF"/>
</svg>
