<svg width="281" height="25" viewBox="0 0 281 25" fill="none" xmlns="http://www.w3.org/2000/svg">
<path fill-rule="evenodd" clip-rule="evenodd" d="M2.75 16.0006V18.5006V18.7006C2.75 18.727 2.75141 18.753 2.75415 18.7787C2.8589 22.2571 4.94375 24.2506 8.5 24.2506L10 24.2506H18.5C22.15 24.2506 24.25 22.1506 24.25 18.5006V12.5006L24.25 12.4946V12.3006C24.25 12.2742 24.2486 12.2481 24.2459 12.2224C24.1688 9.66256 23.0192 7.9069 21 7.1582V8.78312C22.1726 9.42646 22.7488 10.6566 22.75 12.4949L22.75 12.5006V18.5006C22.75 21.3606 21.36 22.7506 18.5 22.7506H10L9.99845 22.7506H8.5C5.64097 22.7506 4.25094 21.3615 4.25 18.5035V16.0006H2.75Z" fill="#767C99"/>
<path d="M10.75 12.0005C8.96 12.0005 7.5 10.5405 7.5 8.75049C7.5 6.96049 8.96 5.50049 10.75 5.50049C12.54 5.50049 14 6.96049 14 8.75049C14 10.5405 12.54 12.0005 10.75 12.0005ZM10.75 7.00049C9.79 7.00049 9 7.79049 9 8.75049C9 9.71049 9.79 10.5005 10.75 10.5005C11.71 10.5005 12.5 9.71049 12.5 8.75049C12.5 7.79049 11.71 7.00049 10.75 7.00049Z" fill="#767C99"/>
<path d="M4.5 12.0005C4.09 12.0005 3.75 11.6605 3.75 11.2505V6.25049C3.75 5.84049 4.09 5.50049 4.5 5.50049C4.91 5.50049 5.25 5.84049 5.25 6.25049V11.2505C5.25 11.6605 4.91 12.0005 4.5 12.0005Z" fill="#767C99"/>
<path d="M17.25 12.0005C16.84 12.0005 16.5 11.6605 16.5 11.2505V6.25049C16.5 5.84049 16.84 5.50049 17.25 5.50049C17.66 5.50049 18 5.84049 18 6.25049V11.2505C18 11.6605 17.66 12.0005 17.25 12.0005Z" fill="#767C99"/>
<path d="M5.75 0.000489658L14.25 0.000488915C14.66 0.000488879 15 0.340489 15 0.750489C15 1.16049 14.66 1.50049 14.25 1.50049L5.75 1.50049C2.89 1.50049 1.5 2.89049 1.5 5.75049L1.5 11.7505C1.5 14.6105 2.89 16.0005 5.75 16.0005L15.75 16.0005C18.61 16.0005 20 14.6105 20 11.7505L20 5.55048C20 5.14048 20.34 4.80048 20.75 4.80048C21.16 4.80048 21.5 5.14048 21.5 5.55048L21.5 11.7505C21.5 15.4005 19.4 17.5005 15.75 17.5005L5.75 17.5005C2.1 17.5005 -1.83588e-07 15.4005 -5.02681e-07 11.7505L-1.02722e-06 5.75049C-1.34631e-06 2.10049 2.1 0.000489977 5.75 0.000489658Z" fill="#767C99"/>
<path d="M15.75 17.5005H7.25C6.84 17.5005 6.5 17.1605 6.5 16.7505C6.5 16.3405 6.84 16.0005 7.25 16.0005H15.75C18.61 16.0005 20 14.6105 20 11.7505V5.75049C20 2.89049 18.61 1.50049 15.75 1.50049H5.75C2.89 1.50049 1.5 2.89049 1.5 5.75049V11.9505C1.5 12.3605 1.16 12.7005 0.75 12.7005C0.34 12.7005 0 12.3605 0 11.9505V5.75049C0 2.10049 2.1 0.000488281 5.75 0.000488281H15.75C19.4 0.000488281 21.5 2.10049 21.5 5.75049V11.7505C21.5 15.4005 19.4 17.5005 15.75 17.5005Z" fill="#767C99"/>
<path d="M55 22.75H49C43.57 22.75 41.25 20.43 41.25 15V9C41.25 3.57 43.57 1.25 49 1.25H55C60.43 1.25 62.75 3.57 62.75 9V15C62.75 20.43 60.43 22.75 55 22.75ZM49 2.75C44.39 2.75 42.75 4.39 42.75 9V15C42.75 19.61 44.39 21.25 49 21.25H55C59.61 21.25 61.25 19.61 61.25 15V9C61.25 4.39 59.61 2.75 55 2.75H49Z" fill="#767C99"/>
<path d="M48.5698 16.0201C48.3798 16.0201 48.1898 15.9501 48.0398 15.8001C47.7498 15.5101 47.7498 15.0301 48.0398 14.7401L54.5898 8.19016C54.8798 7.90016 55.3598 7.90016 55.6498 8.19016C55.9398 8.48016 55.9398 8.96015 55.6498 9.25015L49.0998 15.8001C48.9498 15.9501 48.7598 16.0201 48.5698 16.0201Z" fill="#767C99"/>
<path d="M48.98 11.1099C47.89 11.1099 47 10.2199 47 9.12991C47 8.03991 47.89 7.1499 48.98 7.1499C50.07 7.1499 50.96 8.03991 50.96 9.12991C50.96 10.2199 50.07 11.1099 48.98 11.1099ZM48.98 8.65991C48.72 8.65991 48.5 8.86992 48.5 9.13992C48.5 9.40992 48.71 9.6199 48.98 9.6199C49.25 9.6199 49.46 9.40992 49.46 9.13992C49.46 8.86992 49.24 8.65991 48.98 8.65991Z" fill="#767C99"/>
<path d="M55.52 16.8399C54.43 16.8399 53.54 15.9499 53.54 14.8599C53.54 13.7699 54.43 12.8799 55.52 12.8799C56.61 12.8799 57.5 13.7699 57.5 14.8599C57.5 15.9499 56.61 16.8399 55.52 16.8399ZM55.52 14.3899C55.26 14.3899 55.04 14.5999 55.04 14.8699C55.04 15.1399 55.25 15.3499 55.52 15.3499C55.79 15.3499 56 15.1399 56 14.8699C56 14.5999 55.79 14.3899 55.52 14.3899Z" fill="#767C99"/>
<path d="M97 15.25C95.21 15.25 93.75 13.79 93.75 12C93.75 10.21 95.21 8.75 97 8.75C98.79 8.75 100.25 10.21 100.25 12C100.25 13.79 98.79 15.25 97 15.25ZM97 10.25C96.04 10.25 95.25 11.04 95.25 12C95.25 12.96 96.04 13.75 97 13.75C97.96 13.75 98.75 12.96 98.75 12C98.75 11.04 97.96 10.25 97 10.25Z" fill="#767C99"/>
<path d="M103.5 15.25C103.09 15.25 102.75 14.91 102.75 14.5V9.5C102.75 9.09 103.09 8.75 103.5 8.75C103.91 8.75 104.25 9.09 104.25 9.5V14.5C104.25 14.91 103.91 15.25 103.5 15.25Z" fill="#767C99"/>
<path d="M90 22.75C87.38 22.75 85.25 20.62 85.25 18C85.25 15.38 87.38 13.25 90 13.25C92.62 13.25 94.75 15.38 94.75 18C94.75 20.62 92.62 22.75 90 22.75ZM90 14.75C88.21 14.75 86.75 16.21 86.75 18C86.75 19.79 88.21 21.25 90 21.25C91.79 21.25 93.25 19.79 93.25 18C93.25 16.21 91.79 14.75 90 14.75Z" fill="#767C99"/>
<path d="M88.9999 19.7498C88.7499 19.7498 88.4999 19.6198 88.3599 19.3898C88.1499 19.0398 88.2599 18.5697 88.6199 18.3597L89.3799 17.8998C89.4499 17.8598 89.4999 17.7698 89.4999 17.6898V16.7598C89.4999 16.3498 89.8399 16.0098 90.2499 16.0098C90.6599 16.0098 90.9999 16.3498 90.9999 16.7598V17.6898C90.9999 18.2998 90.6699 18.8798 90.1499 19.1898L89.3899 19.6498C89.2699 19.7198 89.1299 19.7498 88.9999 19.7498Z" fill="#767C99"/>
<path d="M102 20.75H93.5C93.09 20.75 92.75 20.41 92.75 20C92.75 19.59 93.09 19.25 93.5 19.25H102C104.86 19.25 106.25 17.86 106.25 15V9C106.25 6.14 104.86 4.75 102 4.75H92C89.14 4.75 87.75 6.14 87.75 9V15.2C87.75 15.61 87.41 15.95 87 15.95C86.59 15.95 86.25 15.61 86.25 15.2V9C86.25 5.35 88.35 3.25 92 3.25H102C105.65 3.25 107.75 5.35 107.75 9V15C107.75 18.65 105.65 20.75 102 20.75Z" fill="#767C99"/>
<path d="M137 15.25C135.21 15.25 133.75 13.79 133.75 12C133.75 10.21 135.21 8.75 137 8.75C138.79 8.75 140.25 10.21 140.25 12C140.25 13.79 138.79 15.25 137 15.25ZM137 10.25C136.04 10.25 135.25 11.04 135.25 12C135.25 12.96 136.04 13.75 137 13.75C137.96 13.75 138.75 12.96 138.75 12C138.75 11.04 137.96 10.25 137 10.25Z" fill="#767C99"/>
<path d="M143.5 15.25C143.09 15.25 142.75 14.91 142.75 14.5V9.5C142.75 9.09 143.09 8.75 143.5 8.75C143.91 8.75 144.25 9.09 144.25 9.5V14.5C144.25 14.91 143.91 15.25 143.5 15.25Z" fill="#767C99"/>
<path d="M142 20.75H133.5C133.09 20.75 132.75 20.41 132.75 20C132.75 19.59 133.09 19.25 133.5 19.25H142C144.86 19.25 146.25 17.86 146.25 15V9C146.25 6.14 144.86 4.75 142 4.75H132C129.14 4.75 127.75 6.14 127.75 9V15.2C127.75 15.61 127.41 15.95 127 15.95C126.59 15.95 126.25 15.61 126.25 15.2V9C126.25 5.35 128.35 3.25 132 3.25H142C145.65 3.25 147.75 5.35 147.75 9V15C147.75 18.65 145.65 20.75 142 20.75Z" fill="#767C99"/>
<rect x="125.75" y="15.75" width="7.5" height="7.5" rx="1.25" stroke="#767C99" stroke-width="1.5"/>
<rect x="127" y="17" width="2" height="2" rx="1" fill="#767C99"/>
<rect x="127" y="20" width="2" height="2" rx="1" fill="#767C99"/>
<rect x="130" y="17" width="2" height="2" rx="1" fill="#767C99"/>
<rect x="130" y="20" width="2" height="2" rx="1" fill="#767C99"/>
<path d="M175 20.75H170C169.59 20.75 169.25 20.41 169.25 20C169.25 19.59 169.59 19.25 170 19.25H175C177.86 19.25 179.25 17.86 179.25 15V9C179.25 6.14 177.86 4.75 175 4.75H165C162.14 4.75 160.75 6.14 160.75 9V11C160.75 11.41 160.41 11.75 160 11.75C159.59 11.75 159.25 11.41 159.25 11V9C159.25 5.35 161.35 3.25 165 3.25H175C178.65 3.25 180.75 5.35 180.75 9V15C180.75 18.65 178.65 20.75 175 20.75Z" fill="#767C99"/>
<path d="M170 15.25C168.21 15.25 166.75 13.79 166.75 12C166.75 10.21 168.21 8.75 170 8.75C171.79 8.75 173.25 10.21 173.25 12C173.25 13.79 171.79 15.25 170 15.25ZM170 10.25C169.04 10.25 168.25 11.04 168.25 12C168.25 12.96 169.04 13.75 170 13.75C170.96 13.75 171.75 12.96 171.75 12C171.75 11.04 170.96 10.25 170 10.25Z" fill="#767C99"/>
<path d="M176.5 15.25C176.09 15.25 175.75 14.91 175.75 14.5V9.5C175.75 9.09 176.09 8.75 176.5 8.75C176.91 8.75 177.25 9.09 177.25 9.5V14.5C177.25 14.91 176.91 15.25 176.5 15.25Z" fill="#767C99"/>
<path d="M166.5 18.69C166.09 18.69 165.75 18.35 165.75 17.94V16.66C165.75 16.44 165.57 16.25 165.34 16.25H160C159.59 16.25 159.25 15.91 159.25 15.5C159.25 15.09 159.59 14.75 160 14.75H165.34C166.39 14.75 167.25 15.61 167.25 16.66V17.94C167.25 18.35 166.91 18.69 166.5 18.69Z" fill="#767C99"/>
<path d="M161.219 17.4697C161.029 17.4697 160.839 17.3997 160.689 17.2497L159.469 16.0298C159.179 15.7398 159.179 15.2597 159.469 14.9697L160.689 13.7497C160.979 13.4597 161.459 13.4597 161.749 13.7497C162.039 14.0397 162.039 14.5197 161.749 14.8097L161.059 15.4997L161.749 16.1897C162.039 16.4797 162.039 16.9597 161.749 17.2497C161.599 17.3997 161.409 17.4697 161.219 17.4697Z" fill="#767C99"/>
<path d="M166.5 21.5298H161.16C160.11 21.5298 159.25 20.6698 159.25 19.6198V18.3398C159.25 17.9298 159.59 17.5898 160 17.5898C160.41 17.5898 160.75 17.9298 160.75 18.3398V19.6198C160.75 19.8398 160.93 20.0298 161.16 20.0298H166.5C166.91 20.0298 167.25 20.3698 167.25 20.7798C167.25 21.1898 166.91 21.5298 166.5 21.5298Z" fill="#767C99"/>
<path d="M165.28 22.75C165.09 22.75 164.9 22.68 164.75 22.53C164.46 22.24 164.46 21.7599 164.75 21.4699L165.44 20.78L164.75 20.09C164.46 19.8 164.46 19.32 164.75 19.03C165.04 18.74 165.52 18.74 165.81 19.03L167.03 20.25C167.32 20.54 167.32 21.02 167.03 21.31L165.81 22.53C165.67 22.68 165.47 22.75 165.28 22.75Z" fill="#767C99"/>
<path d="M206 22.75H200C194.57 22.75 192.25 20.43 192.25 15V9C192.25 3.57 194.57 1.25 200 1.25H206C211.43 1.25 213.75 3.57 213.75 9V15C213.75 20.43 211.43 22.75 206 22.75ZM200 2.75C195.39 2.75 193.75 4.39 193.75 9V15C193.75 19.61 195.39 21.25 200 21.25H206C210.61 21.25 212.25 19.61 212.25 15V9C212.25 4.39 210.61 2.75 206 2.75H200Z" fill="#767C99"/>
<path d="M207 19.75H199C196.58 19.75 195.25 18.42 195.25 16V8C195.25 5.58 196.58 4.25 199 4.25H207C209.42 4.25 210.75 5.58 210.75 8V16C210.75 18.42 209.42 19.75 207 19.75ZM199 5.75C197.42 5.75 196.75 6.42 196.75 8V16C196.75 17.58 197.42 18.25 199 18.25H207C208.58 18.25 209.25 17.58 209.25 16V8C209.25 6.42 208.58 5.75 207 5.75H199Z" fill="#767C99"/>
<path d="M198.48 15.25H196C195.59 15.25 195.25 14.91 195.25 14.5C195.25 14.09 195.59 13.75 196 13.75H198.48C199.45 13.75 200.23 12.96 200.23 12C200.23 11.04 199.44 10.25 198.48 10.25H196C195.59 10.25 195.25 9.91 195.25 9.5C195.25 9.09 195.59 8.75 196 8.75H198.48C200.27 8.75 201.73 10.21 201.73 12C201.73 13.79 200.28 15.25 198.48 15.25Z" fill="#767C99"/>
<path d="M210 10.7402H207C206.59 10.7402 206.25 10.4002 206.25 9.99023C206.25 9.58023 206.59 9.24023 207 9.24023H210C210.41 9.24023 210.75 9.58023 210.75 9.99023C210.75 10.4002 210.41 10.7402 210 10.7402Z" fill="#767C99"/>
<path d="M210 14.75H207C206.59 14.75 206.25 14.41 206.25 14C206.25 13.59 206.59 13.25 207 13.25H210C210.41 13.25 210.75 13.59 210.75 14C210.75 14.41 210.41 14.75 210 14.75Z" fill="#767C99"/>
<path d="M198.25 13.0001C198.12 13.0001 197.99 12.9701 197.87 12.9201C197.75 12.8701 197.64 12.8001 197.54 12.7101C197.35 12.5201 197.25 12.2701 197.25 12.0001C197.25 11.7401 197.36 11.4801 197.54 11.2901C197.82 11.0201 198.26 10.9201 198.63 11.0801C198.76 11.1301 198.87 11.2001 198.96 11.2901C199.14 11.4801 199.25 11.7401 199.25 12.0001C199.25 12.2701 199.15 12.5201 198.96 12.7101C198.86 12.8001 198.75 12.8701 198.63 12.9201C198.51 12.9701 198.38 13.0001 198.25 13.0001Z" fill="#767C99"/>
<path d="M233.17 22.7501C230.79 22.7501 228.84 21.0201 228.84 18.8901V16.8501C228.84 16.4401 229.18 16.1001 229.59 16.1001C230 16.1001 230.34 16.4401 230.34 16.8501C230.34 18.1001 231.55 19.0401 233.17 19.0401C234.79 19.0401 236 18.1001 236 16.8501C236 16.4401 236.34 16.1001 236.75 16.1001C237.16 16.1001 237.5 16.4401 237.5 16.8501V18.8901C237.5 21.0201 235.56 22.7501 233.17 22.7501ZM230.6 19.8701C231.04 20.6901 232.03 21.2501 233.17 21.2501C234.31 21.2501 235.3 20.6801 235.74 19.8701C235.03 20.3001 234.15 20.5501 233.17 20.5501C232.19 20.5501 231.31 20.3001 230.6 19.8701Z" fill="#767C99"/>
<path d="M233.17 17.7999C231.53 17.7999 230.06 17.0499 229.33 15.8599C229.01 15.3399 228.84 14.7299 228.84 14.1099C228.84 13.0599 229.3 12.0799 230.14 11.3499C231.76 9.92992 234.55 9.92997 236.18 11.34C237.02 12.08 237.49 13.0599 237.49 14.1099C237.49 14.7299 237.32 15.3399 237 15.8599C236.28 17.0499 234.81 17.7999 233.17 17.7999ZM233.17 11.7499C232.39 11.7499 231.67 12.0099 231.13 12.4799C230.62 12.9199 230.34 13.4999 230.34 14.1099C230.34 14.4599 230.43 14.78 230.61 15.08C231.07 15.84 232.05 16.3099 233.17 16.3099C234.29 16.3099 235.27 15.84 235.72 15.09C235.9 14.8 235.99 14.4699 235.99 14.1199C235.99 13.5099 235.71 12.9299 235.2 12.4799C234.67 12.0099 233.95 11.7499 233.17 11.7499Z" fill="#767C99"/>
<path d="M233.17 20.55C230.7 20.55 228.84 18.96 228.84 16.86V14.11C228.84 11.98 230.78 10.25 233.17 10.25C234.3 10.25 235.38 10.64 236.19 11.34C237.03 12.08 237.5 13.06 237.5 14.11V16.86C237.5 18.96 235.64 20.55 233.17 20.55ZM233.17 11.75C231.61 11.75 230.34 12.81 230.34 14.11V16.86C230.34 18.11 231.55 19.05 233.17 19.05C234.79 19.05 236 18.11 236 16.86V14.11C236 13.5 235.72 12.92 235.21 12.47C234.67 12.01 233.95 11.75 233.17 11.75Z" fill="#767C99"/>
<path d="M245.04 14.8002C243.53 14.8002 242.25 13.6802 242.13 12.2402C242.05 11.4102 242.35 10.6002 242.95 10.0102C243.45 9.49019 244.16 9.2002 244.91 9.2002H247C247.99 9.2302 248.75 10.0102 248.75 10.9702V13.0302C248.75 13.9902 247.99 14.7702 247.03 14.8002H245.04ZM246.97 10.7002H244.92C244.57 10.7002 244.25 10.8302 244.02 11.0702C243.73 11.3502 243.59 11.7302 243.63 12.1102C243.68 12.7702 244.32 13.3002 245.04 13.3002H247C247.13 13.3002 247.25 13.1802 247.25 13.0302V10.9702C247.25 10.8202 247.13 10.7102 246.97 10.7002Z" fill="#767C99"/>
<path d="M242 21.25H239.5C239.09 21.25 238.75 20.91 238.75 20.5C238.75 20.09 239.09 19.75 239.5 19.75H242C244.58 19.75 246.25 18.08 246.25 15.5V14.8H245.04C243.53 14.8 242.25 13.68 242.13 12.24C242.05 11.41 242.35 10.6 242.95 10.01C243.45 9.49001 244.16 9.20001 244.91 9.20001H246.24V8.5C246.24 6.16 244.87 4.54998 242.65 4.28998C242.41 4.24998 242.2 4.25 241.99 4.25H232.99C232.75 4.25 232.52 4.26999 232.29 4.29999C230.09 4.57999 228.74 6.18 228.74 8.5V10.5C228.74 10.91 228.4 11.25 227.99 11.25C227.58 11.25 227.24 10.91 227.24 10.5V8.5C227.24 5.42 229.14 3.19001 232.09 2.82001C232.36 2.78001 232.67 2.75 232.99 2.75H241.99C242.23 2.75 242.54 2.76 242.86 2.81C245.81 3.15 247.74 5.39 247.74 8.5V9.95001C247.74 10.36 247.4 10.7 246.99 10.7H244.91C244.56 10.7 244.24 10.83 244.01 11.07C243.72 11.35 243.58 11.73 243.62 12.11C243.67 12.77 244.31 13.3 245.03 13.3H247C247.41 13.3 247.75 13.64 247.75 14.05V15.5C247.75 18.94 245.44 21.25 242 21.25Z" fill="#767C99"/>
<path d="M265 5.75C264.59 5.75 264.25 5.41 264.25 5V2C264.25 1.59 264.59 1.25 265 1.25C265.41 1.25 265.75 1.59 265.75 2V5C265.75 5.41 265.41 5.75 265 5.75Z" fill="#767C99"/>
<path d="M273 5.75C272.59 5.75 272.25 5.41 272.25 5V2C272.25 1.59 272.59 1.25 273 1.25C273.41 1.25 273.75 1.59 273.75 2V5C273.75 5.41 273.41 5.75 273 5.75Z" fill="#767C99"/>
<path d="M265.5 14.4998C265.37 14.4998 265.24 14.4698 265.12 14.4198C264.99 14.3698 264.89 14.2998 264.79 14.2098C264.61 14.0198 264.5 13.7698 264.5 13.4998C264.5 13.3698 264.53 13.2398 264.58 13.1198C264.63 12.9998 264.7 12.8898 264.79 12.7898C264.89 12.6998 264.99 12.6298 265.12 12.5798C265.48 12.4298 265.93 12.5098 266.21 12.7898C266.39 12.9798 266.5 13.2398 266.5 13.4998C266.5 13.5598 266.49 13.6298 266.48 13.6998C266.47 13.7598 266.45 13.8198 266.42 13.8798C266.4 13.9398 266.37 13.9998 266.33 14.0598C266.3 14.1098 266.25 14.1598 266.21 14.2098C266.02 14.3898 265.76 14.4998 265.5 14.4998Z" fill="#767C99"/>
<path d="M269 14.4999C268.87 14.4999 268.74 14.4699 268.62 14.4199C268.49 14.3699 268.39 14.2999 268.29 14.2099C268.11 14.0199 268 13.7699 268 13.4999C268 13.3699 268.03 13.2399 268.08 13.1199C268.13 12.9999 268.2 12.8899 268.29 12.7899C268.39 12.6999 268.49 12.6299 268.62 12.5799C268.98 12.4199 269.43 12.5099 269.71 12.7899C269.89 12.9799 270 13.2399 270 13.4999C270 13.5599 269.99 13.6299 269.98 13.6999C269.97 13.7599 269.95 13.8199 269.92 13.8799C269.9 13.9399 269.87 13.9999 269.83 14.0599C269.8 14.1099 269.75 14.1599 269.71 14.2099C269.52 14.3899 269.26 14.4999 269 14.4999Z" fill="#767C99"/>
<path d="M272.5 14.4999C272.37 14.4999 272.24 14.4699 272.12 14.4199C271.99 14.3699 271.89 14.2999 271.79 14.2099C271.75 14.1599 271.71 14.1099 271.67 14.0599C271.63 13.9999 271.6 13.9399 271.58 13.8799C271.55 13.8199 271.53 13.7599 271.52 13.6999C271.51 13.6299 271.5 13.5599 271.5 13.4999C271.5 13.2399 271.61 12.9799 271.79 12.7899C271.89 12.6999 271.99 12.6299 272.12 12.5799C272.49 12.4199 272.93 12.5099 273.21 12.7899C273.39 12.9799 273.5 13.2399 273.5 13.4999C273.5 13.5599 273.49 13.6299 273.48 13.6999C273.47 13.7599 273.45 13.8199 273.42 13.8799C273.4 13.9399 273.37 13.9999 273.33 14.0599C273.3 14.1099 273.25 14.1599 273.21 14.2099C273.02 14.3899 272.76 14.4999 272.5 14.4999Z" fill="#767C99"/>
<path d="M265.5 18.0002C265.37 18.0002 265.24 17.9702 265.12 17.9202C265 17.8702 264.89 17.8002 264.79 17.7102C264.61 17.5202 264.5 17.2602 264.5 17.0002C264.5 16.8702 264.53 16.7402 264.58 16.6202C264.63 16.4902 264.7 16.3802 264.79 16.2902C265.16 15.9202 265.84 15.9202 266.21 16.2902C266.39 16.4802 266.5 16.7402 266.5 17.0002C266.5 17.2602 266.39 17.5202 266.21 17.7102C266.02 17.8902 265.76 18.0002 265.5 18.0002Z" fill="#767C99"/>
<path d="M269 18.0002C268.74 18.0002 268.48 17.8902 268.29 17.7102C268.11 17.5202 268 17.2602 268 17.0002C268 16.8702 268.03 16.7402 268.08 16.6202C268.13 16.4902 268.2 16.3802 268.29 16.2902C268.66 15.9202 269.34 15.9202 269.71 16.2902C269.8 16.3802 269.87 16.4902 269.92 16.6202C269.97 16.7402 270 16.8702 270 17.0002C270 17.2602 269.89 17.5202 269.71 17.7102C269.52 17.8902 269.26 18.0002 269 18.0002Z" fill="#767C99"/>
<path d="M272.5 17.9999C272.24 17.9999 271.98 17.8899 271.79 17.7099C271.7 17.6199 271.63 17.5099 271.58 17.3799C271.53 17.2599 271.5 17.1299 271.5 16.9999C271.5 16.8699 271.53 16.7399 271.58 16.6199C271.63 16.4899 271.7 16.3799 271.79 16.2899C272.02 16.0599 272.37 15.9499 272.69 16.0199C272.76 16.0299 272.82 16.0499 272.88 16.0799C272.94 16.0999 273 16.1299 273.06 16.1699C273.11 16.1999 273.16 16.2499 273.21 16.2899C273.39 16.4799 273.5 16.7399 273.5 16.9999C273.5 17.2599 273.39 17.5199 273.21 17.7099C273.02 17.8899 272.76 17.9999 272.5 17.9999Z" fill="#767C99"/>
<path d="M277.5 9.83984H260.5C260.09 9.83984 259.75 9.49984 259.75 9.08984C259.75 8.67984 260.09 8.33984 260.5 8.33984H277.5C277.91 8.33984 278.25 8.67984 278.25 9.08984C278.25 9.49984 277.91 9.83984 277.5 9.83984Z" fill="#767C99"/>
<path d="M273 22.75H265C261.35 22.75 259.25 20.65 259.25 17V8.5C259.25 4.85 261.35 2.75 265 2.75H273C276.65 2.75 278.75 4.85 278.75 8.5V17C278.75 20.65 276.65 22.75 273 22.75ZM265 4.25C262.14 4.25 260.75 5.64 260.75 8.5V17C260.75 19.86 262.14 21.25 265 21.25H273C275.86 21.25 277.25 19.86 277.25 17V8.5C277.25 5.64 275.86 4.25 273 4.25H265Z" fill="#767C99"/>
</svg>
