<svg width="735" height="26" viewBox="0 0 735 26" fill="none" xmlns="http://www.w3.org/2000/svg">
<path d="M12 23.75C6.07 23.75 1.25 18.93 1.25 13C1.25 7.07 6.07 2.25 12 2.25C17.93 2.25 22.75 7.07 22.75 13C22.75 18.93 17.93 23.75 12 23.75ZM12 3.75C6.9 3.75 2.75 7.9 2.75 13C2.75 18.1 6.9 22.25 12 22.25C17.1 22.25 21.25 18.1 21.25 13C21.25 7.9 17.1 3.75 12 3.75Z" fill="#657D94"/>
<path d="M15.7101 16.9298C15.5801 16.9298 15.4501 16.8998 15.3301 16.8198L12.2301 14.9698C11.4601 14.5098 10.8901 13.4998 10.8901 12.6098V8.50977C10.8901 8.09977 11.2301 7.75977 11.6401 7.75977C12.0501 7.75977 12.3901 8.09977 12.3901 8.50977V12.6098C12.3901 12.9698 12.6901 13.4998 13.0001 13.6798L16.1001 15.5298C16.4601 15.7398 16.5701 16.1998 16.3601 16.5598C16.2101 16.7998 15.9601 16.9298 15.7101 16.9298Z" fill="#657D94"/>
<path d="M92.5002 15.75H90.0002C89.5902 15.75 89.2502 15.41 89.2502 15C89.2502 14.59 89.5902 14.25 90.0002 14.25H92.5002C95.1202 14.25 97.2502 12.12 97.2502 9.5C97.2502 6.88 95.1202 4.75 92.5002 4.75H87.5002C84.8802 4.75 82.7502 6.88 82.7502 9.5C82.7502 10.6 83.1402 11.67 83.8402 12.52C84.1002 12.84 84.0602 13.31 83.7402 13.58C83.4202 13.84 82.9502 13.8 82.6802 13.48C81.7502 12.36 81.2402 10.95 81.2402 9.5C81.2402 6.05 84.0402 3.25 87.4902 3.25H92.4902C95.9402 3.25 98.7402 6.05 98.7402 9.5C98.7402 12.95 95.9502 15.75 92.5002 15.75Z" fill="#657D94"/>
<path d="M96.5 22.75H91.5C88.05 22.75 85.25 19.95 85.25 16.5C85.25 13.05 88.05 10.25 91.5 10.25H94C94.41 10.25 94.75 10.59 94.75 11C94.75 11.41 94.41 11.75 94 11.75H91.5C88.88 11.75 86.75 13.88 86.75 16.5C86.75 19.12 88.88 21.25 91.5 21.25H96.5C99.12 21.25 101.25 19.12 101.25 16.5C101.25 15.4 100.86 14.33 100.16 13.48C99.9 13.16 99.94 12.69 100.26 12.42C100.58 12.15 101.05 12.2 101.32 12.52C102.25 13.64 102.76 15.05 102.76 16.5C102.75 19.95 99.95 22.75 96.5 22.75Z" fill="#657D94"/>
<path d="M171.4 23.75H167.6C163.21 23.75 161.25 21.79 161.25 17.4V13.6C161.25 9.21 163.21 7.25 167.6 7.25H170.6C171.01 7.25 171.35 7.59 171.35 8C171.35 8.41 171.01 8.75 170.6 8.75H167.6C164.02 8.75 162.75 10.02 162.75 13.6V17.4C162.75 20.98 164.02 22.25 167.6 22.25H171.4C174.98 22.25 176.25 20.98 176.25 17.4V14.4C176.25 13.99 176.59 13.65 177 13.65C177.41 13.65 177.75 13.99 177.75 14.4V17.4C177.75 21.79 175.79 23.75 171.4 23.75Z" fill="#657D94"/>
<path d="M177 15.15H173.8C170.99 15.15 169.85 14.01 169.85 11.2V7.99999C169.85 7.69999 170.03 7.41999 170.31 7.30999C170.59 7.18999 170.91 7.25999 171.13 7.46999L177.53 13.87C177.74 14.08 177.81 14.41 177.69 14.69C177.58 14.97 177.3 15.15 177 15.15ZM171.35 9.80999V11.2C171.35 13.19 171.81 13.65 173.8 13.65H175.19L171.35 9.80999Z" fill="#657D94"/>
<path d="M175.6 3.75H171.6C171.19 3.75 170.85 3.41 170.85 3C170.85 2.59 171.19 2.25 171.6 2.25H175.6C176.01 2.25 176.35 2.59 176.35 3C176.35 3.41 176.01 3.75 175.6 3.75Z" fill="#657D94"/>
<path d="M167 6.75C166.59 6.75 166.25 6.41 166.25 6C166.25 3.93 167.93 2.25 170 2.25H172.62C173.03 2.25 173.37 2.59 173.37 3C173.37 3.41 173.03 3.75 172.62 3.75H170C168.76 3.75 167.75 4.76 167.75 6C167.75 6.41 167.41 6.75 167 6.75Z" fill="#657D94"/>
<path d="M179.19 18.75C178.78 18.75 178.44 18.41 178.44 18C178.44 17.59 178.78 17.25 179.19 17.25C180.33 17.25 181.25 16.32 181.25 15.19V9C181.25 8.59 181.59 8.25 182 8.25C182.41 8.25 182.75 8.59 182.75 9V15.19C182.75 17.15 181.15 18.75 179.19 18.75Z" fill="#657D94"/>
<path d="M182 9.74999H179C176.34 9.74999 175.25 8.65999 175.25 5.99999V2.99999C175.25 2.69999 175.43 2.41999 175.71 2.30999C175.99 2.18999 176.31 2.25999 176.53 2.46999L182.53 8.46999C182.74 8.67999 182.81 9.00999 182.69 9.28999C182.58 9.56999 182.3 9.74999 182 9.74999ZM176.75 4.80999V5.99999C176.75 7.82999 177.17 8.24999 179 8.24999H180.19L176.75 4.80999Z" fill="#657D94"/>
<path d="M250.05 17.2502H248.17C246.84 17.2502 245.75 16.1302 245.75 14.7502C245.75 14.3402 246.09 14.0002 246.5 14.0002C246.91 14.0002 247.25 14.3402 247.25 14.7502C247.25 15.3002 247.66 15.7502 248.17 15.7502H250.05C250.44 15.7502 250.75 15.4002 250.75 14.9702C250.75 14.4302 250.6 14.3502 250.26 14.2302L247.25 13.1802C246.61 12.9602 245.75 12.4902 245.75 11.0202C245.75 9.77023 246.74 8.74023 247.95 8.74023H249.83C251.16 8.74023 252.25 9.86023 252.25 11.2402C252.25 11.6502 251.91 11.9902 251.5 11.9902C251.09 11.9902 250.75 11.6502 250.75 11.2402C250.75 10.6902 250.34 10.2402 249.83 10.2402H247.95C247.56 10.2402 247.25 10.5902 247.25 11.0202C247.25 11.5602 247.4 11.6402 247.74 11.7602L250.75 12.8102C251.39 13.0302 252.25 13.5002 252.25 14.9702C252.25 16.2302 251.26 17.2502 250.05 17.2502Z" fill="#657D94"/>
<path d="M249 18.25C248.59 18.25 248.25 17.91 248.25 17.5V8.5C248.25 8.09 248.59 7.75 249 7.75C249.41 7.75 249.75 8.09 249.75 8.5V17.5C249.75 17.91 249.41 18.25 249 18.25Z" fill="#657D94"/>
<path d="M249 23.75C243.07 23.75 238.25 18.93 238.25 13C238.25 7.07 243.07 2.25 249 2.25C249.41 2.25 249.75 2.59 249.75 3C249.75 3.41 249.41 3.75 249 3.75C243.9 3.75 239.75 7.9 239.75 13C239.75 18.1 243.9 22.25 249 22.25C254.1 22.25 258.25 18.1 258.25 13C258.25 12.59 258.59 12.25 259 12.25C259.41 12.25 259.75 12.59 259.75 13C259.75 18.93 254.93 23.75 249 23.75Z" fill="#657D94"/>
<path d="M258 8.75H254C253.59 8.75 253.25 8.41 253.25 8V4C253.25 3.59 253.59 3.25 254 3.25C254.41 3.25 254.75 3.59 254.75 4V7.25H258C258.41 7.25 258.75 7.59 258.75 8C258.75 8.41 258.41 8.75 258 8.75Z" fill="#657D94"/>
<path d="M254 8.74994C253.81 8.74994 253.62 8.67994 253.47 8.52994C253.18 8.23994 253.18 7.75994 253.47 7.46994L258.47 2.46994C258.76 2.17994 259.24 2.17994 259.53 2.46994C259.82 2.75994 259.82 3.23994 259.53 3.52994L254.53 8.52994C254.38 8.67994 254.19 8.74994 254 8.74994Z" fill="#657D94"/>
<path d="M326 23.75C320.07 23.75 315.25 18.93 315.25 13C315.25 7.07 320.07 2.25 326 2.25C331.93 2.25 336.75 7.07 336.75 13C336.75 18.93 331.93 23.75 326 23.75ZM326 3.75C320.9 3.75 316.75 7.9 316.75 13C316.75 18.1 320.9 22.25 326 22.25C331.1 22.25 335.25 18.1 335.25 13C335.25 7.9 331.1 3.75 326 3.75Z" fill="#657D94"/>
<path d="M328.5 13.75H322.5C322.09 13.75 321.75 13.41 321.75 13C321.75 12.59 322.09 12.25 322.5 12.25H328.5C328.91 12.25 329.25 12.59 329.25 13C329.25 13.41 328.91 13.75 328.5 13.75Z" fill="#657D94"/>
<path d="M326.5 16.7499C326.31 16.7499 326.12 16.6799 325.97 16.5299C325.68 16.2399 325.68 15.7599 325.97 15.4699L328.44 12.9999L325.97 10.5299C325.68 10.2399 325.68 9.75994 325.97 9.46994C326.26 9.17994 326.74 9.17994 327.03 9.46994L330.03 12.4699C330.32 12.7599 330.32 13.2399 330.03 13.5299L327.03 16.5299C326.88 16.6799 326.69 16.7499 326.5 16.7499Z" fill="#657D94"/>
<path d="M428.42 12.75H425C424.59 12.75 424.25 12.41 424.25 12V5.01C424.25 4.27 424.54 3.58 425.06 3.06C425.58 2.54 426.27 2.25 427.01 2.25H427.02C428.27 2.26 429.45 2.75 430.35 3.64C431.25 4.55 431.74 5.75 431.74 7V9.42C431.75 11.41 430.41 12.75 428.42 12.75ZM425.75 11.25H428.42C429.58 11.25 430.25 10.58 430.25 9.42V7C430.25 6.14 429.91 5.32 429.3 4.7C428.69 4.1 427.87 3.76 427.02 3.75C427.02 3.75 427.02 3.75 427.01 3.75C426.68 3.75 426.36 3.88 426.12 4.12C425.88 4.36 425.75 4.67 425.75 5.01V11.25V11.25Z" fill="#657D94"/>
<path d="M418 24.33C417.53 24.33 417.09 24.15 416.76 23.81L415.1 22.14C415.01 22.05 414.87 22.04 414.77 22.12L413.05 23.4C412.52 23.8 411.82 23.87 411.22 23.57C410.62 23.27 410.25 22.67 410.25 22V7C410.25 3.98 411.98 2.25 415 2.25H427C427.41 2.25 427.75 2.59 427.75 3C427.75 3.41 427.41 3.75 427 3.75C426.31 3.75 425.75 4.31 425.75 5V22C425.75 22.67 425.38 23.27 424.78 23.57C424.18 23.87 423.48 23.81 422.95 23.41L421.24 22.13C421.14 22.05 421 22.07 420.92 22.15L419.24 23.83C418.91 24.15 418.47 24.33 418 24.33ZM414.91 20.57C415.37 20.57 415.82 20.74 416.16 21.09L417.82 22.76C417.88 22.82 417.96 22.83 418 22.83C418.04 22.83 418.12 22.82 418.18 22.76L419.86 21.08C420.48 20.46 421.46 20.4 422.15 20.93L423.85 22.2C423.96 22.28 424.06 22.25 424.11 22.22C424.16 22.19 424.25 22.13 424.25 22V5C424.25 4.55 424.36 4.12 424.55 3.75H415C412.78 3.75 411.75 4.78 411.75 7V22C411.75 22.14 411.84 22.2 411.89 22.23C411.95 22.26 412.05 22.28 412.15 22.2L413.86 20.92C414.17 20.69 414.54 20.57 414.91 20.57Z" fill="#657D94"/>
<path d="M421 14.7598H418C417.59 14.7598 417.25 14.4198 417.25 14.0098C417.25 13.5998 417.59 13.2598 418 13.2598H421C421.41 13.2598 421.75 13.5998 421.75 14.0098C421.75 14.4198 421.41 14.7598 421 14.7598Z" fill="#657D94"/>
<path d="M421 10.7598H418C417.59 10.7598 417.25 10.4198 417.25 10.0098C417.25 9.59977 417.59 9.25977 418 9.25977H421C421.41 9.25977 421.75 9.59977 421.75 10.0098C421.75 10.4198 421.41 10.7598 421 10.7598Z" fill="#657D94"/>
<path d="M414.97 11.0098C414.42 11.0098 413.97 10.5598 413.97 10.0098C413.97 9.45977 414.42 9.00977 414.97 9.00977C415.52 9.00977 415.97 9.45977 415.97 10.0098C415.97 10.5598 415.52 11.0098 414.97 11.0098Z" fill="#657D94"/>
<path d="M414.97 15.0098C414.42 15.0098 413.97 14.5598 413.97 14.0098C413.97 13.4598 414.42 13.0098 414.97 13.0098C415.52 13.0098 415.97 13.4598 415.97 14.0098C415.97 14.5598 415.52 15.0098 414.97 15.0098Z" fill="#657D94"/>
<path d="M497 6.75C496.59 6.75 496.25 6.41 496.25 6V3C496.25 2.59 496.59 2.25 497 2.25C497.41 2.25 497.75 2.59 497.75 3V6C497.75 6.41 497.41 6.75 497 6.75Z" fill="#657D94"/>
<path d="M505 6.75C504.59 6.75 504.25 6.41 504.25 6V3C504.25 2.59 504.59 2.25 505 2.25C505.41 2.25 505.75 2.59 505.75 3V6C505.75 6.41 505.41 6.75 505 6.75Z" fill="#657D94"/>
<path d="M497.5 15.4999C497.37 15.4999 497.24 15.4699 497.12 15.4199C496.99 15.3699 496.89 15.2999 496.79 15.2099C496.61 15.0199 496.5 14.7599 496.5 14.4999C496.5 14.2399 496.61 13.9799 496.79 13.7899C496.89 13.6999 497 13.6299 497.12 13.5799C497.36 13.4799 497.64 13.4799 497.88 13.5799C498 13.6299 498.11 13.6999 498.21 13.7899C498.25 13.8399 498.3 13.8899 498.33 13.9399C498.37 13.9999 498.4 14.0599 498.42 14.1199C498.45 14.1799 498.47 14.2399 498.48 14.2999C498.49 14.3699 498.5 14.4399 498.5 14.4999C498.5 14.7599 498.39 15.0199 498.21 15.2099C498.11 15.2999 498 15.3699 497.88 15.4199C497.76 15.4699 497.63 15.4999 497.5 15.4999Z" fill="#657D94"/>
<path d="M501 15.5002C500.87 15.5002 500.74 15.4702 500.62 15.4202C500.49 15.3702 500.39 15.3002 500.29 15.2102C500.11 15.0202 500 14.7602 500 14.5002C500 14.4402 500.01 14.3702 500.02 14.3002C500.03 14.2402 500.05 14.1802 500.08 14.1202C500.1 14.0602 500.13 14.0002 500.17 13.9402C500.21 13.8902 500.25 13.8402 500.29 13.7902C500.66 13.4202 501.33 13.4202 501.71 13.7902C501.75 13.8402 501.79 13.8902 501.83 13.9402C501.87 14.0002 501.9 14.0602 501.92 14.1202C501.95 14.1802 501.97 14.2402 501.98 14.3002C501.99 14.3702 502 14.4402 502 14.5002C502 14.7602 501.89 15.0202 501.71 15.2102C501.52 15.3902 501.27 15.5002 501 15.5002Z" fill="#657D94"/>
<path d="M497.5 18.9999C497.37 18.9999 497.24 18.9699 497.12 18.9199C497 18.8699 496.89 18.7999 496.79 18.7099C496.61 18.5199 496.5 18.2599 496.5 17.9999C496.5 17.9399 496.51 17.8699 496.52 17.8099C496.53 17.7399 496.55 17.6799 496.58 17.6199C496.6 17.5599 496.63 17.4999 496.67 17.4399C496.7 17.3899 496.75 17.3399 496.79 17.2899C496.89 17.1999 497 17.1299 497.12 17.0799C497.36 16.9799 497.64 16.9799 497.88 17.0799C498 17.1299 498.11 17.1999 498.21 17.2899C498.25 17.3399 498.3 17.3899 498.33 17.4399C498.37 17.4999 498.4 17.5599 498.42 17.6199C498.45 17.6799 498.47 17.7399 498.48 17.8099C498.49 17.8699 498.5 17.9399 498.5 17.9999C498.5 18.2599 498.39 18.5199 498.21 18.7099C498.11 18.7999 498 18.8699 497.88 18.9199C497.76 18.9699 497.63 18.9999 497.5 18.9999Z" fill="#657D94"/>
<path d="M509.5 10.8398H492.5C492.09 10.8398 491.75 10.4998 491.75 10.0898C491.75 9.67984 492.09 9.33984 492.5 9.33984H509.5C509.91 9.33984 510.25 9.67984 510.25 10.0898C510.25 10.4998 509.91 10.8398 509.5 10.8398Z" fill="#657D94"/>
<path d="M504.82 23.7801C504.44 23.7801 504.08 23.6401 503.82 23.3801C503.51 23.0701 503.37 22.6201 503.44 22.1501L503.63 20.8001C503.68 20.4501 503.89 20.0301 504.14 19.7801L507.68 16.2401C508.16 15.7601 508.63 15.5101 509.14 15.4601C509.77 15.4001 510.38 15.6601 510.96 16.2401C511.57 16.8501 512.39 18.0901 510.96 19.5201L507.42 23.0601C507.17 23.3101 506.75 23.5201 506.4 23.5701L505.05 23.7601C504.97 23.7701 504.9 23.7801 504.82 23.7801ZM509.31 16.9501C509.3 16.9501 509.29 16.9501 509.28 16.9501C509.14 16.9601 508.95 17.0901 508.74 17.3001L505.2 20.8401C505.17 20.8701 505.12 20.9701 505.12 21.0101L504.94 22.2601L506.19 22.0801C506.23 22.0701 506.33 22.0201 506.36 21.9901L509.9 18.4501C510.34 18.0101 510.4 17.7901 509.9 17.2901C509.74 17.1401 509.51 16.9501 509.31 16.9501Z" fill="#657D94"/>
<path d="M509.92 20.2499C509.85 20.2499 509.78 20.2399 509.72 20.2199C508.4 19.8499 507.35 18.7999 506.98 17.4799C506.87 17.0799 507.1 16.6699 507.5 16.5499C507.9 16.4399 508.31 16.6699 508.43 17.0699C508.66 17.8899 509.31 18.5399 510.13 18.7699C510.53 18.8799 510.76 19.2999 510.65 19.6999C510.55 20.0299 510.25 20.2499 509.92 20.2499Z" fill="#657D94"/>
<path d="M501 23.75H497C493.35 23.75 491.25 21.65 491.25 18V9.5C491.25 5.85 493.35 3.75 497 3.75H505C508.65 3.75 510.75 5.85 510.75 9.5V13C510.75 13.41 510.41 13.75 510 13.75C509.59 13.75 509.25 13.41 509.25 13V9.5C509.25 6.64 507.86 5.25 505 5.25H497C494.14 5.25 492.75 6.64 492.75 9.5V18C492.75 20.86 494.14 22.25 497 22.25H501C501.41 22.25 501.75 22.59 501.75 23C501.75 23.41 501.41 23.75 501 23.75Z" fill="#657D94"/>
<path d="M576 23.6299C575.72 23.6299 575.43 23.56 575.17 23.42C574.6 23.12 574.25 22.5199 574.25 21.8799V20.46C571.23 20.15 569.25 17.9299 569.25 14.7499V6.75C569.25 3.31 571.56 1 575 1H585C588.44 1 590.75 3.31 590.75 6.75V14.7499C590.75 18.1899 588.44 20.4999 585 20.4999H581.23L576.97 23.34C576.68 23.53 576.34 23.6299 576 23.6299ZM575 2.48999C572.42 2.48999 570.75 4.15999 570.75 6.73999V14.7401C570.75 17.3201 572.42 18.9901 575 18.9901C575.41 18.9901 575.75 19.3301 575.75 19.7401V21.8701C575.75 22.0001 575.83 22.06 575.88 22.09C575.93 22.12 576.03 22.15 576.14 22.08L580.59 19.1201C580.71 19.0401 580.86 18.9901 581.01 18.9901H585.01C587.59 18.9901 589.26 17.3201 589.26 14.7401V6.73999C589.26 4.15999 587.59 2.48999 585.01 2.48999H575Z" fill="#657D94"/>
<path d="M580 12.4199C579.59 12.4199 579.25 12.0799 579.25 11.6699V11.46C579.25 10.3 580.1 9.72995 580.42 9.50995C580.79 9.25995 580.91 9.08996 580.91 8.82996C580.91 8.32996 580.5 7.91992 580 7.91992C579.5 7.91992 579.09 8.32996 579.09 8.82996C579.09 9.23996 578.75 9.57996 578.34 9.57996C577.93 9.57996 577.59 9.23996 577.59 8.82996C577.59 7.49996 578.67 6.41992 580 6.41992C581.33 6.41992 582.41 7.49996 582.41 8.82996C582.41 9.96996 581.57 10.5399 581.26 10.7499C580.87 11.0099 580.75 11.18 580.75 11.46V11.6699C580.75 12.0899 580.41 12.4199 580 12.4199Z" fill="#657D94"/>
<path d="M580 14.9102C579.58 14.9102 579.25 14.5702 579.25 14.1602C579.25 13.7502 579.59 13.4102 580 13.4102C580.41 13.4102 580.75 13.7502 580.75 14.1602C580.75 14.5702 580.42 14.9102 580 14.9102Z" fill="#657D94"/>
<path d="M658.917 13.7707C658.742 13.7707 658.568 13.7066 658.431 13.5691C658.165 13.3032 658.165 12.8632 658.431 12.5974L665.947 5.08072C666.213 4.81489 666.653 4.81489 666.919 5.08072C667.185 5.34656 667.185 5.78656 666.919 6.05239L659.402 13.5691C659.265 13.7066 659.091 13.7707 658.917 13.7707Z" fill="#657D94"/>
<path d="M667.167 9.921C666.791 9.921 666.479 9.60933 666.479 9.2335V5.521H662.767C662.391 5.521 662.079 5.20933 662.079 4.8335C662.079 4.45766 662.391 4.146 662.767 4.146H667.167C667.542 4.146 667.854 4.45766 667.854 4.8335V9.2335C667.854 9.60933 667.542 9.921 667.167 9.921Z" fill="#657D94"/>
<path d="M660.75 23.8543H655.25C650.273 23.8543 648.146 21.7277 648.146 16.7502V11.2502C648.146 6.27266 650.273 4.146 655.25 4.146H657.083C657.459 4.146 657.771 4.45766 657.771 4.8335C657.771 5.20933 657.459 5.521 657.083 5.521H655.25C651.024 5.521 649.521 7.02433 649.521 11.2502V16.7502C649.521 20.976 651.024 22.4793 655.25 22.4793H660.75C664.976 22.4793 666.479 20.976 666.479 16.7502V14.9168C666.479 14.541 666.791 14.2293 667.167 14.2293C667.543 14.2293 667.854 14.541 667.854 14.9168V16.7502C667.854 21.7277 665.728 23.8543 660.75 23.8543Z" fill="#657D94"/>
<path d="M733 18.25H726C725.59 18.25 725.25 17.91 725.25 17.5C725.25 17.09 725.59 16.75 726 16.75H733C733.41 16.75 733.75 17.09 733.75 17.5C733.75 17.91 733.41 18.25 733 18.25Z" fill="#657D94"/>
<path d="M716 18.25H713C712.59 18.25 712.25 17.91 712.25 17.5C712.25 17.09 712.59 16.75 713 16.75H716C716.41 16.75 716.75 17.09 716.75 17.5C716.75 17.91 716.41 18.25 716 18.25Z" fill="#657D94"/>
<path d="M733 7.25H730C729.59 7.25 729.25 6.91 729.25 6.5C729.25 6.09 729.59 5.75 730 5.75H733C733.41 5.75 733.75 6.09 733.75 6.5C733.75 6.91 733.41 7.25 733 7.25Z" fill="#657D94"/>
<path d="M720 7.25H713C712.59 7.25 712.25 6.91 712.25 6.5C712.25 6.09 712.59 5.75 713 5.75H720C720.41 5.75 720.75 6.09 720.75 6.5C720.75 6.91 720.41 7.25 720 7.25Z" fill="#657D94"/>
<path d="M724 21.25H718C716.28 21.25 715.25 20.22 715.25 18.5V16.5C715.25 14.78 716.28 13.75 718 13.75H724C725.72 13.75 726.75 14.78 726.75 16.5V18.5C726.75 20.22 725.72 21.25 724 21.25ZM718 15.25C717.11 15.25 716.75 15.61 716.75 16.5V18.5C716.75 19.39 717.11 19.75 718 19.75H724C724.89 19.75 725.25 19.39 725.25 18.5V16.5C725.25 15.61 724.89 15.25 724 15.25H718Z" fill="#657D94"/>
<path d="M728 10.25H722C720.28 10.25 719.25 9.22 719.25 7.5V5.5C719.25 3.78 720.28 2.75 722 2.75H728C729.72 2.75 730.75 3.78 730.75 5.5V7.5C730.75 9.22 729.72 10.25 728 10.25ZM722 4.25C721.11 4.25 720.75 4.61 720.75 5.5V7.5C720.75 8.39 721.11 8.75 722 8.75H728C728.89 8.75 729.25 8.39 729.25 7.5V5.5C729.25 4.61 728.89 4.25 728 4.25H722Z" fill="#657D94"/>
</svg>
