<svg width="12" height="12" viewBox="0 0 12 12" fill="none" xmlns="http://www.w3.org/2000/svg">
<path fill-rule="evenodd" clip-rule="evenodd" d="M6.00063 7.86267L9.45296 11.3973C9.7993 11.7547 10.0246 11.7583 10.3773 11.3973L11.07 10.688C11.4093 10.3407 11.4323 10.1127 11.07 9.74167L7.41496 6L11.0703 2.25834C11.4126 1.90667 11.4193 1.66934 11.0703 1.31167L10.3776 0.60267C10.0183 0.23467 9.7963 0.25167 9.4533 0.60267L6.00063 4.13734L2.5483 0.603004C2.2053 0.252004 1.9833 0.235004 1.62396 0.603004L0.931298 1.312C0.581964 1.66967 0.588298 1.907 0.931298 2.25867L4.5863 6L0.931298 9.74167C0.568964 10.1127 0.588298 10.3407 0.931298 10.688L1.62363 11.3973C1.9733 11.7583 2.19863 11.7547 2.54796 11.3973L6.00063 7.86267Z" fill="#767C99"/>
</svg>
