<svg width="192" height="48" viewBox="0 0 192 48" fill="none" xmlns="http://www.w3.org/2000/svg">
<path d="M190 18.25H183C182.59 18.25 182.25 17.91 182.25 17.5C182.25 17.09 182.59 16.75 183 16.75H190C190.41 16.75 190.75 17.09 190.75 17.5C190.75 17.91 190.41 18.25 190 18.25Z" fill="#767C99"/>
<path d="M173 18.25H170C169.59 18.25 169.25 17.91 169.25 17.5C169.25 17.09 169.59 16.75 170 16.75H173C173.41 16.75 173.75 17.09 173.75 17.5C173.75 17.91 173.41 18.25 173 18.25Z" fill="#767C99"/>
<path d="M190 7.25H187C186.59 7.25 186.25 6.91 186.25 6.5C186.25 6.09 186.59 5.75 187 5.75H190C190.41 5.75 190.75 6.09 190.75 6.5C190.75 6.91 190.41 7.25 190 7.25Z" fill="#767C99"/>
<path d="M177 7.25H170C169.59 7.25 169.25 6.91 169.25 6.5C169.25 6.09 169.59 5.75 170 5.75H177C177.41 5.75 177.75 6.09 177.75 6.5C177.75 6.91 177.41 7.25 177 7.25Z" fill="#767C99"/>
<path d="M181 21.25H175C173.28 21.25 172.25 20.22 172.25 18.5V16.5C172.25 14.78 173.28 13.75 175 13.75H181C182.72 13.75 183.75 14.78 183.75 16.5V18.5C183.75 20.22 182.72 21.25 181 21.25ZM175 15.25C174.11 15.25 173.75 15.61 173.75 16.5V18.5C173.75 19.39 174.11 19.75 175 19.75H181C181.89 19.75 182.25 19.39 182.25 18.5V16.5C182.25 15.61 181.89 15.25 181 15.25H175Z" fill="#767C99"/>
<path d="M185 10.25H179C177.28 10.25 176.25 9.22 176.25 7.5V5.5C176.25 3.78 177.28 2.75 179 2.75H185C186.72 2.75 187.75 3.78 187.75 5.5V7.5C187.75 9.22 186.72 10.25 185 10.25ZM179 4.25C178.11 4.25 177.75 4.61 177.75 5.5V7.5C177.75 8.39 178.11 8.75 179 8.75H185C185.89 8.75 186.25 8.39 186.25 7.5V5.5C186.25 4.61 185.89 4.25 185 4.25H179Z" fill="#767C99"/>
<path d="M152 23.3199C151.72 23.3199 151.43 23.2499 151.17 23.1099C150.6 22.8099 150.25 22.2099 150.25 21.5699V20.15C147.23 19.84 145.25 17.6199 145.25 14.4399V6.43994C145.25 2.99994 147.56 0.689941 151 0.689941H161C164.44 0.689941 166.75 2.99994 166.75 6.43994V14.4399C166.75 17.8799 164.44 20.1899 161 20.1899H157.23L152.97 23.03C152.68 23.22 152.34 23.3199 152 23.3199ZM151 2.17993C148.42 2.17993 146.75 3.84993 146.75 6.42993V14.43C146.75 17.01 148.42 18.68 151 18.68C151.41 18.68 151.75 19.02 151.75 19.43V21.56C151.75 21.69 151.83 21.75 151.88 21.78C151.93 21.81 152.03 21.84 152.14 21.77L156.59 18.81C156.71 18.73 156.86 18.68 157.01 18.68H161.01C163.59 18.68 165.26 17.01 165.26 14.43V6.42993C165.26 3.84993 163.59 2.17993 161.01 2.17993H151Z" fill="#767C99"/>
<path d="M156 12.1099C155.59 12.1099 155.25 11.7699 155.25 11.3599V11.1499C155.25 9.9899 156.1 9.41989 156.42 9.19989C156.79 8.94989 156.91 8.7799 156.91 8.5199C156.91 8.0199 156.5 7.60986 156 7.60986C155.5 7.60986 155.09 8.0199 155.09 8.5199C155.09 8.9299 154.75 9.2699 154.34 9.2699C153.93 9.2699 153.59 8.9299 153.59 8.5199C153.59 7.1899 154.67 6.10986 156 6.10986C157.33 6.10986 158.41 7.1899 158.41 8.5199C158.41 9.6599 157.57 10.2299 157.26 10.4399C156.87 10.6999 156.75 10.8699 156.75 11.1499V11.3599C156.75 11.7799 156.41 12.1099 156 12.1099Z" fill="#767C99"/>
<path d="M156 14.6001C155.58 14.6001 155.25 14.2601 155.25 13.8501C155.25 13.4401 155.59 13.1001 156 13.1001C156.41 13.1001 156.75 13.4401 156.75 13.8501C156.75 14.2601 156.42 14.6001 156 14.6001Z" fill="#767C99"/>
<path d="M138.65 8.95C136.66 8.95 135.05 7.33 135.05 5.35C135.05 4.54 135.32 3.77 135.82 3.13C135.84 3.1 135.87 3.08 135.89 3.05C136.57 2.22 137.57 1.75 138.65 1.75C140.63 1.75 142.25 3.37 142.25 5.35C142.25 6.46 141.75 7.49 140.87 8.18C140.23 8.68 139.46 8.95 138.65 8.95ZM136.95 4.12C136.69 4.48 136.55 4.9 136.55 5.35C136.55 6.51 137.49 7.45 138.65 7.45C139.12 7.45 139.57 7.29 139.94 7C140.45 6.6 140.75 6 140.75 5.35C140.75 4.19 139.81 3.25 138.65 3.25C138 3.25 137.4 3.54 137.01 4.05C136.99 4.08 136.97 4.1 136.95 4.12Z" fill="#767C99"/>
<path d="M125.35 8.95C124.54 8.95 123.77 8.68 123.13 8.18C122.25 7.49 121.75 6.46 121.75 5.35C121.75 3.37 123.37 1.75 125.35 1.75C126.46 1.75 127.49 2.25 128.18 3.13C128.68 3.77 128.95 4.54 128.95 5.35C128.95 7.33 127.33 8.95 125.35 8.95ZM125.35 3.25C124.19 3.25 123.25 4.19 123.25 5.35C123.25 6 123.54 6.6 124.06 7C124.43 7.29 124.88 7.45 125.35 7.45C126.51 7.45 127.45 6.51 127.45 5.35C127.45 4.88 127.29 4.43 127 4.06C126.6 3.54 126 3.25 125.35 3.25Z" fill="#767C99"/>
<path d="M138.65 22.2498C137.57 22.2498 136.57 21.7798 135.89 20.9498C135.86 20.9298 135.84 20.8998 135.82 20.8698C135.32 20.2298 135.05 19.4598 135.05 18.6498C135.05 16.6598 136.67 15.0498 138.65 15.0498C139.46 15.0498 140.23 15.3198 140.87 15.8198C140.9 15.8398 140.92 15.8698 140.95 15.8898C141.78 16.5698 142.25 17.5698 142.25 18.6498C142.25 20.6298 140.63 22.2498 138.65 22.2498ZM136.95 19.8798C136.97 19.8998 136.99 19.9198 137.01 19.9498C137.4 20.4598 138 20.7498 138.65 20.7498C139.81 20.7498 140.75 19.8098 140.75 18.6498C140.75 17.9998 140.46 17.3998 139.95 17.0098C139.92 16.9898 139.9 16.9698 139.88 16.9498C139.52 16.6898 139.1 16.5498 138.65 16.5498C137.49 16.5498 136.55 17.4898 136.55 18.6498C136.55 19.0998 136.69 19.5198 136.95 19.8798Z" fill="#767C99"/>
<path d="M125.35 22.2498C123.37 22.2498 121.75 20.6298 121.75 18.6498C121.75 17.5698 122.22 16.5698 123.05 15.8898C123.07 15.8598 123.1 15.8398 123.13 15.8198C123.77 15.3198 124.54 15.0498 125.35 15.0498C127.34 15.0498 128.95 16.6698 128.95 18.6498C128.95 19.4598 128.68 20.2298 128.18 20.8698C127.49 21.7498 126.46 22.2498 125.35 22.2498ZM124.12 16.9498C124.1 16.9698 124.08 16.9898 124.05 17.0098C123.54 17.3998 123.25 17.9998 123.25 18.6498C123.25 19.8098 124.19 20.7498 125.35 20.7498C126 20.7498 126.6 20.4598 127 19.9398C127.29 19.5698 127.45 19.1198 127.45 18.6498C127.45 17.4898 126.51 16.5498 125.35 16.5498C124.9 16.5498 124.48 16.6898 124.12 16.9498Z" fill="#767C99"/>
<path d="M132 22.25C130.34 22.25 128.69 21.84 127.24 21.07C127.04 20.97 126.91 20.78 126.86 20.56C126.81 20.34 126.86 20.12 127 19.94C127.29 19.57 127.45 19.12 127.45 18.65C127.45 17.49 126.51 16.55 125.35 16.55C124.88 16.55 124.43 16.71 124.06 17C123.89 17.14 123.66 17.19 123.44 17.14C123.22 17.09 123.04 16.96 122.93 16.76C122.15 15.29 121.75 13.69 121.75 12C121.75 10.34 122.16 8.69 122.93 7.24C123.03 7.04 123.22 6.91 123.44 6.86C123.66 6.81 123.88 6.87 124.06 7C124.43 7.29 124.88 7.45 125.35 7.45C126.51 7.45 127.45 6.51 127.45 5.35C127.45 4.88 127.29 4.43 127 4.06C126.86 3.89 126.81 3.66 126.86 3.44C126.91 3.22 127.04 3.04 127.24 2.93C128.69 2.16 130.34 1.75 132 1.75C133.69 1.75 135.29 2.15 136.76 2.93C136.96 3.03 137.09 3.22 137.14 3.44C137.19 3.66 137.13 3.88 137 4.06C136.71 4.43 136.55 4.88 136.55 5.35C136.55 6.51 137.49 7.45 138.65 7.45C139.12 7.45 139.57 7.29 139.94 7C140.11 6.86 140.34 6.81 140.56 6.86C140.78 6.91 140.96 7.04 141.07 7.24C141.84 8.69 142.25 10.34 142.25 12C142.25 13.69 141.85 15.29 141.07 16.76C140.97 16.96 140.78 17.09 140.56 17.14C140.34 17.19 140.12 17.13 139.94 17C139.57 16.71 139.12 16.55 138.65 16.55C137.49 16.55 136.55 17.49 136.55 18.65C136.55 19.12 136.71 19.57 137 19.94C137.14 20.11 137.19 20.34 137.14 20.56C137.09 20.78 136.96 20.96 136.76 21.07C135.29 21.85 133.69 22.25 132 22.25ZM128.65 20.08C130.77 20.97 133.25 20.96 135.34 20.08C135.14 19.63 135.04 19.15 135.04 18.65C135.04 16.66 136.66 15.05 138.64 15.05C139.14 15.05 139.62 15.15 140.07 15.35C140.51 14.3 140.74 13.18 140.74 12C140.74 10.85 140.51 9.7 140.07 8.65C139.62 8.85 139.14 8.95 138.64 8.95C136.65 8.95 135.04 7.33 135.04 5.35C135.04 4.85 135.14 4.37 135.34 3.92C133.25 3.04 130.76 3.04 128.65 3.92C128.85 4.37 128.95 4.85 128.95 5.35C128.95 7.34 127.33 8.95 125.35 8.95C124.85 8.95 124.37 8.85 123.92 8.65C123.48 9.7 123.25 10.85 123.25 12C123.25 13.17 123.47 14.29 123.92 15.35C124.37 15.15 124.85 15.05 125.35 15.05C127.34 15.05 128.95 16.67 128.95 18.65C128.95 19.15 128.85 19.63 128.65 20.08Z" fill="#767C99"/>
<path d="M115.42 11.75H112C111.59 11.75 111.25 11.41 111.25 11V4.01C111.25 3.27 111.54 2.58 112.06 2.06C112.58 1.54 113.27 1.25 114.01 1.25H114.02C115.27 1.26 116.45 1.75 117.35 2.64C118.25 3.55 118.74 4.75 118.74 6V8.42C118.75 10.41 117.41 11.75 115.42 11.75ZM112.75 10.25H115.42C116.58 10.25 117.25 9.58 117.25 8.42V6C117.25 5.14 116.91 4.32 116.3 3.7C115.69 3.1 114.87 2.76 114.02 2.75C114.02 2.75 114.02 2.75 114.01 2.75C113.68 2.75 113.36 2.88 113.12 3.12C112.88 3.36 112.75 3.67 112.75 4.01V10.25V10.25Z" fill="#767C99"/>
<path d="M105 23.33C104.53 23.33 104.09 23.15 103.76 22.81L102.1 21.14C102.01 21.05 101.87 21.04 101.77 21.12L100.05 22.4C99.52 22.8 98.82 22.87 98.22 22.57C97.62 22.27 97.25 21.67 97.25 21V6C97.25 2.98 98.98 1.25 102 1.25H114C114.41 1.25 114.75 1.59 114.75 2C114.75 2.41 114.41 2.75 114 2.75C113.31 2.75 112.75 3.31 112.75 4V21C112.75 21.67 112.38 22.27 111.78 22.57C111.18 22.87 110.48 22.81 109.95 22.41L108.24 21.13C108.14 21.05 108 21.07 107.92 21.15L106.24 22.83C105.91 23.15 105.47 23.33 105 23.33ZM101.91 19.57C102.37 19.57 102.82 19.74 103.16 20.09L104.82 21.76C104.88 21.82 104.96 21.83 105 21.83C105.04 21.83 105.12 21.82 105.18 21.76L106.86 20.08C107.48 19.46 108.46 19.4 109.15 19.93L110.85 21.2C110.96 21.28 111.06 21.25 111.11 21.22C111.16 21.19 111.25 21.13 111.25 21V4C111.25 3.55 111.36 3.12 111.55 2.75H102C99.78 2.75 98.75 3.78 98.75 6V21C98.75 21.14 98.84 21.2 98.89 21.23C98.95 21.26 99.05 21.28 99.15 21.2L100.86 19.92C101.17 19.69 101.54 19.57 101.91 19.57Z" fill="#767C99"/>
<path d="M108 13.7598H105C104.59 13.7598 104.25 13.4198 104.25 13.0098C104.25 12.5998 104.59 12.2598 105 12.2598H108C108.41 12.2598 108.75 12.5998 108.75 13.0098C108.75 13.4198 108.41 13.7598 108 13.7598Z" fill="#767C99"/>
<path d="M108 9.75977H105C104.59 9.75977 104.25 9.41977 104.25 9.00977C104.25 8.59977 104.59 8.25977 105 8.25977H108C108.41 8.25977 108.75 8.59977 108.75 9.00977C108.75 9.41977 108.41 9.75977 108 9.75977Z" fill="#767C99"/>
<path d="M101.971 10.0098C101.421 10.0098 100.971 9.55977 100.971 9.00977C100.971 8.45977 101.421 8.00977 101.971 8.00977C102.521 8.00977 102.971 8.45977 102.971 9.00977C102.971 9.55977 102.521 10.0098 101.971 10.0098Z" fill="#767C99"/>
<path d="M101.971 14.0098C101.421 14.0098 100.971 13.5598 100.971 13.0098C100.971 12.4598 101.421 12.0098 101.971 12.0098C102.521 12.0098 102.971 12.4598 102.971 13.0098C102.971 13.5598 102.521 14.0098 101.971 14.0098Z" fill="#767C99"/>
<path d="M85.05 16.2502H83.17C81.84 16.2502 80.75 15.1302 80.75 13.7502C80.75 13.3402 81.09 13.0002 81.5 13.0002C81.91 13.0002 82.25 13.3402 82.25 13.7502C82.25 14.3002 82.66 14.7502 83.17 14.7502H85.05C85.44 14.7502 85.75 14.4002 85.75 13.9702C85.75 13.4302 85.6 13.3502 85.26 13.2302L82.25 12.1802C81.61 11.9502 80.75 11.4902 80.75 10.0202C80.75 8.77023 81.74 7.74023 82.95 7.74023H84.83C86.16 7.74023 87.25 8.86023 87.25 10.2402C87.25 10.6502 86.91 10.9902 86.5 10.9902C86.09 10.9902 85.75 10.6502 85.75 10.2402C85.75 9.69023 85.34 9.24023 84.83 9.24023H82.95C82.56 9.24023 82.25 9.59023 82.25 10.0202C82.25 10.5602 82.4 10.6402 82.74 10.7602L85.75 11.8102C86.39 12.0402 87.25 12.5002 87.25 13.9702C87.25 15.2302 86.26 16.2502 85.05 16.2502Z" fill="#767C99"/>
<path d="M84 17.25C83.59 17.25 83.25 16.91 83.25 16.5V7.5C83.25 7.09 83.59 6.75 84 6.75C84.41 6.75 84.75 7.09 84.75 7.5V16.5C84.75 16.91 84.41 17.25 84 17.25Z" fill="#767C99"/>
<path d="M84 22.75C78.07 22.75 73.25 17.93 73.25 12C73.25 6.07 78.07 1.25 84 1.25C84.41 1.25 84.75 1.59 84.75 2C84.75 2.41 84.41 2.75 84 2.75C78.9 2.75 74.75 6.9 74.75 12C74.75 17.1 78.9 21.25 84 21.25C89.1 21.25 93.25 17.1 93.25 12C93.25 11.59 93.59 11.25 94 11.25C94.41 11.25 94.75 11.59 94.75 12C94.75 17.93 89.93 22.75 84 22.75Z" fill="#767C99"/>
<path d="M94 6.75C93.59 6.75 93.25 6.41 93.25 6V2.75H90C89.59 2.75 89.25 2.41 89.25 2C89.25 1.59 89.59 1.25 90 1.25H94C94.41 1.25 94.75 1.59 94.75 2V6C94.75 6.41 94.41 6.75 94 6.75Z" fill="#767C99"/>
<path d="M88.9995 7.74994C88.8095 7.74994 88.6195 7.67994 88.4695 7.52994C88.1795 7.23994 88.1795 6.75994 88.4695 6.46994L93.4695 1.46994C93.7595 1.17994 94.2395 1.17994 94.5295 1.46994C94.8195 1.75994 94.8195 2.23994 94.5295 2.52994L89.5295 7.52994C89.3795 7.67994 89.1895 7.74994 88.9995 7.74994Z" fill="#767C99"/>
<path d="M54 9C53.59 9 53.25 8.66 53.25 8.25V6.25C53.25 5.84 53.59 5.5 54 5.5C54.41 5.5 54.75 5.84 54.75 6.25V8.25C54.75 8.66 54.41 9 54 9Z" fill="#767C99"/>
<path d="M58 9C57.59 9 57.25 8.66 57.25 8.25V6.25C57.25 5.84 57.59 5.5 58 5.5C58.41 5.5 58.75 5.84 58.75 6.25V8.25C58.75 8.66 58.41 9 58 9Z" fill="#767C99"/>
<path d="M63 22.75H57C51.57 22.75 49.25 20.43 49.25 15V9C49.25 3.57 51.57 1.25 57 1.25H63C68.43 1.25 70.75 3.57 70.75 9V15C70.75 20.43 68.43 22.75 63 22.75ZM57 2.75C52.39 2.75 50.75 4.39 50.75 9V15C50.75 19.61 52.39 21.25 57 21.25H63C67.61 21.25 69.25 19.61 69.25 15V9C69.25 4.39 67.61 2.75 63 2.75H57Z" fill="#767C99"/>
<path d="M54 18.75C53.59 18.75 53.25 18.41 53.25 18V16C53.25 15.59 53.59 15.25 54 15.25C54.41 15.25 54.75 15.59 54.75 16V18C54.75 18.41 54.41 18.75 54 18.75Z" fill="#767C99"/>
<path d="M58 18.75C57.59 18.75 57.25 18.41 57.25 18V16C57.25 15.59 57.59 15.25 58 15.25C58.41 15.25 58.75 15.59 58.75 16V18C58.75 18.41 58.41 18.75 58 18.75Z" fill="#767C99"/>
<path d="M66 8H62C61.59 8 61.25 7.66 61.25 7.25C61.25 6.84 61.59 6.5 62 6.5H66C66.41 6.5 66.75 6.84 66.75 7.25C66.75 7.66 66.41 8 66 8Z" fill="#767C99"/>
<path d="M66 17.75H62C61.59 17.75 61.25 17.41 61.25 17C61.25 16.59 61.59 16.25 62 16.25H66C66.41 16.25 66.75 16.59 66.75 17C66.75 17.41 66.41 17.75 66 17.75Z" fill="#767C99"/>
<path d="M70 12.75H50C49.59 12.75 49.25 12.41 49.25 12C49.25 11.59 49.59 11.25 50 11.25H70C70.41 11.25 70.75 11.59 70.75 12C70.75 12.41 70.41 12.75 70 12.75Z" fill="#767C99"/>
<path d="M37.05 16.2502H35.17C33.84 16.2502 32.75 15.1302 32.75 13.7502C32.75 13.3402 33.09 13.0002 33.5 13.0002C33.91 13.0002 34.25 13.3402 34.25 13.7502C34.25 14.3002 34.66 14.7502 35.17 14.7502H37.05C37.44 14.7502 37.75 14.4002 37.75 13.9702C37.75 13.4302 37.6 13.3502 37.26 13.2302L34.25 12.1802C33.61 11.9602 32.75 11.4902 32.75 10.0202C32.75 8.77023 33.74 7.74023 34.95 7.74023H36.83C38.16 7.74023 39.25 8.86023 39.25 10.2402C39.25 10.6502 38.91 10.9902 38.5 10.9902C38.09 10.9902 37.75 10.6502 37.75 10.2402C37.75 9.69023 37.34 9.24023 36.83 9.24023H34.95C34.56 9.24023 34.25 9.59023 34.25 10.0202C34.25 10.5602 34.4 10.6402 34.74 10.7602L37.75 11.8102C38.39 12.0302 39.25 12.5002 39.25 13.9702C39.25 15.2302 38.26 16.2502 37.05 16.2502Z" fill="#767C99"/>
<path d="M36 17.25C35.59 17.25 35.25 16.91 35.25 16.5V7.5C35.25 7.09 35.59 6.75 36 6.75C36.41 6.75 36.75 7.09 36.75 7.5V16.5C36.75 16.91 36.41 17.25 36 17.25Z" fill="#767C99"/>
<path d="M36 22.75C30.07 22.75 25.25 17.93 25.25 12C25.25 6.07 30.07 1.25 36 1.25C36.41 1.25 36.75 1.59 36.75 2C36.75 2.41 36.41 2.75 36 2.75C30.9 2.75 26.75 6.9 26.75 12C26.75 17.1 30.9 21.25 36 21.25C41.1 21.25 45.25 17.1 45.25 12C45.25 11.59 45.59 11.25 46 11.25C46.41 11.25 46.75 11.59 46.75 12C46.75 17.93 41.93 22.75 36 22.75Z" fill="#767C99"/>
<path d="M45 7.75H41C40.59 7.75 40.25 7.41 40.25 7V3C40.25 2.59 40.59 2.25 41 2.25C41.41 2.25 41.75 2.59 41.75 3V6.25H45C45.41 6.25 45.75 6.59 45.75 7C45.75 7.41 45.41 7.75 45 7.75Z" fill="#767C99"/>
<path d="M40.9999 7.74994C40.8099 7.74994 40.6199 7.67994 40.4699 7.52994C40.1799 7.23994 40.1799 6.75994 40.4699 6.46994L45.4699 1.46994C45.7599 1.17994 46.2399 1.17994 46.5299 1.46994C46.8199 1.75994 46.8199 2.23994 46.5299 2.52994L41.5299 7.52994C41.3799 7.67994 41.1899 7.74994 40.9999 7.74994Z" fill="#767C99"/>
<path d="M19.77 13.75H15.73C13.72 13.75 12.75 12.82 12.75 10.9V4.1C12.75 2.18 13.73 1.25 15.73 1.25H19.77C21.78 1.25 22.75 2.18 22.75 4.1V10.9C22.75 12.82 21.77 13.75 19.77 13.75ZM15.73 2.75C14.46 2.75 14.25 3.09 14.25 4.1V10.9C14.25 11.91 14.46 12.25 15.73 12.25H19.77C21.04 12.25 21.25 11.91 21.25 10.9V4.1C21.25 3.09 21.04 2.75 19.77 2.75H15.73V2.75Z" fill="#767C99"/>
<path d="M19.77 22.75H15.73C13.72 22.75 12.75 21.82 12.75 19.9V18.1C12.75 16.18 13.73 15.25 15.73 15.25H19.77C21.78 15.25 22.75 16.18 22.75 18.1V19.9C22.75 21.82 21.77 22.75 19.77 22.75ZM15.73 16.75C14.46 16.75 14.25 17.09 14.25 18.1V19.9C14.25 20.91 14.46 21.25 15.73 21.25H19.77C21.04 21.25 21.25 20.91 21.25 19.9V18.1C21.25 17.09 21.04 16.75 19.77 16.75H15.73Z" fill="#767C99"/>
<path d="M8.27 22.75H4.23C2.22 22.75 1.25 21.82 1.25 19.9V13.1C1.25 11.18 2.23 10.25 4.23 10.25H8.27C10.28 10.25 11.25 11.18 11.25 13.1V19.9C11.25 21.82 10.27 22.75 8.27 22.75ZM4.23 11.75C2.96 11.75 2.75 12.09 2.75 13.1V19.9C2.75 20.91 2.96 21.25 4.23 21.25H8.27C9.54 21.25 9.75 20.91 9.75 19.9V13.1C9.75 12.09 9.54 11.75 8.27 11.75H4.23V11.75Z" fill="#767C99"/>
<path d="M8.27 8.75H4.23C2.22 8.75 1.25 7.82 1.25 5.9V4.1C1.25 2.18 2.23 1.25 4.23 1.25H8.27C10.28 1.25 11.25 2.18 11.25 4.1V5.9C11.25 7.82 10.27 8.75 8.27 8.75ZM4.23 2.75C2.96 2.75 2.75 3.09 2.75 4.1V5.9C2.75 6.91 2.96 7.25 4.23 7.25H8.27C9.54 7.25 9.75 6.91 9.75 5.9V4.1C9.75 3.09 9.54 2.75 8.27 2.75H4.23V2.75Z" fill="#767C99"/>
<path d="M190 42.25H183C182.59 42.25 182.25 41.91 182.25 41.5C182.25 41.09 182.59 40.75 183 40.75H190C190.41 40.75 190.75 41.09 190.75 41.5C190.75 41.91 190.41 42.25 190 42.25Z" fill="#FFE03E"/>
<path d="M173 42.25H170C169.59 42.25 169.25 41.91 169.25 41.5C169.25 41.09 169.59 40.75 170 40.75H173C173.41 40.75 173.75 41.09 173.75 41.5C173.75 41.91 173.41 42.25 173 42.25Z" fill="#FFE03E"/>
<path d="M190 31.25H187C186.59 31.25 186.25 30.91 186.25 30.5C186.25 30.09 186.59 29.75 187 29.75H190C190.41 29.75 190.75 30.09 190.75 30.5C190.75 30.91 190.41 31.25 190 31.25Z" fill="#FFE03E"/>
<path d="M177 31.25H170C169.59 31.25 169.25 30.91 169.25 30.5C169.25 30.09 169.59 29.75 170 29.75H177C177.41 29.75 177.75 30.09 177.75 30.5C177.75 30.91 177.41 31.25 177 31.25Z" fill="#FFE03E"/>
<path d="M181 45.25H175C173.28 45.25 172.25 44.22 172.25 42.5V40.5C172.25 38.78 173.28 37.75 175 37.75H181C182.72 37.75 183.75 38.78 183.75 40.5V42.5C183.75 44.22 182.72 45.25 181 45.25ZM175 39.25C174.11 39.25 173.75 39.61 173.75 40.5V42.5C173.75 43.39 174.11 43.75 175 43.75H181C181.89 43.75 182.25 43.39 182.25 42.5V40.5C182.25 39.61 181.89 39.25 181 39.25H175Z" fill="#FFE03E"/>
<path d="M185 34.25H179C177.28 34.25 176.25 33.22 176.25 31.5V29.5C176.25 27.78 177.28 26.75 179 26.75H185C186.72 26.75 187.75 27.78 187.75 29.5V31.5C187.75 33.22 186.72 34.25 185 34.25ZM179 28.25C178.11 28.25 177.75 28.61 177.75 29.5V31.5C177.75 32.39 178.11 32.75 179 32.75H185C185.89 32.75 186.25 32.39 186.25 31.5V29.5C186.25 28.61 185.89 28.25 185 28.25H179Z" fill="#FFE03E"/>
<path d="M152 47.3199C151.72 47.3199 151.43 47.2499 151.17 47.1099C150.6 46.8099 150.25 46.2099 150.25 45.5699V44.15C147.23 43.84 145.25 41.6199 145.25 38.4399V30.4399C145.25 26.9999 147.56 24.6899 151 24.6899H161C164.44 24.6899 166.75 26.9999 166.75 30.4399V38.4399C166.75 41.8799 164.44 44.1899 161 44.1899H157.23L152.97 47.03C152.68 47.22 152.34 47.3199 152 47.3199ZM151 26.1799C148.42 26.1799 146.75 27.8499 146.75 30.4299V38.43C146.75 41.01 148.42 42.68 151 42.68C151.41 42.68 151.75 43.02 151.75 43.43V45.56C151.75 45.69 151.83 45.75 151.88 45.78C151.93 45.81 152.03 45.84 152.14 45.77L156.59 42.81C156.71 42.73 156.86 42.68 157.01 42.68H161.01C163.59 42.68 165.26 41.01 165.26 38.43V30.4299C165.26 27.8499 163.59 26.1799 161.01 26.1799H151Z" fill="#FFE03E"/>
<path d="M156 36.1099C155.59 36.1099 155.25 35.7699 155.25 35.3599V35.1499C155.25 33.9899 156.1 33.4199 156.42 33.1999C156.79 32.9499 156.91 32.7799 156.91 32.5199C156.91 32.0199 156.5 31.6099 156 31.6099C155.5 31.6099 155.09 32.0199 155.09 32.5199C155.09 32.9299 154.75 33.2699 154.34 33.2699C153.93 33.2699 153.59 32.9299 153.59 32.5199C153.59 31.1899 154.67 30.1099 156 30.1099C157.33 30.1099 158.41 31.1899 158.41 32.5199C158.41 33.6599 157.57 34.2299 157.26 34.4399C156.87 34.6999 156.75 34.8699 156.75 35.1499V35.3599C156.75 35.7799 156.41 36.1099 156 36.1099Z" fill="#FFE03E"/>
<path d="M156 38.6001C155.58 38.6001 155.25 38.2601 155.25 37.8501C155.25 37.4401 155.59 37.1001 156 37.1001C156.41 37.1001 156.75 37.4401 156.75 37.8501C156.75 38.2601 156.42 38.6001 156 38.6001Z" fill="#FFE03E"/>
<path d="M138.65 32.95C136.66 32.95 135.05 31.33 135.05 29.35C135.05 28.54 135.32 27.77 135.82 27.13C135.84 27.1 135.87 27.08 135.89 27.05C136.57 26.22 137.57 25.75 138.65 25.75C140.63 25.75 142.25 27.37 142.25 29.35C142.25 30.46 141.75 31.49 140.87 32.18C140.23 32.68 139.46 32.95 138.65 32.95ZM136.95 28.12C136.69 28.48 136.55 28.9 136.55 29.35C136.55 30.51 137.49 31.45 138.65 31.45C139.12 31.45 139.57 31.29 139.94 31C140.45 30.6 140.75 30 140.75 29.35C140.75 28.19 139.81 27.25 138.65 27.25C138 27.25 137.4 27.54 137.01 28.05C136.99 28.08 136.97 28.1 136.95 28.12Z" fill="#FFE03E"/>
<path d="M125.35 32.95C124.54 32.95 123.77 32.68 123.13 32.18C122.25 31.49 121.75 30.46 121.75 29.35C121.75 27.37 123.37 25.75 125.35 25.75C126.46 25.75 127.49 26.25 128.18 27.13C128.68 27.77 128.95 28.54 128.95 29.35C128.95 31.33 127.33 32.95 125.35 32.95ZM125.35 27.25C124.19 27.25 123.25 28.19 123.25 29.35C123.25 30 123.54 30.6 124.06 31C124.43 31.29 124.88 31.45 125.35 31.45C126.51 31.45 127.45 30.51 127.45 29.35C127.45 28.88 127.29 28.43 127 28.06C126.6 27.54 126 27.25 125.35 27.25Z" fill="#FFE03E"/>
<path d="M138.65 46.2498C137.57 46.2498 136.57 45.7798 135.89 44.9498C135.86 44.9298 135.84 44.8998 135.82 44.8698C135.32 44.2298 135.05 43.4598 135.05 42.6498C135.05 40.6598 136.67 39.0498 138.65 39.0498C139.46 39.0498 140.23 39.3198 140.87 39.8198C140.9 39.8398 140.92 39.8698 140.95 39.8898C141.78 40.5698 142.25 41.5698 142.25 42.6498C142.25 44.6298 140.63 46.2498 138.65 46.2498ZM136.95 43.8798C136.97 43.8998 136.99 43.9198 137.01 43.9498C137.4 44.4598 138 44.7498 138.65 44.7498C139.81 44.7498 140.75 43.8098 140.75 42.6498C140.75 41.9998 140.46 41.3998 139.95 41.0098C139.92 40.9898 139.9 40.9698 139.88 40.9498C139.52 40.6898 139.1 40.5498 138.65 40.5498C137.49 40.5498 136.55 41.4898 136.55 42.6498C136.55 43.0998 136.69 43.5198 136.95 43.8798Z" fill="#FFE03E"/>
<path d="M125.35 46.2498C123.37 46.2498 121.75 44.6298 121.75 42.6498C121.75 41.5698 122.22 40.5698 123.05 39.8898C123.07 39.8598 123.1 39.8398 123.13 39.8198C123.77 39.3198 124.54 39.0498 125.35 39.0498C127.34 39.0498 128.95 40.6698 128.95 42.6498C128.95 43.4598 128.68 44.2298 128.18 44.8698C127.49 45.7498 126.46 46.2498 125.35 46.2498ZM124.12 40.9498C124.1 40.9698 124.08 40.9898 124.05 41.0098C123.54 41.3998 123.25 41.9998 123.25 42.6498C123.25 43.8098 124.19 44.7498 125.35 44.7498C126 44.7498 126.6 44.4598 127 43.9398C127.29 43.5698 127.45 43.1198 127.45 42.6498C127.45 41.4898 126.51 40.5498 125.35 40.5498C124.9 40.5498 124.48 40.6898 124.12 40.9498Z" fill="#FFE03E"/>
<path d="M132 46.25C130.34 46.25 128.69 45.84 127.24 45.07C127.04 44.97 126.91 44.78 126.86 44.56C126.81 44.34 126.86 44.12 127 43.94C127.29 43.57 127.45 43.12 127.45 42.65C127.45 41.49 126.51 40.55 125.35 40.55C124.88 40.55 124.43 40.71 124.06 41C123.89 41.14 123.66 41.19 123.44 41.14C123.22 41.09 123.04 40.96 122.93 40.76C122.15 39.29 121.75 37.69 121.75 36C121.75 34.34 122.16 32.69 122.93 31.24C123.03 31.04 123.22 30.91 123.44 30.86C123.66 30.81 123.88 30.87 124.06 31C124.43 31.29 124.88 31.45 125.35 31.45C126.51 31.45 127.45 30.51 127.45 29.35C127.45 28.88 127.29 28.43 127 28.06C126.86 27.89 126.81 27.66 126.86 27.44C126.91 27.22 127.04 27.04 127.24 26.93C128.69 26.16 130.34 25.75 132 25.75C133.69 25.75 135.29 26.15 136.76 26.93C136.96 27.03 137.09 27.22 137.14 27.44C137.19 27.66 137.13 27.88 137 28.06C136.71 28.43 136.55 28.88 136.55 29.35C136.55 30.51 137.49 31.45 138.65 31.45C139.12 31.45 139.57 31.29 139.94 31C140.11 30.86 140.34 30.81 140.56 30.86C140.78 30.91 140.96 31.04 141.07 31.24C141.84 32.69 142.25 34.34 142.25 36C142.25 37.69 141.85 39.29 141.07 40.76C140.97 40.96 140.78 41.09 140.56 41.14C140.34 41.19 140.12 41.13 139.94 41C139.57 40.71 139.12 40.55 138.65 40.55C137.49 40.55 136.55 41.49 136.55 42.65C136.55 43.12 136.71 43.57 137 43.94C137.14 44.11 137.19 44.34 137.14 44.56C137.09 44.78 136.96 44.96 136.76 45.07C135.29 45.85 133.69 46.25 132 46.25ZM128.65 44.08C130.77 44.97 133.25 44.96 135.34 44.08C135.14 43.63 135.04 43.15 135.04 42.65C135.04 40.66 136.66 39.05 138.64 39.05C139.14 39.05 139.62 39.15 140.07 39.35C140.51 38.3 140.74 37.18 140.74 36C140.74 34.85 140.51 33.7 140.07 32.65C139.62 32.85 139.14 32.95 138.64 32.95C136.65 32.95 135.04 31.33 135.04 29.35C135.04 28.85 135.14 28.37 135.34 27.92C133.25 27.04 130.76 27.04 128.65 27.92C128.85 28.37 128.95 28.85 128.95 29.35C128.95 31.34 127.33 32.95 125.35 32.95C124.85 32.95 124.37 32.85 123.92 32.65C123.48 33.7 123.25 34.85 123.25 36C123.25 37.17 123.47 38.29 123.92 39.35C124.37 39.15 124.85 39.05 125.35 39.05C127.34 39.05 128.95 40.67 128.95 42.65C128.95 43.15 128.85 43.63 128.65 44.08Z" fill="#FFE03E"/>
<path d="M115.42 35.75H112C111.59 35.75 111.25 35.41 111.25 35V28.01C111.25 27.27 111.54 26.58 112.06 26.06C112.58 25.54 113.27 25.25 114.01 25.25H114.02C115.27 25.26 116.45 25.75 117.35 26.64C118.25 27.55 118.74 28.75 118.74 30V32.42C118.75 34.41 117.41 35.75 115.42 35.75ZM112.75 34.25H115.42C116.58 34.25 117.25 33.58 117.25 32.42V30C117.25 29.14 116.91 28.32 116.3 27.7C115.69 27.1 114.87 26.76 114.02 26.75C114.02 26.75 114.02 26.75 114.01 26.75C113.68 26.75 113.36 26.88 113.12 27.12C112.88 27.36 112.75 27.67 112.75 28.01V34.25V34.25Z" fill="#FFE03E"/>
<path d="M105 47.33C104.53 47.33 104.09 47.15 103.76 46.81L102.1 45.14C102.01 45.05 101.87 45.04 101.77 45.12L100.05 46.4C99.52 46.8 98.82 46.87 98.22 46.57C97.62 46.27 97.25 45.67 97.25 45V30C97.25 26.98 98.98 25.25 102 25.25H114C114.41 25.25 114.75 25.59 114.75 26C114.75 26.41 114.41 26.75 114 26.75C113.31 26.75 112.75 27.31 112.75 28V45C112.75 45.67 112.38 46.27 111.78 46.57C111.18 46.87 110.48 46.81 109.95 46.41L108.24 45.13C108.14 45.05 108 45.07 107.92 45.15L106.24 46.83C105.91 47.15 105.47 47.33 105 47.33ZM101.91 43.57C102.37 43.57 102.82 43.74 103.16 44.09L104.82 45.76C104.88 45.82 104.96 45.83 105 45.83C105.04 45.83 105.12 45.82 105.18 45.76L106.86 44.08C107.48 43.46 108.46 43.4 109.15 43.93L110.85 45.2C110.96 45.28 111.06 45.25 111.11 45.22C111.16 45.19 111.25 45.13 111.25 45V28C111.25 27.55 111.36 27.12 111.55 26.75H102C99.78 26.75 98.75 27.78 98.75 30V45C98.75 45.14 98.84 45.2 98.89 45.23C98.95 45.26 99.05 45.28 99.15 45.2L100.86 43.92C101.17 43.69 101.54 43.57 101.91 43.57Z" fill="#FFE03E"/>
<path d="M108 37.7598H105C104.59 37.7598 104.25 37.4198 104.25 37.0098C104.25 36.5998 104.59 36.2598 105 36.2598H108C108.41 36.2598 108.75 36.5998 108.75 37.0098C108.75 37.4198 108.41 37.7598 108 37.7598Z" fill="#FFE03E"/>
<path d="M108 33.7598H105C104.59 33.7598 104.25 33.4198 104.25 33.0098C104.25 32.5998 104.59 32.2598 105 32.2598H108C108.41 32.2598 108.75 32.5998 108.75 33.0098C108.75 33.4198 108.41 33.7598 108 33.7598Z" fill="#FFE03E"/>
<path d="M101.971 34.0098C101.421 34.0098 100.971 33.5598 100.971 33.0098C100.971 32.4598 101.421 32.0098 101.971 32.0098C102.521 32.0098 102.971 32.4598 102.971 33.0098C102.971 33.5598 102.521 34.0098 101.971 34.0098Z" fill="#FFE03E"/>
<path d="M101.971 38.0098C101.421 38.0098 100.971 37.5598 100.971 37.0098C100.971 36.4598 101.421 36.0098 101.971 36.0098C102.521 36.0098 102.971 36.4598 102.971 37.0098C102.971 37.5598 102.521 38.0098 101.971 38.0098Z" fill="#FFE03E"/>
<path d="M85.05 40.2502H83.17C81.84 40.2502 80.75 39.1302 80.75 37.7502C80.75 37.3402 81.09 37.0002 81.5 37.0002C81.91 37.0002 82.25 37.3402 82.25 37.7502C82.25 38.3002 82.66 38.7502 83.17 38.7502H85.05C85.44 38.7502 85.75 38.4002 85.75 37.9702C85.75 37.4302 85.6 37.3502 85.26 37.2302L82.25 36.1802C81.61 35.9502 80.75 35.4902 80.75 34.0202C80.75 32.7702 81.74 31.7402 82.95 31.7402H84.83C86.16 31.7402 87.25 32.8602 87.25 34.2402C87.25 34.6502 86.91 34.9902 86.5 34.9902C86.09 34.9902 85.75 34.6502 85.75 34.2402C85.75 33.6902 85.34 33.2402 84.83 33.2402H82.95C82.56 33.2402 82.25 33.5902 82.25 34.0202C82.25 34.5602 82.4 34.6402 82.74 34.7602L85.75 35.8102C86.39 36.0402 87.25 36.5002 87.25 37.9702C87.25 39.2302 86.26 40.2502 85.05 40.2502Z" fill="#FFE03E"/>
<path d="M84 41.25C83.59 41.25 83.25 40.91 83.25 40.5V31.5C83.25 31.09 83.59 30.75 84 30.75C84.41 30.75 84.75 31.09 84.75 31.5V40.5C84.75 40.91 84.41 41.25 84 41.25Z" fill="#FFE03E"/>
<path d="M84 46.75C78.07 46.75 73.25 41.93 73.25 36C73.25 30.07 78.07 25.25 84 25.25C84.41 25.25 84.75 25.59 84.75 26C84.75 26.41 84.41 26.75 84 26.75C78.9 26.75 74.75 30.9 74.75 36C74.75 41.1 78.9 45.25 84 45.25C89.1 45.25 93.25 41.1 93.25 36C93.25 35.59 93.59 35.25 94 35.25C94.41 35.25 94.75 35.59 94.75 36C94.75 41.93 89.93 46.75 84 46.75Z" fill="#FFE03E"/>
<path d="M94 30.75C93.59 30.75 93.25 30.41 93.25 30V26.75H90C89.59 26.75 89.25 26.41 89.25 26C89.25 25.59 89.59 25.25 90 25.25H94C94.41 25.25 94.75 25.59 94.75 26V30C94.75 30.41 94.41 30.75 94 30.75Z" fill="#FFE03E"/>
<path d="M88.9995 31.7499C88.8095 31.7499 88.6195 31.6799 88.4695 31.5299C88.1795 31.2399 88.1795 30.7599 88.4695 30.4699L93.4695 25.4699C93.7595 25.1799 94.2395 25.1799 94.5295 25.4699C94.8195 25.7599 94.8195 26.2399 94.5295 26.5299L89.5295 31.5299C89.3795 31.6799 89.1895 31.7499 88.9995 31.7499Z" fill="#FFE03E"/>
<path d="M54 33C53.59 33 53.25 32.66 53.25 32.25V30.25C53.25 29.84 53.59 29.5 54 29.5C54.41 29.5 54.75 29.84 54.75 30.25V32.25C54.75 32.66 54.41 33 54 33Z" fill="#FFE03E"/>
<path d="M58 33C57.59 33 57.25 32.66 57.25 32.25V30.25C57.25 29.84 57.59 29.5 58 29.5C58.41 29.5 58.75 29.84 58.75 30.25V32.25C58.75 32.66 58.41 33 58 33Z" fill="#FFE03E"/>
<path d="M63 46.75H57C51.57 46.75 49.25 44.43 49.25 39V33C49.25 27.57 51.57 25.25 57 25.25H63C68.43 25.25 70.75 27.57 70.75 33V39C70.75 44.43 68.43 46.75 63 46.75ZM57 26.75C52.39 26.75 50.75 28.39 50.75 33V39C50.75 43.61 52.39 45.25 57 45.25H63C67.61 45.25 69.25 43.61 69.25 39V33C69.25 28.39 67.61 26.75 63 26.75H57Z" fill="#FFE03E"/>
<path d="M54 42.75C53.59 42.75 53.25 42.41 53.25 42V40C53.25 39.59 53.59 39.25 54 39.25C54.41 39.25 54.75 39.59 54.75 40V42C54.75 42.41 54.41 42.75 54 42.75Z" fill="#FFE03E"/>
<path d="M58 42.75C57.59 42.75 57.25 42.41 57.25 42V40C57.25 39.59 57.59 39.25 58 39.25C58.41 39.25 58.75 39.59 58.75 40V42C58.75 42.41 58.41 42.75 58 42.75Z" fill="#FFE03E"/>
<path d="M66 32H62C61.59 32 61.25 31.66 61.25 31.25C61.25 30.84 61.59 30.5 62 30.5H66C66.41 30.5 66.75 30.84 66.75 31.25C66.75 31.66 66.41 32 66 32Z" fill="#FFE03E"/>
<path d="M66 41.75H62C61.59 41.75 61.25 41.41 61.25 41C61.25 40.59 61.59 40.25 62 40.25H66C66.41 40.25 66.75 40.59 66.75 41C66.75 41.41 66.41 41.75 66 41.75Z" fill="#FFE03E"/>
<path d="M70 36.75H50C49.59 36.75 49.25 36.41 49.25 36C49.25 35.59 49.59 35.25 50 35.25H70C70.41 35.25 70.75 35.59 70.75 36C70.75 36.41 70.41 36.75 70 36.75Z" fill="#FFE03E"/>
<path d="M37.05 40.2502H35.17C33.84 40.2502 32.75 39.1302 32.75 37.7502C32.75 37.3402 33.09 37.0002 33.5 37.0002C33.91 37.0002 34.25 37.3402 34.25 37.7502C34.25 38.3002 34.66 38.7502 35.17 38.7502H37.05C37.44 38.7502 37.75 38.4002 37.75 37.9702C37.75 37.4302 37.6 37.3502 37.26 37.2302L34.25 36.1802C33.61 35.9602 32.75 35.4902 32.75 34.0202C32.75 32.7702 33.74 31.7402 34.95 31.7402H36.83C38.16 31.7402 39.25 32.8602 39.25 34.2402C39.25 34.6502 38.91 34.9902 38.5 34.9902C38.09 34.9902 37.75 34.6502 37.75 34.2402C37.75 33.6902 37.34 33.2402 36.83 33.2402H34.95C34.56 33.2402 34.25 33.5902 34.25 34.0202C34.25 34.5602 34.4 34.6402 34.74 34.7602L37.75 35.8102C38.39 36.0302 39.25 36.5002 39.25 37.9702C39.25 39.2302 38.26 40.2502 37.05 40.2502Z" fill="#FFE03E"/>
<path d="M36 41.25C35.59 41.25 35.25 40.91 35.25 40.5V31.5C35.25 31.09 35.59 30.75 36 30.75C36.41 30.75 36.75 31.09 36.75 31.5V40.5C36.75 40.91 36.41 41.25 36 41.25Z" fill="#FFE03E"/>
<path d="M36 46.75C30.07 46.75 25.25 41.93 25.25 36C25.25 30.07 30.07 25.25 36 25.25C36.41 25.25 36.75 25.59 36.75 26C36.75 26.41 36.41 26.75 36 26.75C30.9 26.75 26.75 30.9 26.75 36C26.75 41.1 30.9 45.25 36 45.25C41.1 45.25 45.25 41.1 45.25 36C45.25 35.59 45.59 35.25 46 35.25C46.41 35.25 46.75 35.59 46.75 36C46.75 41.93 41.93 46.75 36 46.75Z" fill="#FFE03E"/>
<path d="M45 31.75H41C40.59 31.75 40.25 31.41 40.25 31V27C40.25 26.59 40.59 26.25 41 26.25C41.41 26.25 41.75 26.59 41.75 27V30.25H45C45.41 30.25 45.75 30.59 45.75 31C45.75 31.41 45.41 31.75 45 31.75Z" fill="#FFE03E"/>
<path d="M40.9999 31.7499C40.8099 31.7499 40.6199 31.6799 40.4699 31.5299C40.1799 31.2399 40.1799 30.7599 40.4699 30.4699L45.4699 25.4699C45.7599 25.1799 46.2399 25.1799 46.5299 25.4699C46.8199 25.7599 46.8199 26.2399 46.5299 26.5299L41.5299 31.5299C41.3799 31.6799 41.1899 31.7499 40.9999 31.7499Z" fill="#FFE03E"/>
<path d="M19.77 37.75H15.73C13.72 37.75 12.75 36.82 12.75 34.9V28.1C12.75 26.18 13.73 25.25 15.73 25.25H19.77C21.78 25.25 22.75 26.18 22.75 28.1V34.9C22.75 36.82 21.77 37.75 19.77 37.75ZM15.73 26.75C14.46 26.75 14.25 27.09 14.25 28.1V34.9C14.25 35.91 14.46 36.25 15.73 36.25H19.77C21.04 36.25 21.25 35.91 21.25 34.9V28.1C21.25 27.09 21.04 26.75 19.77 26.75H15.73V26.75Z" fill="#FFE03E"/>
<path d="M19.77 46.75H15.73C13.72 46.75 12.75 45.82 12.75 43.9V42.1C12.75 40.18 13.73 39.25 15.73 39.25H19.77C21.78 39.25 22.75 40.18 22.75 42.1V43.9C22.75 45.82 21.77 46.75 19.77 46.75ZM15.73 40.75C14.46 40.75 14.25 41.09 14.25 42.1V43.9C14.25 44.91 14.46 45.25 15.73 45.25H19.77C21.04 45.25 21.25 44.91 21.25 43.9V42.1C21.25 41.09 21.04 40.75 19.77 40.75H15.73Z" fill="#FFE03E"/>
<path d="M8.27 46.75H4.23C2.22 46.75 1.25 45.82 1.25 43.9V37.1C1.25 35.18 2.23 34.25 4.23 34.25H8.27C10.28 34.25 11.25 35.18 11.25 37.1V43.9C11.25 45.82 10.27 46.75 8.27 46.75ZM4.23 35.75C2.96 35.75 2.75 36.09 2.75 37.1V43.9C2.75 44.91 2.96 45.25 4.23 45.25H8.27C9.54 45.25 9.75 44.91 9.75 43.9V37.1C9.75 36.09 9.54 35.75 8.27 35.75H4.23V35.75Z" fill="#FFE03E"/>
<path d="M8.27 32.75H4.23C2.22 32.75 1.25 31.82 1.25 29.9V28.1C1.25 26.18 2.23 25.25 4.23 25.25H8.27C10.28 25.25 11.25 26.18 11.25 28.1V29.9C11.25 31.82 10.27 32.75 8.27 32.75ZM4.23 26.75C2.96 26.75 2.75 27.09 2.75 28.1V29.9C2.75 30.91 2.96 31.25 4.23 31.25H8.27C9.54 31.25 9.75 30.91 9.75 29.9V28.1C9.75 27.09 9.54 26.75 8.27 26.75H4.23V26.75Z" fill="#FFE03E"/>
</svg>
