<svg width="126" height="20" viewBox="0 0 126 20" fill="none" xmlns="http://www.w3.org/2000/svg">
<path d="M17.839 11.62V17.7474C17.839 18.6541 17.1301 19.3919 16.2526 19.3919H9.08398V9.97559H16.2526C17.1301 9.97559 17.839 10.7104 17.839 11.62Z" fill="#141EC9"/>
<path d="M10.9355 4.47965C10.9355 6.45595 12.4819 8.05891 14.3884 8.05891C16.2949 8.05891 17.8412 6.45595 17.8412 4.47965C17.8412 2.50335 16.2949 0.900391 14.3884 0.900391C12.4819 0.900391 10.9355 2.50335 10.9355 4.47965Z" fill="#FFCE33"/>
<path d="M9.08371 16.3404V2.54483C9.08371 1.63817 8.37485 0.900391 7.49735 0.900391H1.58637C0.711724 0.900391 0 1.6352 0 2.54483V11.6204C0 15.9137 3.35566 19.3923 7.49735 19.3923H12.7423C9.67252 19.3923 9.08371 16.3404 9.08371 16.3404Z" fill="#393CFF"/>
<path d="M22.6406 0.900391H26.4136V16.29H34.5655V19.6945H22.6406V0.900391Z" fill="#2B3670"/>
<path d="M47.9999 13.87H38.6533C38.8734 15.6122 40.0653 16.7204 41.866 16.7204C43.1551 16.7204 44.1041 16.1397 44.6157 15.2063L47.5369 16.6434C46.7337 18.6611 44.5442 19.9974 41.8174 19.9974C37.6071 19.9974 34.8574 16.7678 34.8574 12.7826C34.8574 8.79743 37.7786 5.61816 41.5744 5.61816C45.3703 5.61816 48.1686 8.59594 48.1686 12.4034C48.1686 12.9574 48.12 13.4878 47.9971 13.8671L47.9999 13.87ZM44.3013 11.0937C44.1555 9.63002 43.0836 8.64631 41.5744 8.64631C40.0653 8.64631 39.0934 9.50558 38.7276 11.0937H44.3013Z" fill="#2B3670"/>
<path d="M62.8655 9.20339V14.7293C62.8655 16.1397 63.5972 16.8212 65.1293 16.8212C65.3493 16.8212 65.6409 16.7975 65.981 16.7471V19.7249C65.4951 19.799 64.8377 19.8493 64.2775 19.8493C61.0647 19.8493 59.2154 17.9589 59.2154 14.7293V9.20339H54.0847V19.6982H50.4347V9.20339H48.1709V5.92339H50.4347V5.52043C50.4347 2.26709 52.3812 0.397461 55.6911 0.397461C56.1056 0.397461 56.6401 0.450792 56.9802 0.524866V3.7545C56.6658 3.70413 56.4228 3.67746 56.177 3.67746C54.8165 3.67746 54.0847 4.30858 54.0847 5.52043V5.92339H57.0974C58.4608 5.92339 59.2154 5.2182 59.2154 3.80487V1.78709H62.8655V5.92339H65.981V9.20339H62.8655Z" fill="#2B3670"/>
<path d="M66.7354 12.7855C66.7354 8.69961 69.7537 5.62109 73.7696 5.62109C76.7394 5.62109 79.1719 7.30998 79.975 9.85813L76.8595 11.4226C76.445 9.95887 75.2531 9.02554 73.7696 9.02554C71.846 9.02554 70.5083 10.59 70.5083 12.8092C70.5083 15.0285 71.846 16.593 73.7696 16.593C75.2788 16.593 76.4479 15.6596 76.8595 14.1959L79.975 15.7841C79.2204 18.2315 76.788 19.9974 73.7696 19.9974C69.7794 19.9974 66.7354 16.8952 66.7354 12.7826V12.7855Z" fill="#2B3670"/>
<path d="M80.2441 12.8093C80.2441 8.64632 83.4083 5.61816 87.3499 5.61816C91.2915 5.61816 94.4556 8.64632 94.4556 12.8093C94.4556 16.9722 91.2915 20.0004 87.3499 20.0004C83.4083 20.0004 80.2441 16.9722 80.2441 12.8093ZM90.6855 12.8093C90.6855 10.6137 89.3479 9.02557 87.3528 9.02557C85.3577 9.02557 84.02 10.6137 84.02 12.8093C84.02 15.0048 85.3577 16.593 87.3528 16.593C89.3479 16.593 90.6855 15.0285 90.6855 12.8093Z" fill="#2B3670"/>
<path d="M99.7807 2.34222C99.7807 1.04865 98.7691 0 97.5212 0C96.2733 0 95.2617 1.04865 95.2617 2.34222C95.2617 3.6358 96.2733 4.68445 97.5212 4.68445C98.7691 4.68445 99.7807 3.6358 99.7807 2.34222Z" fill="#2B3670"/>
<path d="M99.3463 5.92285H95.6963V19.6977H99.3463V5.92285Z" fill="#2B3670"/>
<path d="M113.489 10.8418V19.6981H109.839V11.6507C109.839 10.0626 108.842 9.0285 107.407 9.0285C105.972 9.0285 104.974 10.0626 104.974 11.6507V19.6981H101.324V5.92331H104.731V7.5885C105.412 6.2522 106.775 5.62109 108.456 5.62109C111.448 5.62109 113.492 7.71591 113.492 10.8418H113.489Z" fill="#2B3670"/>
<path d="M114.486 16.0389L117.187 14.7263C117.893 16.2641 119.085 17.0967 120.595 17.0967C121.738 17.0967 122.47 16.6167 122.47 15.8611C122.47 14.9515 121.398 14.676 120.938 14.5485L118.602 13.9174C116.193 13.2626 115.024 11.7989 115.024 9.90557C115.024 7.35742 117.142 5.61816 120.257 5.61816C122.984 5.61816 125.148 6.98113 126 9.22706L123.273 10.5397C122.835 9.35447 121.692 8.64631 120.254 8.64631C119.183 8.64631 118.551 9.07595 118.551 9.78113C118.551 10.6137 119.477 10.8656 119.914 10.993L122.372 11.6745C124.733 12.3293 126 13.7426 126 15.71C126 18.2582 123.784 19.9974 120.597 19.9974C117.702 19.9974 115.315 18.5337 114.489 16.0359L114.486 16.0389Z" fill="#2B3670"/>
</svg>
