<svg width="126" height="20" viewBox="0 0 126 20" fill="none" xmlns="http://www.w3.org/2000/svg">
<path opacity="0.8" d="M17.839 11.6206V17.748C17.839 18.6547 17.1301 19.3925 16.2526 19.3925H9.08398V9.9762H16.2526C17.1301 9.9762 17.839 10.711 17.839 11.6206Z" fill="white"/>
<path d="M10.9355 4.48001C10.9355 6.45631 12.4819 8.05928 14.3884 8.05928C16.2949 8.05928 17.8412 6.45631 17.8412 4.48001C17.8412 2.50372 16.2949 0.900757 14.3884 0.900757C12.4819 0.900757 10.9355 2.50372 10.9355 4.48001Z" fill="white"/>
<path d="M9.08371 16.3408V2.5452C9.08371 1.63853 8.37485 0.900757 7.49735 0.900757H1.58637C0.711724 0.900757 0 1.63557 0 2.5452V11.6208C0 15.9141 3.35566 19.3926 7.49735 19.3926H12.7423C9.67253 19.3926 9.08371 16.3408 9.08371 16.3408Z" fill="white"/>
<path d="M22.6406 0.900757H26.4136V16.2904H34.5655V19.6948H22.6406V0.900757Z" fill="white"/>
<path d="M47.9999 13.8697H38.6533C38.8734 15.6119 40.0653 16.72 41.866 16.72C43.1551 16.72 44.1041 16.1393 44.6157 15.206L47.5369 16.643C46.7337 18.6608 44.5442 19.9971 41.8174 19.9971C37.6071 19.9971 34.8574 16.7674 34.8574 12.7822C34.8574 8.79706 37.7786 5.6178 41.5744 5.6178C45.3703 5.6178 48.1686 8.59557 48.1686 12.403C48.1686 12.9571 48.12 13.4874 47.9971 13.8667L47.9999 13.8697ZM44.3013 11.0934C44.1555 9.62965 43.0836 8.64595 41.5744 8.64595C40.0653 8.64595 39.0934 9.50521 38.7276 11.0934H44.3013Z" fill="white"/>
<path d="M62.8655 9.20296V14.7289C62.8655 16.1393 63.5943 16.8207 65.1293 16.8207C65.3465 16.8207 65.638 16.797 65.981 16.7467V19.7244C65.4923 19.7985 64.8348 19.8489 64.2775 19.8489C61.0647 19.8489 59.2154 17.9585 59.2154 14.7289V9.20296H54.0847V19.6978H50.4347V9.20296H48.1709V5.92296H50.4347V5.52C50.4347 2.26667 52.3812 0.397034 55.6911 0.397034C56.1056 0.397034 56.6401 0.450365 56.9802 0.524439V3.75408C56.6629 3.70371 56.42 3.67704 56.177 3.67704C54.8136 3.67704 54.0847 4.30815 54.0847 5.52V5.92296H57.0974C58.4608 5.92296 59.2154 5.21777 59.2154 3.80444V1.78666H62.8655V5.92296H65.981V9.20296H62.8655Z" fill="white"/>
<path d="M66.7363 12.7852C66.7363 8.69924 69.7547 5.62073 73.7706 5.62073C76.7404 5.62073 79.1728 7.30961 79.976 9.85776L76.8605 11.4222C76.446 9.9585 75.2541 9.02517 73.7706 9.02517C71.847 9.02517 70.5093 10.5896 70.5093 12.8089C70.5093 15.0281 71.847 16.5926 73.7706 16.5926C75.2798 16.5926 76.4489 15.6592 76.8605 14.1955L79.976 15.7837C79.2214 18.2311 76.789 19.997 73.7706 19.997C69.7804 19.997 66.7363 16.8948 66.7363 12.7822V12.7852Z" fill="white"/>
<path d="M80.2441 12.8089C80.2441 8.64595 83.4083 5.6178 87.3499 5.6178C91.2915 5.6178 94.4556 8.64595 94.4556 12.8089C94.4556 16.9719 91.2915 20 87.3499 20C83.4083 20 80.2441 16.9719 80.2441 12.8089ZM90.6855 12.8089C90.6855 10.6134 89.3479 9.02521 87.3528 9.02521C85.3577 9.02521 84.02 10.6134 84.02 12.8089C84.02 15.0045 85.3577 16.5926 87.3528 16.5926C89.3479 16.5926 90.6855 15.0282 90.6855 12.8089Z" fill="white"/>
<path d="M99.7807 2.34222C99.7807 1.04865 98.7691 0 97.5212 0C96.2733 0 95.2617 1.04865 95.2617 2.34222C95.2617 3.6358 96.2733 4.68444 97.5212 4.68444C98.7691 4.68444 99.7807 3.6358 99.7807 2.34222Z" fill="white"/>
<path d="M99.3463 5.92297H95.6963V19.6978H99.3463V5.92297Z" fill="white"/>
<path d="M113.489 10.8415V19.6978H109.839V11.6504C109.839 10.0622 108.842 9.02814 107.407 9.02814C105.972 9.02814 104.974 10.0622 104.974 11.6504V19.6978H101.324V5.92295H104.731V7.58813C105.412 6.25183 106.775 5.62073 108.456 5.62073C111.448 5.62073 113.492 7.71554 113.492 10.8415H113.489Z" fill="white"/>
<path d="M114.486 16.0385L117.187 14.726C117.893 16.2637 119.085 17.0963 120.595 17.0963C121.738 17.0963 122.47 16.6163 122.47 15.8608C122.47 14.9511 121.398 14.6756 120.938 14.5482L118.602 13.9171C116.193 13.2622 115.024 11.7985 115.024 9.90521C115.024 7.35706 117.142 5.6178 120.257 5.6178C122.984 5.6178 125.148 6.98077 126 9.22669L123.273 10.5393C122.835 9.3541 121.692 8.64595 120.254 8.64595C119.183 8.64595 118.551 9.07558 118.551 9.78077C118.551 10.6134 119.477 10.8652 119.914 10.9926L122.372 11.6741C124.733 12.3289 126 13.7422 126 15.7096C126 18.2578 123.784 19.9971 120.597 19.9971C117.702 19.9971 115.315 18.5334 114.489 16.0356L114.486 16.0385Z" fill="white"/>
</svg>
