<svg width="12" height="12" viewBox="0 0 12 12" fill="none" xmlns="http://www.w3.org/2000/svg">
<path fill-rule="evenodd" clip-rule="evenodd" d="M6.00069 7.86267L9.45302 11.3973C9.79936 11.7547 10.0247 11.7583 10.3774 11.3973L11.07 10.688C11.4094 10.3407 11.4324 10.1127 11.07 9.74167L7.41503 6L11.0704 2.25834C11.4127 1.90667 11.4194 1.66934 11.0704 1.31167L10.3777 0.60267C10.0184 0.23467 9.79636 0.25167 9.45336 0.60267L6.00069 4.13734L2.54836 0.603004C2.20536 0.252004 1.98336 0.235004 1.62403 0.603004L0.931359 1.312C0.582025 1.66967 0.588359 1.907 0.931359 2.25867L4.58636 6L0.931359 9.74167C0.569025 10.1127 0.588359 10.3407 0.931359 10.688L1.62369 11.3973C1.97336 11.7583 2.19869 11.7547 2.54803 11.3973L6.00069 7.86267Z" fill="#767C99"/>
</svg>
