<svg width="237" height="24" viewBox="0 0 237 24" fill="none" xmlns="http://www.w3.org/2000/svg">
<path d="M221 5.75C220.59 5.75 220.25 5.41 220.25 5V2C220.25 1.59 220.59 1.25 221 1.25C221.41 1.25 221.75 1.59 221.75 2V5C221.75 5.41 221.41 5.75 221 5.75Z" fill="#393CFF"/>
<path d="M229 5.75C228.59 5.75 228.25 5.41 228.25 5V2C228.25 1.59 228.59 1.25 229 1.25C229.41 1.25 229.75 1.59 229.75 2V5C229.75 5.41 229.41 5.75 229 5.75Z" fill="#393CFF"/>
<path d="M221.5 14.5009C221.37 14.5009 221.24 14.4709 221.12 14.4209C220.99 14.3709 220.89 14.3009 220.79 14.2109C220.61 14.0209 220.5 13.7609 220.5 13.5009C220.5 13.2409 220.61 12.9809 220.79 12.7909C220.89 12.7009 221 12.6309 221.12 12.5809C221.36 12.4809 221.64 12.4809 221.88 12.5809C222 12.6309 222.11 12.7009 222.21 12.7909C222.25 12.8409 222.3 12.8909 222.33 12.9409C222.37 13.0009 222.4 13.0609 222.42 13.1209C222.45 13.1809 222.47 13.2409 222.48 13.3009C222.49 13.3709 222.5 13.4409 222.5 13.5009C222.5 13.7609 222.39 14.0209 222.21 14.2109C222.11 14.3009 222 14.3709 221.88 14.4209C221.76 14.4709 221.63 14.5009 221.5 14.5009Z" fill="#393CFF"/>
<path d="M225 14.4992C224.87 14.4992 224.74 14.4692 224.62 14.4192C224.49 14.3692 224.39 14.2992 224.29 14.2092C224.11 14.0192 224 13.7592 224 13.4992C224 13.4392 224.01 13.3692 224.02 13.2992C224.03 13.2392 224.05 13.1792 224.08 13.1192C224.1 13.0592 224.13 12.9992 224.17 12.9392C224.21 12.8892 224.25 12.8392 224.29 12.7892C224.66 12.4192 225.33 12.4192 225.71 12.7892C225.75 12.8392 225.79 12.8892 225.83 12.9392C225.87 12.9992 225.9 13.0592 225.92 13.1192C225.95 13.1792 225.97 13.2392 225.98 13.2992C225.99 13.3692 226 13.4392 226 13.4992C226 13.7592 225.89 14.0192 225.71 14.2092C225.52 14.3892 225.27 14.4992 225 14.4992Z" fill="#393CFF"/>
<path d="M221.5 18.0009C221.37 18.0009 221.24 17.9709 221.12 17.9209C221 17.8709 220.89 17.8009 220.79 17.7109C220.61 17.5209 220.5 17.2609 220.5 17.0009C220.5 16.9409 220.51 16.8709 220.52 16.8109C220.53 16.7409 220.55 16.6809 220.58 16.6209C220.6 16.5609 220.63 16.5009 220.67 16.4409C220.7 16.3909 220.75 16.3409 220.79 16.2909C220.89 16.2009 221 16.1309 221.12 16.0809C221.36 15.9809 221.64 15.9809 221.88 16.0809C222 16.1309 222.11 16.2009 222.21 16.2909C222.25 16.3409 222.3 16.3909 222.33 16.4409C222.37 16.5009 222.4 16.5609 222.42 16.6209C222.45 16.6809 222.47 16.7409 222.48 16.8109C222.49 16.8709 222.5 16.9409 222.5 17.0009C222.5 17.2609 222.39 17.5209 222.21 17.7109C222.11 17.8009 222 17.8709 221.88 17.9209C221.76 17.9709 221.63 18.0009 221.5 18.0009Z" fill="#393CFF"/>
<path d="M233.5 9.83984H216.5C216.09 9.83984 215.75 9.49984 215.75 9.08984C215.75 8.67984 216.09 8.33984 216.5 8.33984H233.5C233.91 8.33984 234.25 8.67984 234.25 9.08984C234.25 9.49984 233.91 9.83984 233.5 9.83984Z" fill="#393CFF"/>
<path d="M228.82 22.7796C228.44 22.7796 228.08 22.6396 227.82 22.3796C227.51 22.0696 227.37 21.6196 227.44 21.1496L227.63 19.7996C227.68 19.4496 227.89 19.0296 228.14 18.7796L231.68 15.2396C232.16 14.7596 232.63 14.5096 233.14 14.4596C233.77 14.3996 234.38 14.6596 234.96 15.2396C235.57 15.8496 236.39 17.0896 234.96 18.5196L231.42 22.0596C231.17 22.3096 230.75 22.5196 230.4 22.5696L229.05 22.7596C228.97 22.7696 228.9 22.7796 228.82 22.7796ZM233.31 15.9496C233.3 15.9496 233.29 15.9496 233.28 15.9496C233.14 15.9596 232.95 16.0896 232.74 16.2996L229.2 19.8396C229.17 19.8696 229.12 19.9696 229.12 20.0096L228.94 21.2596L230.19 21.0796C230.23 21.0696 230.33 21.0196 230.36 20.9896L233.9 17.4496C234.34 17.0096 234.4 16.7896 233.9 16.2896C233.74 16.1396 233.51 15.9496 233.31 15.9496Z" fill="#393CFF"/>
<path d="M233.92 19.2509C233.85 19.2509 233.78 19.2409 233.72 19.2209C232.4 18.8509 231.35 17.8009 230.98 16.4809C230.87 16.0809 231.1 15.6709 231.5 15.5509C231.9 15.4409 232.31 15.6709 232.43 16.0709C232.66 16.8909 233.31 17.5409 234.13 17.7709C234.53 17.8809 234.76 18.3009 234.65 18.7009C234.55 19.0309 234.25 19.2509 233.92 19.2509Z" fill="#393CFF"/>
<path d="M225 22.75H221C217.35 22.75 215.25 20.65 215.25 17V8.5C215.25 4.85 217.35 2.75 221 2.75H229C232.65 2.75 234.75 4.85 234.75 8.5V12C234.75 12.41 234.41 12.75 234 12.75C233.59 12.75 233.25 12.41 233.25 12V8.5C233.25 5.64 231.86 4.25 229 4.25H221C218.14 4.25 216.75 5.64 216.75 8.5V17C216.75 19.86 218.14 21.25 221 21.25H225C225.41 21.25 225.75 21.59 225.75 22C225.75 22.41 225.41 22.75 225 22.75Z" fill="#393CFF"/>
<path d="M12 22.75C6.07 22.75 1.25 17.93 1.25 12C1.25 6.07 6.07 1.25 12 1.25C17.93 1.25 22.75 6.07 22.75 12C22.75 17.93 17.93 22.75 12 22.75ZM12 2.75C6.9 2.75 2.75 6.9 2.75 12C2.75 17.1 6.9 21.25 12 21.25C17.1 21.25 21.25 17.1 21.25 12C21.25 6.9 17.1 2.75 12 2.75Z" fill="#393CFF"/>
<path d="M15.71 15.9298C15.58 15.9298 15.45 15.8998 15.33 15.8198L12.23 13.9698C11.46 13.5098 10.89 12.4998 10.89 11.6098V7.50977C10.89 7.09977 11.23 6.75977 11.64 6.75977C12.05 6.75977 12.39 7.09977 12.39 7.50977V11.6098C12.39 11.9698 12.69 12.4998 13 12.6798L16.1 14.5298C16.46 14.7398 16.57 15.1998 16.36 15.5598C16.21 15.7998 15.96 15.9298 15.71 15.9298Z" fill="#393CFF"/>
</svg>
