<svg width="30" height="30" viewBox="0 0 30 30" fill="none" xmlns="http://www.w3.org/2000/svg">
<path d="M15.0124 28.4249C14.2249 28.4249 13.4499 28.1624 12.8374 27.6374L10.8624 25.9499C10.6624 25.7749 10.1624 25.5999 9.8999 25.5999H7.7124C5.8624 25.5999 4.3624 24.0999 4.3624 22.2499V20.1124C4.3624 19.8499 4.1874 19.3499 4.0249 19.1624L2.3249 17.1624C1.2999 15.9499 1.2999 14.0499 2.3249 12.8249L4.0249 10.8249C4.1874 10.6374 4.3624 10.1374 4.3624 9.8749V7.7499C4.3624 5.8999 5.8624 4.3999 7.7124 4.3999H9.8749C10.1374 4.3999 10.6249 4.2124 10.8374 4.0374L12.8124 2.3499C14.0374 1.3124 15.9499 1.3124 17.1749 2.3499L19.1499 4.0374C19.3499 4.2124 19.8624 4.3874 20.1249 4.3874H22.2499C24.0999 4.3874 25.5999 5.8874 25.5999 7.7374V9.8624C25.5999 10.1249 25.7874 10.6124 25.9624 10.8249L27.6499 12.7999C28.6999 14.0374 28.6874 15.9499 27.6499 17.1624L25.9624 19.1374C25.7874 19.3499 25.6124 19.8374 25.6124 20.0999V22.2249C25.6124 24.0749 24.1124 25.5749 22.2624 25.5749H20.1374C19.8749 25.5749 19.3874 25.7624 19.1624 25.9374L17.1874 27.6249C16.5749 28.1624 15.7874 28.4249 15.0124 28.4249ZM7.7124 6.2749C6.8999 6.2749 6.2374 6.9374 6.2374 7.7499V9.8749C6.2374 10.5874 5.9124 11.4874 5.4499 12.0374L3.7499 14.0374C3.3249 14.5499 3.3249 15.4499 3.7499 15.9499L5.4374 17.9374C5.8874 18.4499 6.2249 19.3874 6.2249 20.0999V22.2374C6.2249 23.0499 6.8874 23.7124 7.6999 23.7124H9.8749C10.5749 23.7124 11.4999 24.0499 12.0499 24.5124L14.0374 26.2124C14.5499 26.6499 15.4499 26.6499 15.9624 26.2124L17.9374 24.5249C18.4999 24.0499 19.4124 23.7249 20.1124 23.7249H22.2374C23.0499 23.7249 23.7124 23.0624 23.7124 22.2499V20.1249C23.7124 19.4249 24.0499 18.5124 24.5124 17.9499L26.2124 15.9624C26.6499 15.4499 26.6499 14.5499 26.2124 14.0374L24.5249 12.0624C24.0499 11.4999 23.7249 10.5874 23.7249 9.8874V7.7499C23.7249 6.9374 23.0624 6.2749 22.2499 6.2749H20.1249C19.4124 6.2749 18.4874 5.9374 17.9374 5.4749L15.9499 3.7749C15.4374 3.3374 14.5499 3.3374 14.0249 3.7749L12.0624 5.4749C11.4999 5.9374 10.5874 6.2749 9.8749 6.2749H7.7124Z" fill="#393CFF"/>
<path d="M15 21.0874C14.3125 21.0874 13.75 20.5249 13.75 19.8374C13.75 19.1499 14.3 18.5874 15 18.5874C15.6875 18.5874 16.25 19.1499 16.25 19.8374C16.25 20.5249 15.7 21.0874 15 21.0874Z" fill="#393CFF"/>
<path d="M15 17.1501C14.4875 17.1501 14.0625 16.7251 14.0625 16.2126V10.1626C14.0625 9.6501 14.4875 9.2251 15 9.2251C15.5125 9.2251 15.9375 9.6501 15.9375 10.1626V16.2001C15.9375 16.7251 15.525 17.1501 15 17.1501Z" fill="#393CFF"/>
</svg>
