<svg width="111" height="20" viewBox="0 0 111 20" fill="none" xmlns="http://www.w3.org/2000/svg">
<path d="M12.5003 4.16667C12.5003 6.00667 13.9937 7.5 15.8337 7.5C17.6737 7.5 19.167 6.00667 19.167 4.16667C19.167 2.32667 17.6737 0.833334 15.8337 0.833334C13.9937 0.833334 12.5003 2.32667 12.5003 4.16667ZM17.8337 4.16667C17.8337 5.26889 16.9359 6.16667 15.8337 6.16667C14.7314 6.16667 13.8337 5.26889 13.8337 4.16667C13.8337 3.06444 14.7314 2.16667 15.8337 2.16667C16.9359 2.16667 17.8337 3.06444 17.8337 4.16667Z" fill="#767C99"/>
<path d="M13.9583 15.833C13.9583 16.1747 13.675 16.458 13.3333 16.458L7.5 16.458C7.15833 16.458 6.875 16.1747 6.875 15.833C6.875 15.4913 7.15833 15.208 7.5 15.208L13.3333 15.208C13.675 15.208 13.9583 15.4913 13.9583 15.833Z" fill="#767C99"/>
<path d="M13.5417 3.95801C13.5417 4.29967 13.275 4.58301 12.9534 4.58301L7.46324 4.58301C7.14167 4.58301 6.875 4.29967 6.875 3.95801C6.875 3.61634 7.14167 3.33301 7.46324 3.33301L12.9534 3.33301C13.275 3.33301 13.5417 3.61634 13.5417 3.95801Z" fill="#767C99"/>
<path d="M18.958 15.833C18.958 17.558 17.558 18.958 15.833 18.958C14.108 18.958 12.708 17.558 12.708 15.833C12.708 14.108 14.108 12.708 15.833 12.708C17.558 12.708 18.958 14.108 18.958 15.833ZM13.958 15.833C13.958 16.8663 14.7997 17.708 15.833 17.708C16.8663 17.708 17.708 16.8663 17.708 15.833C17.708 14.7997 16.8663 13.958 15.833 13.958C14.7997 13.958 13.958 14.7997 13.958 15.833Z" fill="#767C99"/>
<path d="M0.833333 4.16667C0.833333 6.00667 2.32667 7.5 4.16667 7.5C6.00667 7.5 7.5 6.00667 7.5 4.16667C7.5 2.32667 6.00667 0.833333 4.16667 0.833333C2.32667 0.833333 0.833334 2.32667 0.833333 4.16667ZM6.16667 4.16667C6.16667 5.26889 5.26889 6.16667 4.16667 6.16667C3.06444 6.16667 2.16667 5.26889 2.16667 4.16667C2.16667 3.06444 3.06444 2.16667 4.16667 2.16667C5.26889 2.16667 6.16667 3.06444 6.16667 4.16667Z" fill="#767C99"/>
<circle cx="4" cy="4" r="3" fill="#767C99"/>
<path d="M44.5003 4.16667C44.5003 6.00667 45.9937 7.5 47.8337 7.5C49.6737 7.5 51.167 6.00667 51.167 4.16667C51.167 2.32667 49.6737 0.833334 47.8337 0.833334C45.9937 0.833334 44.5003 2.32667 44.5003 4.16667ZM49.8337 4.16667C49.8337 5.26889 48.9359 6.16667 47.8337 6.16667C46.7314 6.16667 45.8337 5.26889 45.8337 4.16667C45.8337 3.06444 46.7314 2.16667 47.8337 2.16667C48.9359 2.16667 49.8337 3.06444 49.8337 4.16667Z" fill="#767C99"/>
<path d="M45.9583 15.833C45.9583 16.1747 45.675 16.458 45.3333 16.458L39.5 16.458C39.1583 16.458 38.875 16.1747 38.875 15.833C38.875 15.4913 39.1583 15.208 39.5 15.208L45.3333 15.208C45.675 15.208 45.9583 15.4913 45.9583 15.833Z" fill="#767C99"/>
<path d="M45.5417 3.95801C45.5417 4.29967 45.275 4.58301 44.9534 4.58301L39.4632 4.58301C39.1417 4.58301 38.875 4.29967 38.875 3.95801C38.875 3.61634 39.1417 3.33301 39.4632 3.33301L44.9534 3.33301C45.275 3.33301 45.5417 3.61634 45.5417 3.95801Z" fill="#767C99"/>
<path d="M50.958 15.833C50.958 17.558 49.558 18.958 47.833 18.958C46.108 18.958 44.708 17.558 44.708 15.833C44.708 14.108 46.108 12.708 47.833 12.708C49.558 12.708 50.958 14.108 50.958 15.833ZM45.958 15.833C45.958 16.8663 46.7997 17.708 47.833 17.708C48.8663 17.708 49.708 16.8663 49.708 15.833C49.708 14.7997 48.8663 13.958 47.833 13.958C46.7997 13.958 45.958 14.7997 45.958 15.833Z" fill="#767C99"/>
<path d="M32.8333 4.16667C32.8333 6.00667 34.3267 7.5 36.1667 7.5C38.0067 7.5 39.5 6.00667 39.5 4.16667C39.5 2.32667 38.0067 0.833333 36.1667 0.833333C34.3267 0.833333 32.8333 2.32667 32.8333 4.16667ZM38.1667 4.16667C38.1667 5.26889 37.2689 6.16667 36.1667 6.16667C35.0644 6.16667 34.1667 5.26889 34.1667 4.16667C34.1667 3.06444 35.0644 2.16667 36.1667 2.16667C37.2689 2.16667 38.1667 3.06444 38.1667 4.16667Z" fill="#767C99"/>
<circle cx="48" cy="4" r="3" fill="#767C99"/>
<path d="M71.5003 4.16667C71.5003 6.00667 72.9937 7.5 74.8337 7.5C76.6737 7.5 78.167 6.00667 78.167 4.16667C78.167 2.32667 76.6737 0.833334 74.8337 0.833334C72.9937 0.833334 71.5003 2.32667 71.5003 4.16667ZM76.8337 4.16667C76.8337 5.26889 75.9359 6.16667 74.8337 6.16667C73.7314 6.16667 72.8337 5.26889 72.8337 4.16667C72.8337 3.06444 73.7314 2.16667 74.8337 2.16667C75.9359 2.16667 76.8337 3.06444 76.8337 4.16667Z" fill="#767C99"/>
<path d="M72.9583 15.833C72.9583 16.1747 72.675 16.458 72.3333 16.458L66.5 16.458C66.1583 16.458 65.875 16.1747 65.875 15.833C65.875 15.4913 66.1583 15.208 66.5 15.208L72.3333 15.208C72.675 15.208 72.9583 15.4913 72.9583 15.833Z" fill="#767C99"/>
<path d="M72.5417 3.95801C72.5417 4.29967 72.275 4.58301 71.9534 4.58301L66.4632 4.58301C66.1417 4.58301 65.875 4.29967 65.875 3.95801C65.875 3.61634 66.1417 3.33301 66.4632 3.33301L71.9534 3.33301C72.275 3.33301 72.5417 3.61634 72.5417 3.95801Z" fill="#767C99"/>
<path d="M77.958 15.833C77.958 17.558 76.558 18.958 74.833 18.958C73.108 18.958 71.708 17.558 71.708 15.833C71.708 14.108 73.108 12.708 74.833 12.708C76.558 12.708 77.958 14.108 77.958 15.833ZM72.958 15.833C72.958 16.8663 73.7997 17.708 74.833 17.708C75.8663 17.708 76.708 16.8663 76.708 15.833C76.708 14.7997 75.8663 13.958 74.833 13.958C73.7997 13.958 72.958 14.7997 72.958 15.833Z" fill="#767C99"/>
<path d="M59.8333 4.16667C59.8333 6.00667 61.3267 7.5 63.1667 7.5C65.0067 7.5 66.5 6.00667 66.5 4.16667C66.5 2.32667 65.0067 0.833333 63.1667 0.833333C61.3267 0.833333 59.8333 2.32667 59.8333 4.16667ZM65.1667 4.16667C65.1667 5.26889 64.2689 6.16667 63.1667 6.16667C62.0644 6.16667 61.1667 5.26889 61.1667 4.16667C61.1667 3.06444 62.0644 2.16667 63.1667 2.16667C64.2689 2.16667 65.1667 3.06444 65.1667 4.16667Z" fill="#767C99"/>
<circle cx="63.5" cy="15.5" r="2.5" fill="#767C99"/>
<path d="M103.5 4.16667C103.5 6.00667 104.994 7.5 106.834 7.5C108.674 7.5 110.167 6.00667 110.167 4.16667C110.167 2.32667 108.674 0.833334 106.834 0.833334C104.994 0.833334 103.5 2.32667 103.5 4.16667ZM108.834 4.16667C108.834 5.26889 107.936 6.16667 106.834 6.16667C105.731 6.16667 104.834 5.26889 104.834 4.16667C104.834 3.06444 105.731 2.16667 106.834 2.16667C107.936 2.16667 108.834 3.06444 108.834 4.16667Z" fill="#767C99"/>
<path d="M104.958 15.833C104.958 16.1747 104.675 16.458 104.333 16.458L98.5 16.458C98.1583 16.458 97.875 16.1747 97.875 15.833C97.875 15.4913 98.1583 15.208 98.5 15.208L104.333 15.208C104.675 15.208 104.958 15.4913 104.958 15.833Z" fill="#767C99"/>
<path d="M104.542 3.95801C104.542 4.29967 104.275 4.58301 103.953 4.58301L98.4632 4.58301C98.1417 4.58301 97.875 4.29967 97.875 3.95801C97.875 3.61634 98.1417 3.33301 98.4632 3.33301L103.953 3.33301C104.275 3.33301 104.542 3.61634 104.542 3.95801Z" fill="#767C99"/>
<path d="M109.958 15.833C109.958 17.558 108.558 18.958 106.833 18.958C105.108 18.958 103.708 17.558 103.708 15.833C103.708 14.108 105.108 12.708 106.833 12.708C108.558 12.708 109.958 14.108 109.958 15.833ZM104.958 15.833C104.958 16.8663 105.8 17.708 106.833 17.708C107.866 17.708 108.708 16.8663 108.708 15.833C108.708 14.7997 107.866 13.958 106.833 13.958C105.8 13.958 104.958 14.7997 104.958 15.833Z" fill="#767C99"/>
<path d="M15.625 6.66634C15.9667 6.66634 16.25 6.93301 16.25 7.25458L16.25 12.7448C16.25 13.0663 15.9667 13.333 15.625 13.333C15.2833 13.333 15 13.0663 15 12.7448L15 7.25458C15 6.93301 15.2833 6.66634 15.625 6.66634Z" fill="#767C99"/>
<path d="M3.95801 6.66634C4.29967 6.66634 4.58301 6.93301 4.58301 7.25458L4.58301 12.7448C4.58301 13.0663 4.29967 13.333 3.95801 13.333C3.61634 13.333 3.33301 13.0663 3.33301 12.7448L3.33301 7.25458C3.33301 6.93301 3.61634 6.66634 3.95801 6.66634Z" fill="#767C99"/>
<path d="M7.70866 15.6247C7.70866 17.4663 6.21699 18.958 4.37533 18.958C2.53366 18.958 1.04199 17.4663 1.04199 15.6247C1.04199 13.783 2.53366 12.2913 4.37533 12.2913C6.21699 12.2913 7.70866 13.783 7.70866 15.6247ZM2.29199 15.6247C2.29199 16.7747 3.22533 17.708 4.37533 17.708C5.52533 17.708 6.45866 16.7747 6.45866 15.6247C6.45866 14.4747 5.52533 13.5413 4.37533 13.5413C3.22533 13.5413 2.29199 14.4747 2.29199 15.6247Z" fill="#767C99"/>
<path d="M47.625 6.66634C47.9667 6.66634 48.25 6.93301 48.25 7.25458L48.25 12.7448C48.25 13.0663 47.9667 13.333 47.625 13.333C47.2833 13.333 47 13.0663 47 12.7448L47 7.25458C47 6.93301 47.2833 6.66634 47.625 6.66634Z" fill="#767C99"/>
<path d="M35.958 6.66634C36.2997 6.66634 36.583 6.93301 36.583 7.25458L36.583 12.7448C36.583 13.0663 36.2997 13.333 35.958 13.333C35.6163 13.333 35.333 13.0663 35.333 12.7448L35.333 7.25458C35.333 6.93301 35.6163 6.66634 35.958 6.66634Z" fill="#767C99"/>
<path d="M39.7087 15.6247C39.7087 17.4663 38.217 18.958 36.3753 18.958C34.5337 18.958 33.042 17.4663 33.042 15.6247C33.042 13.783 34.5337 12.2913 36.3753 12.2913C38.217 12.2913 39.7087 13.783 39.7087 15.6247ZM34.292 15.6247C34.292 16.7747 35.2253 17.708 36.3753 17.708C37.5253 17.708 38.4587 16.7747 38.4587 15.6247C38.4587 14.4747 37.5253 13.5413 36.3753 13.5413C35.2253 13.5413 34.292 14.4747 34.292 15.6247Z" fill="#767C99"/>
<path d="M74.625 6.66634C74.9667 6.66634 75.25 6.93301 75.25 7.25458L75.25 12.7448C75.25 13.0663 74.9667 13.333 74.625 13.333C74.2833 13.333 74 13.0663 74 12.7448L74 7.25458C74 6.93301 74.2833 6.66634 74.625 6.66634Z" fill="#767C99"/>
<path d="M62.958 6.66634C63.2997 6.66634 63.583 6.93301 63.583 7.25458L63.583 12.7448C63.583 13.0663 63.2997 13.333 62.958 13.333C62.6163 13.333 62.333 13.0663 62.333 12.7448L62.333 7.25458C62.333 6.93301 62.6163 6.66634 62.958 6.66634Z" fill="#767C99"/>
<path d="M66.7087 15.6247C66.7087 17.4663 65.217 18.958 63.3753 18.958C61.5337 18.958 60.042 17.4663 60.042 15.6247C60.042 13.783 61.5337 12.2913 63.3753 12.2913C65.217 12.2913 66.7087 13.783 66.7087 15.6247ZM61.292 15.6247C61.292 16.7747 62.2253 17.708 63.3753 17.708C64.5253 17.708 65.4587 16.7747 65.4587 15.6247C65.4587 14.4747 64.5253 13.5413 63.3753 13.5413C62.2253 13.5413 61.292 14.4747 61.292 15.6247Z" fill="#767C99"/>
<path d="M106.625 6.66634C106.967 6.66634 107.25 6.93301 107.25 7.25458L107.25 12.7448C107.25 13.0663 106.967 13.333 106.625 13.333C106.283 13.333 106 13.0663 106 12.7448L106 7.25458C106 6.93301 106.283 6.66634 106.625 6.66634Z" fill="#767C99"/>
<path d="M94.958 6.66634C95.2997 6.66634 95.583 6.93301 95.583 7.25458L95.583 12.7448C95.583 13.0663 95.2997 13.333 94.958 13.333C94.6163 13.333 94.333 13.0663 94.333 12.7448L94.333 7.25458C94.333 6.93301 94.6163 6.66634 94.958 6.66634Z" fill="#767C99"/>
<path d="M98.7087 15.6247C98.7087 17.4663 97.217 18.958 95.3753 18.958C93.5337 18.958 92.042 17.4663 92.042 15.6247C92.042 13.783 93.5337 12.2913 95.3753 12.2913C97.217 12.2913 98.7087 13.783 98.7087 15.6247ZM93.292 15.6247C93.292 16.7747 94.2253 17.708 95.3753 17.708C96.5253 17.708 97.4587 16.7747 97.4587 15.6247C97.4587 14.4747 96.5253 13.5413 95.3753 13.5413C94.2253 13.5413 93.292 14.4747 93.292 15.6247Z" fill="#767C99"/>
<path d="M91.8333 4.16667C91.8333 6.00667 93.3267 7.5 95.1667 7.5C97.0067 7.5 98.5 6.00667 98.5 4.16667C98.5 2.32667 97.0067 0.833333 95.1667 0.833333C93.3267 0.833333 91.8333 2.32667 91.8333 4.16667ZM97.1667 4.16667C97.1667 5.26889 96.2689 6.16667 95.1667 6.16667C94.0644 6.16667 93.1667 5.26889 93.1667 4.16667C93.1667 3.06444 94.0644 2.16667 95.1667 2.16667C96.2689 2.16667 97.1667 3.06444 97.1667 4.16667Z" fill="#767C99"/>
<circle cx="106.5" cy="15.5" r="2.5" fill="#767C99"/>
</svg>
