<svg width="245" height="37" viewBox="0 0 245 37" fill="none" xmlns="http://www.w3.org/2000/svg">
<rect x="208" width="37" height="37" rx="12" fill="url(#paint0_linear_207_10813)"/>
<g clip-path="url(#clip0_207_10813)">
<path d="M234.531 15.9123L226.091 24.3524C225.466 24.9775 224.452 24.9775 223.826 24.3524L219.469 19.9949C218.844 19.3698 218.844 18.3557 219.469 17.7305C220.094 17.1051 221.108 17.1051 221.733 17.7302L224.959 20.9557L232.267 13.6477C232.892 13.0223 233.906 13.0228 234.531 13.6477C235.156 14.273 235.156 15.2867 234.531 15.9123Z" fill="#463C05"/>
</g>
<rect width="37" height="37" rx="12" fill="#394062"/>
<path fill-rule="evenodd" clip-rule="evenodd" d="M16.5 12C16.5 11.1716 17.1716 10.5 18 10.5C22.6944 10.5 26.5 14.3056 26.5 19C26.5 23.6944 22.6944 27.5 18 27.5C13.3056 27.5 9.5 23.6944 9.5 19C9.5 18.1716 10.1716 17.5 11 17.5C11.8284 17.5 12.5 18.1716 12.5 19C12.5 22.0376 14.9624 24.5 18 24.5C21.0376 24.5 23.5 22.0376 23.5 19C23.5 15.9624 21.0376 13.5 18 13.5C17.1716 13.5 16.5 12.8284 16.5 12Z" fill="#6F78A3"/>
<rect x="104" width="37" height="37" rx="12" fill="#394062"/>
<g clip-path="url(#clip1_207_10813)">
<path d="M130.531 15.9123L122.091 24.3524C121.466 24.9775 120.452 24.9775 119.826 24.3524L115.469 19.9949C114.844 19.3698 114.844 18.3557 115.469 17.7305C116.094 17.1051 117.108 17.1051 117.733 17.7302L120.959 20.9557L128.267 13.6477C128.892 13.0223 129.906 13.0228 130.531 13.6477C131.156 14.273 131.156 15.2867 130.531 15.9123Z" fill="#6F78A3"/>
</g>
<defs>
<linearGradient id="paint0_linear_207_10813" x1="226.5" y1="0" x2="226.5" y2="37" gradientUnits="userSpaceOnUse">
<stop stop-color="#FFE03E"/>
<stop offset="1" stop-color="#F0CA00"/>
</linearGradient>
<clipPath id="clip0_207_10813">
<rect width="16" height="16" fill="white" transform="translate(219 11)"/>
</clipPath>
<clipPath id="clip1_207_10813">
<rect width="16" height="16" fill="white" transform="translate(115 11)"/>
</clipPath>
</defs>
</svg>
