<svg width="360" height="24" viewBox="0 0 360 24" fill="none" xmlns="http://www.w3.org/2000/svg">
<path d="M8 5.75C7.59 5.75 7.25 5.41 7.25 5V2C7.25 1.59 7.59 1.25 8 1.25C8.41 1.25 8.75 1.59 8.75 2V5C8.75 5.41 8.41 5.75 8 5.75Z" fill="#657D94"/>
<path d="M16 5.75C15.59 5.75 15.25 5.41 15.25 5V2C15.25 1.59 15.59 1.25 16 1.25C16.41 1.25 16.75 1.59 16.75 2V5C16.75 5.41 16.41 5.75 16 5.75Z" fill="#657D94"/>
<path d="M8.5 14.5002C8.24 14.5002 7.98 14.3902 7.79 14.2102C7.61 14.0202 7.5 13.7702 7.5 13.5002C7.5 13.3702 7.53 13.2402 7.58 13.1202C7.63 13.0002 7.7 12.8902 7.79 12.7902C8.16 12.4202 8.83 12.4202 9.21 12.7902C9.39 12.9802 9.5 13.2402 9.5 13.5002C9.5 13.5602 9.49 13.6302 9.48 13.7002C9.47 13.7602 9.45 13.8202 9.42 13.8802C9.4 13.9402 9.37 14.0002 9.33 14.0602C9.29 14.1102 9.25 14.1602 9.21 14.2102C9.02 14.3902 8.76 14.5002 8.5 14.5002Z" fill="#657D94"/>
<path d="M12 14.4998C11.87 14.4998 11.74 14.4698 11.62 14.4198C11.49 14.3698 11.39 14.2998 11.29 14.2098C11.11 14.0198 11 13.7698 11 13.4998C11 13.3698 11.03 13.2398 11.08 13.1198C11.13 12.9998 11.2 12.8898 11.29 12.7898C11.39 12.6998 11.49 12.6298 11.62 12.5798C11.99 12.4298 12.43 12.5098 12.71 12.7898C12.89 12.9798 13 13.2398 13 13.4998C13 13.5598 12.99 13.6298 12.98 13.6998C12.97 13.7598 12.95 13.8198 12.92 13.8798C12.9 13.9398 12.87 13.9998 12.83 14.0598C12.8 14.1098 12.75 14.1598 12.71 14.2098C12.52 14.3898 12.26 14.4998 12 14.4998Z" fill="#657D94"/>
<path d="M8.5 17.9998C8.37 17.9998 8.24 17.9698 8.12 17.9198C7.99 17.8698 7.88 17.7998 7.79 17.7098C7.7 17.6198 7.63 17.5098 7.58 17.3798C7.53 17.2598 7.5 17.1298 7.5 16.9998C7.5 16.8698 7.53 16.7398 7.58 16.6198C7.63 16.4898 7.7 16.3798 7.79 16.2898C7.88 16.1998 7.99 16.1298 8.12 16.0798C8.36 15.9798 8.64 15.9698 8.88 16.0798C9.01 16.1298 9.12 16.1998 9.21 16.2898C9.3 16.3798 9.37 16.4898 9.42 16.6198C9.47 16.7398 9.5 16.8698 9.5 16.9998C9.5 17.1298 9.47 17.2598 9.42 17.3798C9.37 17.5098 9.3 17.6198 9.21 17.7098C9.12 17.7998 9.01 17.8698 8.88 17.9198C8.76 17.9698 8.63 17.9998 8.5 17.9998Z" fill="#657D94"/>
<path d="M20.5 9.83984H3.5C3.09 9.83984 2.75 9.49984 2.75 9.08984C2.75 8.67984 3.09 8.33984 3.5 8.33984H20.5C20.91 8.33984 21.25 8.67984 21.25 9.08984C21.25 9.49984 20.91 9.83984 20.5 9.83984Z" fill="#657D94"/>
<path d="M18 23.75C16.83 23.75 15.72 23.33 14.87 22.56C14.51 22.26 14.19 21.88 13.93 21.44C13.49 20.72 13.25 19.87 13.25 19C13.25 16.38 15.38 14.25 18 14.25C19.36 14.25 20.66 14.84 21.56 15.86C22.33 16.74 22.75 17.85 22.75 19C22.75 19.87 22.51 20.72 22.06 21.45C21.22 22.87 19.66 23.75 18 23.75ZM18 15.75C16.21 15.75 14.75 17.21 14.75 19C14.75 19.59 14.91 20.17 15.22 20.67C15.39 20.97 15.61 21.22 15.85 21.43C16.45 21.97 17.2 22.25 18 22.25C19.15 22.25 20.19 21.66 20.78 20.68C21.09 20.17 21.25 19.6 21.25 19C21.25 18.22 20.96 17.46 20.44 16.85C19.82 16.15 18.93 15.75 18 15.75Z" fill="#657D94"/>
<path d="M17.4299 20.74C17.2399 20.74 17.0499 20.67 16.8999 20.52L15.9099 19.53C15.6199 19.24 15.6199 18.7601 15.9099 18.4701C16.1999 18.1801 16.6799 18.1801 16.9699 18.4701L17.4499 18.9501L19.0499 17.4701C19.3499 17.1901 19.8299 17.2101 20.1099 17.5101C20.3899 17.8101 20.3699 18.2901 20.0699 18.5701L17.9399 20.5401C17.7899 20.6701 17.6099 20.74 17.4299 20.74Z" fill="#657D94"/>
<path d="M15.37 22.75H8C4.35 22.75 2.25 20.65 2.25 17V8.5C2.25 4.85 4.35 2.75 8 2.75H16C19.65 2.75 21.75 4.85 21.75 8.5V16.36C21.75 16.67 21.56 16.95 21.26 17.06C20.97 17.17 20.64 17.09 20.43 16.85C19.81 16.15 18.92 15.75 17.99 15.75C16.2 15.75 14.74 17.21 14.74 19C14.74 19.59 14.9 20.17 15.21 20.67C15.38 20.97 15.6 21.22 15.84 21.43C16.08 21.63 16.17 21.96 16.06 22.26C15.97 22.55 15.69 22.75 15.37 22.75ZM8 4.25C5.14 4.25 3.75 5.64 3.75 8.5V17C3.75 19.86 5.14 21.25 8 21.25H13.82C13.45 20.57 13.25 19.8 13.25 19C13.25 16.38 15.38 14.25 18 14.25C18.79 14.25 19.57 14.45 20.25 14.82V8.5C20.25 5.64 18.86 4.25 16 4.25H8Z" fill="#657D94"/>
<path d="M99.0001 22.7498H93.0001C91.6801 22.7498 90.5801 22.6198 89.6501 22.3398C89.3101 22.2398 89.0901 21.9098 89.1101 21.5598C89.3601 18.5698 92.3901 16.2197 96.0001 16.2197C99.6101 16.2197 102.63 18.5598 102.89 21.5598C102.92 21.9198 102.7 22.2398 102.35 22.3398C101.42 22.6198 100.32 22.7498 99.0001 22.7498ZM90.7201 21.0598C91.3801 21.1898 92.1301 21.2498 93.0001 21.2498H99.0001C99.8701 21.2498 100.62 21.1898 101.28 21.0598C100.75 19.1398 98.5601 17.7197 96.0001 17.7197C93.4401 17.7197 91.2501 19.1398 90.7201 21.0598Z" fill="#657D94"/>
<path d="M99 2H93C88 2 86 4 86 9V15C86 18.78 87.14 20.85 89.86 21.62C90.08 19.02 92.75 16.97 96 16.97C99.25 16.97 101.92 19.02 102.14 21.62C104.86 20.85 106 18.78 106 15V9C106 4 104 2 99 2ZM96 14.17C94.02 14.17 92.42 12.56 92.42 10.58C92.42 8.60002 94.02 7 96 7C97.98 7 99.58 8.60002 99.58 10.58C99.58 12.56 97.98 14.17 96 14.17Z" stroke="#657D94" stroke-width="1.5" stroke-linecap="round" stroke-linejoin="round"/>
<path d="M95.9999 14.92C93.6099 14.92 91.6699 12.97 91.6699 10.58C91.6699 8.19002 93.6099 6.25 95.9999 6.25C98.3899 6.25 100.33 8.19002 100.33 10.58C100.33 12.97 98.3899 14.92 95.9999 14.92ZM95.9999 7.75C94.4399 7.75 93.1699 9.02002 93.1699 10.58C93.1699 12.15 94.4399 13.42 95.9999 13.42C97.5599 13.42 98.8299 12.15 98.8299 10.58C98.8299 9.02002 97.5599 7.75 95.9999 7.75Z" fill="#657D94"/>
<path d="M185 21.25H175C171.35 21.25 169.25 19.15 169.25 15.5V8.5C169.25 4.85 171.35 2.75 175 2.75H185C188.65 2.75 190.75 4.85 190.75 8.5V15.5C190.75 19.15 188.65 21.25 185 21.25ZM175 4.25C172.14 4.25 170.75 5.64 170.75 8.5V15.5C170.75 18.36 172.14 19.75 175 19.75H185C187.86 19.75 189.25 18.36 189.25 15.5V8.5C189.25 5.64 187.86 4.25 185 4.25H175Z" fill="#657D94"/>
<path d="M180 12.87C179.16 12.87 178.31 12.61 177.66 12.08L174.53 9.57997C174.21 9.31997 174.15 8.84997 174.41 8.52997C174.67 8.20997 175.14 8.14997 175.46 8.40997L178.59 10.91C179.35 11.52 180.64 11.52 181.4 10.91L184.53 8.40997C184.85 8.14997 185.33 8.19997 185.58 8.52997C185.84 8.84997 185.79 9.32997 185.46 9.57997L182.33 12.08C181.69 12.61 180.84 12.87 180 12.87Z" fill="#657D94"/>
<path d="M262 17.6998H258.21C254.41 17.6998 253.25 16.5398 253.25 12.7398V6.73979C253.25 2.93979 254.41 1.77979 258.21 1.77979H268.74C272.54 1.77979 273.7 2.93979 273.7 6.73979C273.7 7.14979 273.36 7.48979 272.95 7.48979C272.54 7.48979 272.2 7.14979 272.2 6.73979C272.2 3.79979 271.68 3.27979 268.74 3.27979H258.21C255.27 3.27979 254.75 3.79979 254.75 6.73979V12.7398C254.75 15.6798 255.27 16.1998 258.21 16.1998H262C262.41 16.1998 262.75 16.5398 262.75 16.9498C262.75 17.3598 262.41 17.6998 262 17.6998Z" fill="#657D94"/>
<path d="M262 22.2199C261.59 22.2199 261.25 21.8799 261.25 21.4699V16.9399C261.25 16.5299 261.59 16.1899 262 16.1899C262.41 16.1899 262.75 16.5299 262.75 16.9399V21.4699C262.75 21.8899 262.41 22.2199 262 22.2199Z" fill="#657D94"/>
<path d="M262 13.7002H254C253.59 13.7002 253.25 13.3602 253.25 12.9502C253.25 12.5402 253.59 12.2002 254 12.2002H262C262.41 12.2002 262.75 12.5402 262.75 12.9502C262.75 13.3602 262.41 13.7002 262 13.7002Z" fill="#657D94"/>
<path d="M262 22.2202H258.74C258.33 22.2202 257.99 21.8802 257.99 21.4702C257.99 21.0602 258.33 20.7202 258.74 20.7202H262C262.41 20.7202 262.75 21.0602 262.75 21.4702C262.75 21.8802 262.41 22.2202 262 22.2202Z" fill="#657D94"/>
<path d="M271.04 22.2198H267.49C264.72 22.2198 263.78 21.2798 263.78 18.5098V12.7998C263.78 10.0298 264.72 9.08984 267.49 9.08984H271.04C273.81 9.08984 274.75 10.0298 274.75 12.7998V18.5098C274.75 21.2898 273.81 22.2198 271.04 22.2198ZM267.49 10.5898C265.53 10.5898 265.28 10.8398 265.28 12.7998V18.5098C265.28 20.4698 265.53 20.7198 267.49 20.7198H271.04C273 20.7198 273.25 20.4698 273.25 18.5098V12.7998C273.25 10.8398 273 10.5898 271.04 10.5898H267.49Z" fill="#657D94"/>
<path d="M269.3 18.9698C269.04 18.9698 268.78 18.8698 268.59 18.6798C268.5 18.5898 268.43 18.4798 268.38 18.3598C268.33 18.2298 268.3 18.0998 268.3 17.9698C268.3 17.7098 268.41 17.4498 268.59 17.2698C268.82 17.0398 269.17 16.9298 269.5 16.9898C269.56 17.0098 269.62 17.0298 269.68 17.0498C269.74 17.0798 269.8 17.1098 269.85 17.1398C269.91 17.1798 269.96 17.2198 270.01 17.2698C270.19 17.4498 270.3 17.7098 270.3 17.9698C270.3 18.0998 270.27 18.2298 270.22 18.3598C270.17 18.4798 270.1 18.5898 270.01 18.6798C269.96 18.7298 269.91 18.7698 269.85 18.7998C269.8 18.8398 269.74 18.8698 269.68 18.8998C269.62 18.9198 269.56 18.9398 269.5 18.9498C269.43 18.9698 269.37 18.9698 269.3 18.9698Z" fill="#657D94"/>
<path d="M338 9.75C337.59 9.75 337.25 9.41 337.25 9V6.5C337.25 3.6 339.61 1.25 342.5 1.25H345C345.41 1.25 345.75 1.59 345.75 2C345.75 2.41 345.41 2.75 345 2.75H342.5C340.43 2.75 338.75 4.43 338.75 6.5V9C338.75 9.41 338.41 9.75 338 9.75Z" fill="#657D94"/>
<path d="M358 9.75C357.59 9.75 357.25 9.41 357.25 9V6.5C357.25 4.43 355.57 2.75 353.5 2.75H351C350.59 2.75 350.25 2.41 350.25 2C350.25 1.59 350.59 1.25 351 1.25H353.5C356.39 1.25 358.75 3.6 358.75 6.5V9C358.75 9.41 358.41 9.75 358 9.75Z" fill="#657D94"/>
<path d="M353.5 22.75H352C351.59 22.75 351.25 22.41 351.25 22C351.25 21.59 351.59 21.25 352 21.25H353.5C355.57 21.25 357.25 19.57 357.25 17.5V16C357.25 15.59 357.59 15.25 358 15.25C358.41 15.25 358.75 15.59 358.75 16V17.5C358.75 20.4 356.39 22.75 353.5 22.75Z" fill="#657D94"/>
<path d="M345 22.75H342.5C339.61 22.75 337.25 20.4 337.25 17.5V15C337.25 14.59 337.59 14.25 338 14.25C338.41 14.25 338.75 14.59 338.75 15V17.5C338.75 19.57 340.43 21.25 342.5 21.25H345C345.41 21.25 345.75 21.59 345.75 22C345.75 22.41 345.41 22.75 345 22.75Z" fill="#657D94"/>
<path d="M350 18.25H346C343.58 18.25 342.25 16.92 342.25 14.5V9.5C342.25 7.08 343.58 5.75 346 5.75H350C352.42 5.75 353.75 7.08 353.75 9.5V14.5C353.75 16.92 352.42 18.25 350 18.25ZM346 7.25C344.42 7.25 343.75 7.92 343.75 9.5V14.5C343.75 16.08 344.42 16.75 346 16.75H350C351.58 16.75 352.25 16.08 352.25 14.5V9.5C352.25 7.92 351.58 7.25 350 7.25H346Z" fill="#657D94"/>
<path d="M355 12.75H341C340.59 12.75 340.25 12.41 340.25 12C340.25 11.59 340.59 11.25 341 11.25H355C355.41 11.25 355.75 11.59 355.75 12C355.75 12.41 355.41 12.75 355 12.75Z" fill="#657D94"/>
</svg>
