<svg width="24" height="24" viewBox="0 0 24 24" fill="none" xmlns="http://www.w3.org/2000/svg">
<path d="M12.0101 22.7401C11.3801 22.7401 10.7601 22.5301 10.2701 22.1101L8.69012 20.7601C8.53012 20.6201 8.13012 20.4801 7.92012 20.4801H6.17012C4.69012 20.4801 3.49012 19.2801 3.49012 17.8001V16.0901C3.49012 15.8801 3.35012 15.4801 3.22012 15.3301L1.86012 13.7301C1.04012 12.7601 1.04012 11.2401 1.86012 10.2601L3.22012 8.66007C3.35012 8.51007 3.49012 8.11007 3.49012 7.90007V6.20007C3.49012 4.72007 4.69012 3.52007 6.17012 3.52007H7.90012C8.11012 3.52007 8.50012 3.37007 8.67012 3.23007L10.2501 1.88007C11.2301 1.05007 12.7601 1.05007 13.7401 1.88007L15.3201 3.23007C15.4801 3.37007 15.8901 3.51007 16.1001 3.51007H17.8001C19.2801 3.51007 20.4801 4.71007 20.4801 6.19007V7.89007C20.4801 8.10007 20.6301 8.49007 20.7701 8.66007L22.1201 10.2401C22.9601 11.2301 22.9501 12.7601 22.1201 13.7301L20.7701 15.3101C20.6301 15.4801 20.4901 15.8701 20.4901 16.0801V17.7801C20.4901 19.2601 19.2901 20.4601 17.8101 20.4601H16.1101C15.9001 20.4601 15.5101 20.6101 15.3301 20.7501L13.7501 22.1001C13.2601 22.5301 12.6301 22.7401 12.0101 22.7401ZM6.17012 5.02007C5.52012 5.02007 4.99012 5.55007 4.99012 6.20007V7.90007C4.99012 8.47007 4.73012 9.19007 4.36012 9.63007L3.00012 11.2301C2.66012 11.6401 2.66012 12.3601 3.00012 12.7601L4.35012 14.3501C4.71012 14.7601 4.98012 15.5101 4.98012 16.0801V17.7901C4.98012 18.4401 5.51012 18.9701 6.16012 18.9701H7.90012C8.46012 18.9701 9.20012 19.2401 9.64012 19.6101L11.2301 20.9701C11.6401 21.3201 12.3601 21.3201 12.7701 20.9701L14.3501 19.6201C14.8001 19.2401 15.5301 18.9801 16.0901 18.9801H17.7901C18.4401 18.9801 18.9701 18.4501 18.9701 17.8001V16.1001C18.9701 15.5401 19.2401 14.8101 19.6101 14.3601L20.9701 12.7701C21.3201 12.3601 21.3201 11.6401 20.9701 11.2301L19.6201 9.65007C19.2401 9.20007 18.9801 8.47007 18.9801 7.91007V6.20007C18.9801 5.55007 18.4501 5.02007 17.8001 5.02007H16.1001C15.5301 5.02007 14.7901 4.75007 14.3501 4.38007L12.7601 3.02007C12.3501 2.67007 11.6401 2.67007 11.2201 3.02007L9.65012 4.38007C9.20012 4.75007 8.47012 5.02007 7.90012 5.02007H6.17012Z" fill="#393CFF"/>
<path d="M11.3546 13.775C11.2946 13.335 11.3196 12.945 11.4296 12.605C11.5396 12.265 11.6946 11.955 11.8946 11.675C12.1046 11.395 12.3196 11.13 12.5396 10.88C12.7596 10.63 12.9446 10.385 13.0946 10.145C13.2446 9.90502 13.3196 9.65002 13.3196 9.38002C13.3196 9.02002 13.2096 8.73002 12.9896 8.51002C12.7796 8.29002 12.4846 8.18002 12.1046 8.18002C11.7946 8.18002 11.5146 8.25002 11.2646 8.39002C11.0146 8.53002 10.7796 8.72002 10.5596 8.96002L9.59961 8.07502C9.92961 7.69502 10.3246 7.38502 10.7846 7.14502C11.2446 6.89502 11.7546 6.77002 12.3146 6.77002C13.0946 6.77002 13.7346 6.98002 14.2346 7.40002C14.7446 7.82002 14.9996 8.44002 14.9996 9.26002C14.9996 9.64002 14.9196 9.98002 14.7596 10.28C14.6096 10.58 14.4196 10.86 14.1896 11.12C13.9696 11.38 13.7496 11.64 13.5296 11.9C13.3096 12.16 13.1346 12.44 13.0046 12.74C12.8746 13.04 12.8296 13.385 12.8696 13.775H11.3546ZM12.1196 17.18C11.8096 17.18 11.5446 17.07 11.3246 16.85C11.1146 16.63 11.0096 16.35 11.0096 16.01C11.0096 15.67 11.1146 15.39 11.3246 15.17C11.5446 14.95 11.8096 14.84 12.1196 14.84C12.4396 14.84 12.7046 14.95 12.9146 15.17C13.1346 15.39 13.2446 15.67 13.2446 16.01C13.2446 16.35 13.1346 16.63 12.9146 16.85C12.7046 17.07 12.4396 17.18 12.1196 17.18Z" fill="#393CFF"/>
</svg>
