<svg width="16" height="16" viewBox="0 0 16 16" fill="none" xmlns="http://www.w3.org/2000/svg">
<path d="M6.10334 14.0903C6.10331 14.0945 6.10303 14.0987 6.10303 14.1028C6.10303 15.1505 6.95236 15.9999 8.00007 15.9999C9.04778 15.9999 9.89711 15.1505 9.89711 14.1028C9.89711 14.0987 9.89683 14.0945 9.8968 14.0903H6.10334Z" fill="#02B554"/>
<path d="M14.0569 11.7192L12.3495 9.21111C12.3495 8.44335 12.3495 6.56735 12.3495 6.08206C12.3495 3.97184 10.8467 2.21284 8.85295 1.81644V0.852887C8.85292 0.381875 8.47108 0 8.00003 0C7.52898 0 7.14714 0.381875 7.14714 0.852887V1.81647C5.15341 2.21291 3.65057 3.97191 3.65057 6.08209C3.65057 6.90819 3.65057 8.73233 3.65057 9.21115L1.94323 11.7192C1.76338 11.9834 1.74436 12.3253 1.8938 12.6078C2.04323 12.8903 2.3366 13.067 2.65619 13.067H13.3439C13.6635 13.067 13.9568 12.8903 14.1063 12.6078C14.2557 12.3253 14.2367 11.9833 14.0569 11.7192Z" fill="#02B554"/>
</svg>
