<svg width="30" height="30" viewBox="0 0 30 30" fill="none" xmlns="http://www.w3.org/2000/svg">
<path d="M15.0129 28.4249C14.2254 28.4249 13.4504 28.1624 12.8379 27.6374L10.8629 25.9499C10.6629 25.7749 10.1629 25.5999 9.90039 25.5999H7.71289C5.86289 25.5999 4.36289 24.0999 4.36289 22.2499V20.1124C4.36289 19.8499 4.18789 19.3499 4.02539 19.1624L2.32539 17.1624C1.30039 15.9499 1.30039 14.0499 2.32539 12.8249L4.02539 10.8249C4.18789 10.6374 4.36289 10.1374 4.36289 9.8749V7.7499C4.36289 5.8999 5.86289 4.3999 7.71289 4.3999H9.87539C10.1379 4.3999 10.6254 4.2124 10.8379 4.0374L12.8129 2.3499C14.0379 1.3124 15.9504 1.3124 17.1754 2.3499L19.1504 4.0374C19.3504 4.2124 19.8629 4.3874 20.1254 4.3874H22.2504C24.1004 4.3874 25.6004 5.8874 25.6004 7.7374V9.8624C25.6004 10.1249 25.7879 10.6124 25.9629 10.8249L27.6504 12.7999C28.7004 14.0374 28.6879 15.9499 27.6504 17.1624L25.9629 19.1374C25.7879 19.3499 25.6129 19.8374 25.6129 20.0999V22.2249C25.6129 24.0749 24.1129 25.5749 22.2629 25.5749H20.1379C19.8754 25.5749 19.3879 25.7624 19.1629 25.9374L17.1879 27.6249C16.5754 28.1624 15.7879 28.4249 15.0129 28.4249ZM7.71289 6.2749C6.90039 6.2749 6.23789 6.9374 6.23789 7.7499V9.8749C6.23789 10.5874 5.91289 11.4874 5.45039 12.0374L3.75039 14.0374C3.32539 14.5499 3.32539 15.4499 3.75039 15.9499L5.43789 17.9374C5.88789 18.4499 6.22539 19.3874 6.22539 20.0999V22.2374C6.22539 23.0499 6.88789 23.7124 7.70039 23.7124H9.87539C10.5754 23.7124 11.5004 24.0499 12.0504 24.5124L14.0379 26.2124C14.5504 26.6499 15.4504 26.6499 15.9629 26.2124L17.9379 24.5249C18.5004 24.0499 19.4129 23.7249 20.1129 23.7249H22.2379C23.0504 23.7249 23.7129 23.0624 23.7129 22.2499V20.1249C23.7129 19.4249 24.0504 18.5124 24.5129 17.9499L26.2129 15.9624C26.6504 15.4499 26.6504 14.5499 26.2129 14.0374L24.5254 12.0624C24.0504 11.4999 23.7254 10.5874 23.7254 9.8874V7.7499C23.7254 6.9374 23.0629 6.2749 22.2504 6.2749H20.1254C19.4129 6.2749 18.4879 5.9374 17.9379 5.4749L15.9504 3.7749C15.4379 3.3374 14.5504 3.3374 14.0254 3.7749L12.0629 5.4749C11.5004 5.9374 10.5879 6.2749 9.87539 6.2749H7.71289Z" fill="#FFE03E"/>
<path d="M15 21.0874C14.3125 21.0874 13.75 20.5249 13.75 19.8374C13.75 19.1499 14.3 18.5874 15 18.5874C15.6875 18.5874 16.25 19.1499 16.25 19.8374C16.25 20.5249 15.7 21.0874 15 21.0874Z" fill="#FFE03E"/>
<path d="M15 17.1501C14.4875 17.1501 14.0625 16.7251 14.0625 16.2126V10.1626C14.0625 9.6501 14.4875 9.2251 15 9.2251C15.5125 9.2251 15.9375 9.6501 15.9375 10.1626V16.2001C15.9375 16.7251 15.525 17.1501 15 17.1501Z" fill="#FFE03E"/>
</svg>
