<svg width="93" height="24" viewBox="0 0 93 24" fill="none" xmlns="http://www.w3.org/2000/svg">
<path fill-rule="evenodd" clip-rule="evenodd" d="M88.8746 12.4679L84.178 8.13394C83.5421 7.54714 83.5393 6.54354 84.1718 5.95316V5.95316C84.746 5.41729 85.6378 5.42005 86.2086 5.95944L92.0969 11.5236C92.3693 11.8155 92.5141 12.2039 92.4993 12.6029C92.4844 13.0019 92.3111 13.3785 92.0177 13.6493L86.0004 19.047C85.3917 19.6089 84.4427 19.571 83.8808 18.9622C83.3189 18.3535 83.3568 17.4045 83.9656 16.8426L88.8746 12.4679Z" fill="#373AE3"/>
<path fill-rule="evenodd" clip-rule="evenodd" d="M76.6257 12.4679L81.3222 8.13394C81.9581 7.54714 81.961 6.54354 81.3284 5.95316V5.95316C80.7543 5.41729 79.8625 5.42005 79.2917 5.95944L73.4034 11.5236C73.1309 11.8155 72.9861 12.2039 73.001 12.6029C73.0158 13.0019 73.1891 13.3785 73.4825 13.6493L79.4998 19.047C80.1086 19.6089 81.0576 19.571 81.6195 18.9622C82.1814 18.3535 82.1434 17.4045 81.5347 16.8426L76.6257 12.4679Z" fill="#373AE3"/>
<path d="M64.9919 22.7498H56.9919C52.3719 22.7498 51.5119 20.5998 51.2919 18.5098L50.5419 10.4998C50.4319 9.44977 50.4019 7.89977 51.4419 6.73977C52.3419 5.73977 53.8319 5.25977 55.9919 5.25977H65.9919C68.1619 5.25977 69.6519 5.74977 70.5419 6.73977C71.5819 7.89977 71.5519 9.44977 71.4419 10.5098L70.6919 18.4998C70.4719 20.5998 69.6119 22.7498 64.9919 22.7498ZM55.9919 6.74977C54.3019 6.74977 53.1419 7.07977 52.5519 7.73977C52.0619 8.27977 51.9019 9.10977 52.0319 10.3498L52.7819 18.3598C52.9519 19.9398 53.3819 21.2498 56.9919 21.2498H64.9919C68.5919 21.2498 69.0319 19.9398 69.2019 18.3498L69.9519 10.3598C70.0819 9.10977 69.9219 8.27977 69.4319 7.73977C68.8419 7.07977 67.6819 6.74977 65.9919 6.74977H55.9919Z" fill="#393CFF"/>
<path d="M64.9919 6.75C64.5819 6.75 64.2419 6.41 64.2419 6V5.2C64.2419 3.42 64.2419 2.75 61.7919 2.75H60.1919C57.7419 2.75 57.7419 3.42 57.7419 5.2V6C57.7419 6.41 57.4019 6.75 56.9919 6.75C56.5819 6.75 56.2419 6.41 56.2419 6V5.2C56.2419 3.44 56.2419 1.25 60.1919 1.25H61.7919C65.7419 1.25 65.7419 3.44 65.7419 5.2V6C65.7419 6.41 65.4019 6.75 64.9919 6.75Z" fill="#393CFF"/>
<path d="M60.9919 16.75C58.2419 16.75 58.2419 15.05 58.2419 14.03V13C58.2419 11.59 58.5819 11.25 59.9919 11.25H61.9919C63.4019 11.25 63.7419 11.59 63.7419 13V14C63.7419 15.04 63.7419 16.75 60.9919 16.75ZM59.7419 12.75C59.7419 12.83 59.7419 12.92 59.7419 13V14.03C59.7419 15.06 59.7419 15.25 60.9919 15.25C62.2419 15.25 62.2419 15.09 62.2419 14.02V13C62.2419 12.92 62.2419 12.83 62.2419 12.75C62.1619 12.75 62.0719 12.75 61.9919 12.75H59.9919C59.9119 12.75 59.8219 12.75 59.7419 12.75Z" fill="#393CFF"/>
<path d="M62.9919 14.7702C62.6219 14.7702 62.2919 14.4902 62.2519 14.1102C62.2019 13.7002 62.4919 13.3202 62.9019 13.2702C65.5419 12.9402 68.0719 11.9402 70.2019 10.3902C70.5319 10.1402 71.0019 10.2202 71.2519 10.5602C71.4919 10.8902 71.4219 11.3602 71.0819 11.6102C68.7419 13.3102 65.9819 14.4002 63.0819 14.7702C63.0519 14.7702 63.0219 14.7702 62.9919 14.7702Z" fill="#393CFF"/>
<path d="M58.9919 14.7799C58.9619 14.7799 58.9319 14.7799 58.9019 14.7799C56.1619 14.4699 53.4919 13.4699 51.1819 11.8899C50.8419 11.6599 50.7519 11.1899 50.9819 10.8499C51.2119 10.5099 51.6819 10.4199 52.0219 10.6499C54.1319 12.0899 56.5619 12.9999 59.0619 13.2899C59.4719 13.3399 59.7719 13.7099 59.7219 14.1199C59.6919 14.4999 59.3719 14.7799 58.9919 14.7799Z" fill="#393CFF"/>
<path d="M37.002 17.0003C36.152 17.0003 35.292 16.7803 34.622 16.3503L28.602 12.4203C27.482 11.6903 26.812 10.4603 26.812 9.12028C26.812 7.78028 27.482 6.55028 28.602 5.82028L34.632 1.90028C35.972 1.03028 38.062 1.03028 39.392 1.91028L45.382 5.84028C46.492 6.57028 47.162 7.80028 47.162 9.13028C47.162 10.4603 46.492 11.6903 45.382 12.4203L39.392 16.3503C38.722 16.7903 37.862 17.0003 37.002 17.0003ZM37.002 2.75028C36.432 2.75028 35.862 2.88028 35.452 3.16028L29.432 7.08028C28.732 7.54028 28.322 8.28028 28.322 9.12028C28.322 9.96028 28.722 10.7003 29.432 11.1603L35.452 15.0903C36.282 15.6303 37.742 15.6303 38.572 15.0903L44.562 11.1603C45.262 10.7003 45.662 9.96028 45.662 9.12028C45.662 8.28028 45.262 7.54028 44.562 7.08028L38.572 3.15028C38.152 2.89028 37.582 2.75028 37.002 2.75028Z" fill="#393CFF"/>
<path d="M36.9919 22.7501C36.5519 22.7501 36.1019 22.6901 35.7419 22.5701L32.5519 21.5101C31.0419 21.0101 29.8519 19.3601 29.8619 17.7701L29.8719 13.0801C29.8719 12.6701 30.2119 12.3301 30.6219 12.3301C31.0319 12.3301 31.3719 12.6701 31.3719 13.0801L31.3619 17.7701C31.3619 18.7101 32.1419 19.7901 33.0319 20.0901L36.2219 21.1501C36.6219 21.2801 37.3619 21.2801 37.7619 21.1501L40.9519 20.0901C41.8419 19.7901 42.6219 18.7101 42.6219 17.7801V13.1401C42.6219 12.7301 42.9619 12.3901 43.3719 12.3901C43.7819 12.3901 44.1219 12.7301 44.1219 13.1401V17.7801C44.1219 19.3701 42.9419 21.0101 41.4319 21.5201L38.2419 22.5801C37.8819 22.6901 37.4319 22.7501 36.9919 22.7501Z" fill="#393CFF"/>
<path d="M46.3918 15.75C45.9818 15.75 45.6418 15.41 45.6418 15V9C45.6418 8.59 45.9818 8.25 46.3918 8.25C46.8018 8.25 47.1418 8.59 47.1418 9V15C47.1418 15.41 46.8018 15.75 46.3918 15.75Z" fill="#393CFF"/>
<path d="M12.9919 22.75C12.2919 22.75 11.5819 22.48 11.0519 21.95L9.34192 20.26C8.92192 19.84 8.34195 19.61 7.75195 19.61H6.99194C4.92194 19.61 3.24194 17.94 3.24194 15.89V4.97C3.24194 2.92 4.92194 1.25 6.99194 1.25H18.9919C21.0619 1.25 22.7419 2.92 22.7419 4.97V15.88C22.7419 17.93 21.0619 19.6 18.9919 19.6H18.2319C17.6419 19.6 17.062 19.84 16.642 20.25L14.9319 21.94C14.4019 22.48 13.6919 22.75 12.9919 22.75ZM6.99194 2.75C5.75194 2.75 4.74194 3.75 4.74194 4.97V15.88C4.74194 17.11 5.75194 18.1 6.99194 18.1H7.75195C8.74195 18.1 9.70192 18.5 10.4019 19.19L12.1119 20.88C12.6019 21.36 13.392 21.36 13.882 20.88L15.5919 19.19C16.2919 18.5 17.2519 18.1 18.2419 18.1H18.9919C20.2319 18.1 21.2419 17.1 21.2419 15.88V4.97C21.2419 3.74 20.2319 2.75 18.9919 2.75H6.99194V2.75Z" fill="#393CFF"/>
<path d="M13.0618 9.6998C13.0418 9.6998 13.0118 9.6998 12.9918 9.6998C12.9618 9.6998 12.9218 9.6998 12.8918 9.6998C11.4318 9.6498 10.2917 8.4698 10.2917 6.9998C10.2917 5.5098 11.5018 4.2998 12.9918 4.2998C14.4818 4.2998 15.6918 5.5098 15.6918 6.9998C15.6818 8.4698 14.5418 9.6498 13.0818 9.6998C13.0818 9.6998 13.0718 9.6998 13.0618 9.6998ZM12.9918 5.7998C12.3318 5.7998 11.7917 6.3398 11.7917 6.9998C11.7917 7.6498 12.3018 8.1798 12.9418 8.1998C12.9418 8.1898 13.0018 8.1898 13.0718 8.1998C13.7018 8.1598 14.1918 7.6398 14.1918 6.9998C14.1918 6.3398 13.6518 5.7998 12.9918 5.7998Z" fill="#393CFF"/>
<path d="M12.9919 16.7001C11.8519 16.7001 10.712 16.4001 9.82196 15.8101C8.98196 15.2501 8.49194 14.4401 8.49194 13.5801C8.49194 12.7201 8.97196 11.9001 9.82196 11.3401C11.602 10.1601 14.3819 10.1601 16.1519 11.3401C16.9919 11.9001 17.4819 12.7201 17.4819 13.5701C17.4819 14.4301 17.0019 15.2401 16.1519 15.8101C15.2719 16.4101 14.1319 16.7001 12.9919 16.7001ZM10.6519 12.5901C10.2219 12.8801 9.99194 13.2301 9.99194 13.5801C9.99194 13.9301 10.2319 14.2801 10.6519 14.5701C11.9219 15.4201 14.052 15.4201 15.322 14.5701C15.752 14.2801 15.9919 13.9301 15.9819 13.5801C15.9819 13.2301 15.742 12.8801 15.322 12.5901C14.062 11.7401 11.9219 11.7401 10.6519 12.5901Z" fill="#393CFF"/>
</svg>
