<svg width="54" height="18" viewBox="0 0 54 18" fill="none" xmlns="http://www.w3.org/2000/svg">
<path d="M47.25 17.0625H42.75C38.6775 17.0625 36.9375 15.3225 36.9375 11.25V6.75C36.9375 2.6775 38.6775 0.9375 42.75 0.9375H47.25C51.3225 0.9375 53.0625 2.6775 53.0625 6.75V11.25C53.0625 15.3225 51.3225 17.0625 47.25 17.0625ZM42.75 2.0625C39.2925 2.0625 38.0625 3.2925 38.0625 6.75V11.25C38.0625 14.7075 39.2925 15.9375 42.75 15.9375H47.25C50.7075 15.9375 51.9375 14.7075 51.9375 11.25V6.75C51.9375 3.2925 50.7075 2.0625 47.25 2.0625H42.75Z" fill="#767C99"/>
<path d="M42.4278 12.0151C42.2853 12.0151 42.1428 11.9626 42.0303 11.8501C41.8128 11.6326 41.8128 11.2726 42.0303 11.0551L46.9428 6.14262C47.1603 5.92512 47.5203 5.92512 47.7378 6.14262C47.9553 6.36012 47.9553 6.72012 47.7378 6.93762L42.8253 11.8501C42.7128 11.9626 42.5703 12.0151 42.4278 12.0151Z" fill="#767C99"/>
<path d="M42.735 8.3323C41.9175 8.3323 41.25 7.66481 41.25 6.84731C41.25 6.02981 41.9175 5.3623 42.735 5.3623C43.5525 5.3623 44.22 6.02981 44.22 6.84731C44.22 7.66481 43.5525 8.3323 42.735 8.3323ZM42.735 6.49481C42.54 6.49481 42.375 6.65232 42.375 6.85482C42.375 7.05732 42.5325 7.21481 42.735 7.21481C42.9375 7.21481 43.095 7.05732 43.095 6.85482C43.095 6.65232 42.93 6.49481 42.735 6.49481Z" fill="#767C99"/>
<path d="M47.6403 12.6301C46.8228 12.6301 46.1553 11.9626 46.1553 11.1451C46.1553 10.3276 46.8228 9.66016 47.6403 9.66016C48.4578 9.66016 49.1253 10.3276 49.1253 11.1451C49.1253 11.9626 48.4578 12.6301 47.6403 12.6301ZM47.6403 10.7927C47.4453 10.7927 47.2803 10.9501 47.2803 11.1526C47.2803 11.3551 47.4378 11.5127 47.6403 11.5127C47.8428 11.5127 48.0003 11.3551 48.0003 11.1526C48.0003 10.9501 47.8428 10.7927 47.6403 10.7927Z" fill="#767C99"/>
<path d="M19.0625 12.875L19 7.50003H20.125L20.1875 12.8772C20.1882 15.0207 21.2307 16.0625 23.375 16.0625H24.4988L24.5 16.0625H30.8253C32.9703 16.0625 34.0128 15.02 34.0128 12.875V7.00005H35.1378V12.875C35.1378 15.6125 33.5628 17.1875 30.8253 17.1875H24.5L23.375 17.1875C20.7078 17.1875 19.1442 15.6924 19.0656 13.0836C19.0636 13.0644 19.0625 13.0448 19.0625 13.025V12.875Z" fill="#767C99"/>
<path d="M27.0625 9C25.72 9 24.625 7.905 24.625 6.5625C24.625 5.22 25.72 4.125 27.0625 4.125C28.405 4.125 29.5 5.22 29.5 6.5625C29.5 7.905 28.405 9 27.0625 9ZM27.0625 5.25C26.3425 5.25 25.75 5.8425 25.75 6.5625C25.75 7.2825 26.3425 7.875 27.0625 7.875C27.7825 7.875 28.375 7.2825 28.375 6.5625C28.375 5.8425 27.7825 5.25 27.0625 5.25Z" fill="#767C99"/>
<path d="M22.375 9C22.0675 9 21.8125 8.745 21.8125 8.4375V4.6875C21.8125 4.38 22.0675 4.125 22.375 4.125C22.6825 4.125 22.9375 4.38 22.9375 4.6875V8.4375C22.9375 8.745 22.6825 9 22.375 9Z" fill="#767C99"/>
<path d="M31.9375 9C31.63 9 31.375 8.745 31.375 8.4375V4.6875C31.375 4.38 31.63 4.125 31.9375 4.125C32.245 4.125 32.5 4.38 32.5 4.6875V8.4375C32.5 8.745 32.245 9 31.9375 9Z" fill="#767C99"/>
<path d="M23.3125 1.03268e-06L29.6875 4.75361e-07C29.995 4.48479e-07 30.25 0.255 30.25 0.5625C30.25 0.87 29.995 1.125 29.6875 1.125L23.3125 1.125C21.1675 1.125 20.125 2.1675 20.125 4.3125L20.125 8.8125C20.125 10.9575 21.1675 12 23.3125 12L30.8125 12C32.9575 12 34 10.9575 34 8.8125L34 4.16249C34 3.85499 34.255 3.59999 34.5625 3.59999C34.87 3.59999 35.125 3.85499 35.125 4.16249L35.125 8.8125C35.125 11.55 33.55 13.125 30.8125 13.125L23.3125 13.125C20.575 13.125 19 11.55 19 8.8125L19 4.3125C19 1.575 20.575 1.272e-06 23.3125 1.03268e-06Z" fill="#767C99"/>
<path d="M30.8125 13.125H24.4375C24.13 13.125 23.875 12.87 23.875 12.5625C23.875 12.255 24.13 12 24.4375 12H30.8125C32.9575 12 34 10.9575 34 8.8125V4.3125C34 2.1675 32.9575 1.125 30.8125 1.125H23.3125C21.1675 1.125 20.125 2.1675 20.125 4.3125V8.96251C20.125 9.27001 19.87 9.52501 19.5625 9.52501C19.255 9.52501 19 9.27001 19 8.96251V4.3125C19 1.575 20.575 0 23.3125 0H30.8125C33.55 0 35.125 1.575 35.125 4.3125V8.8125C35.125 11.55 33.55 13.125 30.8125 13.125Z" fill="#767C99"/>
<path d="M11.2524 17.0626H6.75243C5.76243 17.0626 4.93743 16.9651 4.23993 16.7551C3.98493 16.6801 3.81993 16.4326 3.83493 16.1701C4.02243 13.9276 6.29493 12.165 9.00243 12.165C11.7099 12.165 13.9749 13.9201 14.1699 16.1701C14.1924 16.4401 14.0274 16.6801 13.7649 16.7551C13.0674 16.9651 12.2424 17.0626 11.2524 17.0626ZM5.04243 15.7951C5.53743 15.8926 6.09993 15.9376 6.75243 15.9376H11.2524C11.9049 15.9376 12.4674 15.8926 12.9624 15.7951C12.5649 14.3551 10.9224 13.29 9.00243 13.29C7.08243 13.29 5.43993 14.3551 5.04243 15.7951Z" fill="#767C99"/>
<path d="M11.252 1.5H6.75195C3.00195 1.5 1.50195 3 1.50195 6.75V11.25C1.50195 14.085 2.35695 15.6375 4.39695 16.215C4.56195 14.265 6.56445 12.7275 9.00195 12.7275C11.4395 12.7275 13.442 14.265 13.607 16.215C15.647 15.6375 16.502 14.085 16.502 11.25V6.75C16.502 3 15.002 1.5 11.252 1.5ZM9.00195 10.6275C7.51695 10.6275 6.31695 9.42001 6.31695 7.93501C6.31695 6.45001 7.51695 5.25 9.00195 5.25C10.487 5.25 11.687 6.45001 11.687 7.93501C11.687 9.42001 10.487 10.6275 9.00195 10.6275Z" stroke="#767C99" stroke-width="1.2" stroke-linecap="round" stroke-linejoin="round"/>
<path d="M9.00141 11.19C7.20891 11.19 5.75391 9.72751 5.75391 7.93501C5.75391 6.14251 7.20891 4.6875 9.00141 4.6875C10.7939 4.6875 12.2489 6.14251 12.2489 7.93501C12.2489 9.72751 10.7939 11.19 9.00141 11.19ZM9.00141 5.8125C7.83141 5.8125 6.87891 6.76501 6.87891 7.93501C6.87891 9.11251 7.83141 10.065 9.00141 10.065C10.1714 10.065 11.1239 9.11251 11.1239 7.93501C11.1239 6.76501 10.1714 5.8125 9.00141 5.8125Z" fill="#767C99"/>
</svg>
